{
.appVersion = "1286";
DisplayStrings = (

glyphs = (
{
color = (255,255,0,255);
glyphname = A;
layers = (
{
anchors = (
{
name = bottom;
position = "{319, -1}";
},
{
name = hook;
position = "{325, 730}";
},
{
name = ogonek;
position = "{616, 0}";
},
{
name = ring;
position = "{325, 700}";
},
{
name = top;
position = "{325, 711}";
}
);
background = {
anchors = (
{
name = bottom;
position = "{300, -1}";
},
{
name = ogonek;
position = "{567, 0}";
},
{
name = ring;
position = "{300, 700}";
},
{
name = top;
position = "{300, 711}";
}
);
paths = (
{
closed = 1;
nodes = (
"266 433 OFFCURVE",
"280 511 OFFCURVE",
"302 628 CURVE SMOOTH",
"308 660 OFFCURVE",
"329 681 OFFCURVE",
"421 700 CURVE",
"169 700 LINE",
"149 596 OFFCURVE",
"103 355 OFFCURVE",
"37 13 CURVE SMOOTH",
"35 3 OFFCURVE",
"41 0 OFFCURVE",
"45 0 CURVE SMOOTH",
"92 0 OFFCURVE",
"139 0 OFFCURVE",
"186 0 CURVE"
);
},
{
closed = 1;
nodes = (
"512 277 OFFCURVE",
"467 515 OFFCURVE",
"433 689 CURVE SMOOTH",
"432 694 OFFCURVE",
"431 695 OFFCURVE",
"429 697 CURVE SMOOTH",
"426 700 OFFCURVE",
"425 700 OFFCURVE",
"421 700 CURVE",
"277 700 OFFCURVE",
"257 689 OFFCURVE",
"257 556 CURVE",
"273 556 OFFCURVE",
"294 556 OFFCURVE",
"306 556 CURVE SMOOTH",
"310 556 OFFCURVE",
"313 555 OFFCURVE",
"314 550 CURVE SMOOTH",
"335 432 OFFCURVE",
"359 304 OFFCURVE",
"412 11 CURVE SMOOTH",
"413 6 OFFCURVE",
"414 4 OFFCURVE",
"415 3 CURVE SMOOTH",
"417 1 OFFCURVE",
"419 0 OFFCURVE",
"423 0 CURVE SMOOTH",
"471 0 OFFCURVE",
"518 0 OFFCURVE",
"566 0 CURVE"
);
},
{
closed = 1;
nodes = (
"147 161 LINE SMOOTH",
"147 158 OFFCURVE",
"148 155 OFFCURVE",
"150 153 CURVE SMOOTH",
"152 151 OFFCURVE",
"155 150 OFFCURVE",
"158 150 CURVE",
"467 150 LINE",
"467 288 OFFCURVE",
"462 292 OFFCURVE",
"456 292 CURVE SMOOTH",
"147 292 LINE"
);
}
);
};
layerId = master01;
paths = (
{
closed = 1;
nodes = (
"147 161 LINE SMOOTH",
"147 155 OFFCURVE",
"152 150 OFFCURVE",
"158 150 CURVE",
"485 150 LINE",
"454 289 LINE",
"417 280 LINE",
"395 280 OFFCURVE",
"373 280 OFFCURVE",
"351 280 CURVE",
"149 280 LINE"
);
},
{
closed = 1;
nodes = (
"269 347 OFFCURVE",
"305 498 OFFCURVE",
"318 606 CURVE",
"275 580 LINE",
"377 580 LINE",
"333 606 LINE",
"345 498 OFFCURVE",
"379 346 OFFCURVE",
"459 19 CURVE SMOOTH",
"463 3 OFFCURVE",
"466 0 OFFCURVE",
"478 0 CURVE SMOOTH",
"520 0 OFFCURVE",
"573 0 OFFCURVE",
"615 0 CURVE",
"605 53 OFFCURVE",
"593 104 OFFCURVE",
"582 153 CURVE SMOOTH",
"533 367 OFFCURVE",
"490 548 OFFCURVE",
"457 689 CURVE SMOOTH",
"455 696 OFFCURVE",
"452 700 OFFCURVE",
"445 700 CURVE SMOOTH",
"374 700 OFFCURVE",
"279 700 OFFCURVE",
"195 700 CURVE",
"167 576 OFFCURVE",
"58 111 OFFCURVE",
"35 13 CURVE SMOOTH",
"33 3 OFFCURVE",
"39 0 OFFCURVE",
"43 0 CURVE",
"90 0 OFFCURVE",
"137 0 OFFCURVE",
"184 0 CURVE"
);
}
);
userData = {
com.arrowtype.glyphMarkStatus = check;
};
width = 650;
},
{
anchors = (
{
name = bottom;
position = "{319, -1}";
},
{
name = hook;
position = "{325, 730}";
},
{
name = ogonek;
position = "{616, 0}";
},
{
name = ring;
position = "{325, 700}";
},
{
name = top;
position = "{325, 711}";
}
);
associatedMasterId = master01;
layerId = "672A04A8-E6FC-4017-82C8-CEE4FF2D4D73";
name = foreground;
paths = (
{
closed = 1;
nodes = (
"147 161 LINE SMOOTH",
"147 155 OFFCURVE",
"152 150 OFFCURVE",
"158 150 CURVE",
"485 150 LINE",
"454 289 LINE",
"417 280 LINE",
"395 280 OFFCURVE",
"373 280 OFFCURVE",
"351 280 CURVE",
"149 280 LINE"
);
},
{
closed = 1;
nodes = (
"269 347 OFFCURVE",
"305 498 OFFCURVE",
"318 606 CURVE",
"275 580 LINE",
"377 580 LINE",
"333 606 LINE",
"345 498 OFFCURVE",
"379 346 OFFCURVE",
"459 19 CURVE SMOOTH",
"463 3 OFFCURVE",
"466 0 OFFCURVE",
"478 0 CURVE SMOOTH",
"520 0 OFFCURVE",
"573 0 OFFCURVE",
"615 0 CURVE",
"605 53 OFFCURVE",
"593 104 OFFCURVE",
"582 153 CURVE SMOOTH",
"533 367 OFFCURVE",
"490 548 OFFCURVE",
"457 689 CURVE SMOOTH",
"455 696 OFFCURVE",
"452 700 OFFCURVE",
"445 700 CURVE SMOOTH",
"374 700 OFFCURVE",
"279 700 OFFCURVE",
"195 700 CURVE",
"167 576 OFFCURVE",
"58 111 OFFCURVE",
"35 13 CURVE SMOOTH",
"33 3 OFFCURVE",
"39 0 OFFCURVE",
"43 0 CURVE",
"90 0 OFFCURVE",
"137 0 OFFCURVE",
"184 0 CURVE"
);
}
);
userData = {
com.arrowtype.glyphMarkStatus = check;
};
width = 650;
}
);
leftKerningGroup = A_left;
rightKerningGroup = A_right;
unicode = 0041;
},
{
color = (0,0,0,64);
glyphname = B;
layers = (
{
layerId = master01;
paths = (
{
closed = 1;
nodes = (
"457 0 OFFCURVE",
"540 48 OFFCURVE",
"540 169 CURVE SMOOTH",
"540 197 LINE SMOOTH",
"540 284 OFFCURVE",
"493 332 OFFCURVE",
"415 343 CURVE",
"415 383 LINE",
"156 383 LINE",
"150 290 LINE",
"314 290 LINE",
"363 290 OFFCURVE",
"385 270.912 OFFCURVE",
"385 226 CURVE SMOOTH",
"385 194 LINE SMOOTH",
"385 156 OFFCURVE",
"363 132 OFFCURVE",
"314 132 CURVE",
"286 132 OFFCURVE",
"258 132 OFFCURVE",
"230 132 CURVE",
"230 263 OFFCURVE",
"230 368 OFFCURVE",
"230 483 CURVE SMOOTH",
"230 518 OFFCURVE",
"230 555 OFFCURVE",
"230 595 CURVE",
"237 616 LINE",
"75 616 LINE",
"75 400 OFFCURVE",
"75 227 OFFCURVE",
"75 11 CURVE",
"75 4 OFFCURVE",
"79 0 OFFCURVE",
"86 0 CURVE SMOOTH",
"97 0 OFFCURVE",
"249 0 OFFCURVE",
"330 0 CURVE SMOOTH"
);
},
{
closed = 1;
nodes = (
"30 656 OFFCURVE",
"30 623 OFFCURVE",
"30 579 CURVE SMOOTH",
"30 572 OFFCURVE",
"34 568 OFFCURVE",
"41 568 CURVE",
"132 568 OFFCURVE",
"224 568 OFFCURVE",
"315 568 CURVE SMOOTH",
"340 568 OFFCURVE",
"358 563 OFFCURVE",
"370 551 CURVE SMOOTH",
"380 541 OFFCURVE",
"385 527 OFFCURVE",
"385 508 CURVE SMOOTH",
"385 484 LINE SMOOTH",
"385 439.694 OFFCURVE",
"362 417 OFFCURVE",
"316 417 CURVE SMOOTH",
"261 417 OFFCURVE",
"205 417 OFFCURVE",
"150 417 CURVE",
"156 350 LINE",
"174 364 LINE",
"218 364 OFFCURVE",
"270 364 OFFCURVE",
"353 364 CURVE",
"463.456 364 OFFCURVE",
"540 412.632 OFFCURVE",
"540 513 CURVE SMOOTH",
"540 536 LINE SMOOTH",
"540 617 OFFCURVE",
"486 700 OFFCURVE",
"313 700 CURVE SMOOTH",
"219 700 OFFCURVE",
"124 700 OFFCURVE",
"30 700 CURVE"
);
}
);
userData = {
com.typemytype.robofont.Image.Brightness = 0;
com.typemytype.robofont.Image.Contrast = 1;
com.typemytype.robofont.Image.Saturation = 1;
com.typemytype.robofont.Image.Sharpness = 0.4;
};
width = 600;
},
{
associatedMasterId = master01;
layerId = "D2EDB5F8-072E-4EC3-AF36-FD7A0DD4250F";
name = foreground;
paths = (
{
closed = 1;
nodes = (
"457 0 OFFCURVE",
"540 48 OFFCURVE",
"540 169 CURVE SMOOTH",
"540 197 LINE SMOOTH",
"540 284 OFFCURVE",
"493 332 OFFCURVE",
"415 343 CURVE",
"415 383 LINE",
"156 383 LINE",
"150 290 LINE",
"314 290 LINE",
"363 290 OFFCURVE",
"385 270.912 OFFCURVE",
"385 226 CURVE SMOOTH",
"385 194 LINE SMOOTH",
"385 156 OFFCURVE",
"363 132 OFFCURVE",
"314 132 CURVE",
"286 132 OFFCURVE",
"258 132 OFFCURVE",
"230 132 CURVE",
"230 263 OFFCURVE",
"230 368 OFFCURVE",
"230 483 CURVE SMOOTH",
"230 518 OFFCURVE",
"230 555 OFFCURVE",
"230 595 CURVE",
"237 616 LINE",
"75 616 LINE",
"75 400 OFFCURVE",
"75 227 OFFCURVE",
"75 11 CURVE",
"75 4 OFFCURVE",
"79 0 OFFCURVE",
"86 0 CURVE SMOOTH",
"97 0 OFFCURVE",
"249 0 OFFCURVE",
"330 0 CURVE SMOOTH"
);
},
{
closed = 1;
nodes = (
"30 656 OFFCURVE",
"30 623 OFFCURVE",
"30 579 CURVE SMOOTH",
"30 572 OFFCURVE",
"34 568 OFFCURVE",
"41 568 CURVE",
"132 568 OFFCURVE",
"224 568 OFFCURVE",
"315 568 CURVE SMOOTH",
"340 568 OFFCURVE",
"358 563 OFFCURVE",
"370 551 CURVE SMOOTH",
"380 541 OFFCURVE",
"385 527 OFFCURVE",
"385 508 CURVE SMOOTH",
"385 484 LINE SMOOTH",
"385 439.694 OFFCURVE",
"362 417 OFFCURVE",
"316 417 CURVE SMOOTH",
"261 417 OFFCURVE",
"205 417 OFFCURVE",
"150 417 CURVE",
"156 350 LINE",
"174 364 LINE",
"218 364 OFFCURVE",
"270 364 OFFCURVE",
"353 364 CURVE",
"463.456 364 OFFCURVE",
"540 412.632 OFFCURVE",
"540 513 CURVE SMOOTH",
"540 536 LINE SMOOTH",
"540 617 OFFCURVE",
"486 700 OFFCURVE",
"313 700 CURVE SMOOTH",
"219 700 OFFCURVE",
"124 700 OFFCURVE",
"30 700 CURVE"
);
}
);
userData = {
com.typemytype.robofont.Image.Brightness = 0;
com.typemytype.robofont.Image.Contrast = 1;
com.typemytype.robofont.Image.Saturation = 1;
com.typemytype.robofont.Image.Sharpness = 0.4;
};
width = 600;
}
);
leftKerningGroup = E_left;
rightKerningGroup = B_right;
unicode = 0042;
},
{
color = (0,0,0,64);
glyphname = C;
layers = (
{
anchors = (
{
name = bottom;
position = "{320, 0}";
},
{
name = top;
position = "{325, 711}";
}
);
background = {
paths = (
{
closed = 1;
nodes = (
"291 425 LINE SMOOTH",
"230 444 OFFCURVE",
"214 465 OFFCURVE",
"214 493 CURVE SMOOTH",
"214 515 OFFCURVE",
"214 533 OFFCURVE",
"214 567 CURVE",
"136 566 OFFCURVE",
"67 560 OFFCURVE",
"67 475 CURVE SMOOTH",
"67 417 OFFCURVE",
"96 339 OFFCURVE",
"230 298 CURVE SMOOTH",
"324 269 LINE SMOOTH",
"393 248 OFFCURVE",
"399 225 OFFCURVE",
"399 196 CURVE SMOOTH",
"399 172 OFFCURVE",
"399 130 OFFCURVE",
"399 96 CURVE",
"465 96 OFFCURVE",
"546 157 OFFCURVE",
"546 217 CURVE SMOOTH",
"546 296 OFFCURVE",
"511 358 OFFCURVE",
"386 396 CURVE SMOOTH"
);
},
{
closed = 1;
nodes = (
"446 -20 OFFCURVE",
"546 60 OFFCURVE",
"546 175 CURVE SMOOTH",
"546 217 LINE SMOOTH",
"546 235 OFFCURVE",
"484 255 OFFCURVE",
"399 255 CURVE",
"399 225 OFFCURVE",
"399 208 OFFCURVE",
"399 185 CURVE SMOOTH",
"399 157 OFFCURVE",
"369 130 OFFCURVE",
"290 130 CURVE SMOOTH",
"200 130 OFFCURVE",
"140 149 OFFCURVE",
"80 188 CURVE",
"60 188 LINE",
"60 158 OFFCURVE",
"60 101 OFFCURVE",
"60 42 CURVE",
"60 40 OFFCURVE",
"61 36 OFFCURVE",
"63 34 CURVE SMOOTH",
"97 0 OFFCURVE",
"182 -20 OFFCURVE",
"279 -20 CURVE SMOOTH"
);
},
{
closed = 1;
nodes = (
"188 720 OFFCURVE",
"67 634 OFFCURVE",
"67 521 CURVE SMOOTH",
"67 475 LINE SMOOTH",
"67 448 OFFCURVE",
"137 414 OFFCURVE",
"214 414 CURVE",
"214 441 OFFCURVE",
"214 480 OFFCURVE",
"214 506 CURVE SMOOTH",
"214 552 OFFCURVE",
"262 574 OFFCURVE",
"330 574 CURVE SMOOTH",
"372 574 OFFCURVE",
"428 566 OFFCURVE",
"470 548 CURVE",
"518 611 OFFCURVE",
"522 662 OFFCURVE",
"507 677 CURVE SMOOTH",
"485 699 OFFCURVE",
"418 720 OFFCURVE",
"328 720 CURVE SMOOTH"
);
},
{
closed = 1;
nodes = (
"518 649 LINE SMOOTH",
"518 662 OFFCURVE",
"515 669 OFFCURVE",
"507 677 CURVE SMOOTH",
"493 691 OFFCURVE",
"439 702 OFFCURVE",
"360 670 CURVE",
"373 657 OFFCURVE",
"379 638 OFFCURVE",
"379 617 CURVE SMOOTH",
"379 531 LINE SMOOTH",
"379 524 OFFCURVE",
"381 523 OFFCURVE",
"382 522 CURVE SMOOTH",
"383 521 OFFCURVE",
"385 520 OFFCURVE",
"389 520 CURVE SMOOTH",
"432 520 OFFCURVE",
"475 520 OFFCURVE",
"518 520 CURVE"
);
}
);
};
layerId = master01;
paths = (
{
closed = 1;
nodes = (
"439 -20 OFFCURVE",
"518 7 OFFCURVE",
"544 33 CURVE SMOOTH",
"548 37 OFFCURVE",
"550 42 OFFCURVE",
"550 49 CURVE",
"550 94 OFFCURVE",
"550 129 OFFCURVE",
"550 172 CURVE",
"530 172 LINE",
"467 133 OFFCURVE",
"417 120 OFFCURVE",
"345 120 CURVE",
"302 120 OFFCURVE",
"266 127 OFFCURVE",
"243 150 CURVE",
"220 173 OFFCURVE",
"210 211 OFFCURVE",
"210 268 CURVE",
"210 452 LINE",
"210 540 OFFCURVE",
"256 577 OFFCURVE",
"328 577 CURVE",
"369 577 OFFCURVE",
"400 572 OFFCURVE",
"431 553 CURVE",
"403 594 LINE",
"403 532 OFFCURVE",
"403 501 OFFCURVE",
"403 469 CURVE",
"403 462 OFFCURVE",
"407 458 OFFCURVE",
"414 458 CURVE",
"457 458 OFFCURVE",
"500 458 OFFCURVE",
"543 458 CURVE",
"543 516 OFFCURVE",
"543 588 OFFCURVE",
"543 638 CURVE",
"543 646 OFFCURVE",
"542 651 OFFCURVE",
"537 656 CURVE SMOOTH",
"506 687 OFFCURVE",
"433 720 OFFCURVE",
"331 720 CURVE",
"152 720 OFFCURVE",
"50 612 OFFCURVE",
"50 455 CURVE",
"50 256 LINE",
"50 80 OFFCURVE",
"146 -20 OFFCURVE",
"344 -20 CURVE"
);
}
);
width = 600;
},
{
anchors = (
{
name = bottom;
position = "{320, 0}";
},
{
name = top;
position = "{325, 711}";
}
);
associatedMasterId = master01;
layerId = "0CE5F36F-0095-4DD7-AB26-7D3EC221B0E8";
name = foreground;
paths = (
{
closed = 1;
nodes = (
"439 -20 OFFCURVE",
"518 7 OFFCURVE",
"544 33 CURVE SMOOTH",
"548 37 OFFCURVE",
"550 42 OFFCURVE",
"550 49 CURVE",
"550 94 OFFCURVE",
"550 129 OFFCURVE",
"550 172 CURVE",
"530 172 LINE",
"467 133 OFFCURVE",
"417 120 OFFCURVE",
"345 120 CURVE",
"302 120 OFFCURVE",
"266 127 OFFCURVE",
"243 150 CURVE",
"220 173 OFFCURVE",
"210 211 OFFCURVE",
"210 268 CURVE",
"210 452 LINE",
"210 540 OFFCURVE",
"256 577 OFFCURVE",
"328 577 CURVE",
"369 577 OFFCURVE",
"400 572 OFFCURVE",
"431 553 CURVE",
"403 594 LINE",
"403 532 OFFCURVE",
"403 501 OFFCURVE",
"403 469 CURVE",
"403 462 OFFCURVE",
"407 458 OFFCURVE",
"414 458 CURVE",
"457 458 OFFCURVE",
"500 458 OFFCURVE",
"543 458 CURVE",
"543 516 OFFCURVE",
"543 588 OFFCURVE",
"543 638 CURVE",
"543 646 OFFCURVE",
"542 651 OFFCURVE",
"537 656 CURVE SMOOTH",
"506 687 OFFCURVE",
"433 720 OFFCURVE",
"331 720 CURVE",
"152 720 OFFCURVE",
"50 612 OFFCURVE",
"50 455 CURVE",
"50 256 LINE",
"50 80 OFFCURVE",
"146 -20 OFFCURVE",
"344 -20 CURVE"
);
}
);
width = 600;
}
);
leftKerningGroup = O_left;
rightKerningGroup = C_right;
unicode = 0043;
},
{
color = (255,255,0,255);
glyphname = D;
layers = (
{
anchors = (
{
name = bottom;
position = "{323, 0}";
},
{
name = top;
position = "{312, 711}";
}
);
background = {
anchors = (
{
name = top;
position = "{312, 711}";
}
);
paths = (
{
closed = 1;
nodes = (
"235 639 LINE",
"235 645 OFFCURVE",
"230 650 OFFCURVE",
"75 650 CURVE",
"75 61 LINE",
"75 55 OFFCURVE",
"80 50 OFFCURVE",
"235 50 CURVE"
);
},
{
closed = 1;
nodes = (
"30 657 OFFCURVE",
"30 612 OFFCURVE",
"30 569 CURVE",
"30 566 OFFCURVE",
"31 563 OFFCURVE",
"33 561 CURVE SMOOTH",
"35 559 OFFCURVE",
"38 558 OFFCURVE",
"41 558 CURVE",
"55 558 OFFCURVE",
"78 558 OFFCURVE",
"92 558 CURVE SMOOTH",
"155 558 OFFCURVE",
"238 558 OFFCURVE",
"300 558 CURVE SMOOTH",
"365.71 558 OFFCURVE",
"389.419 558 OFFCURVE",
"426 558 CURVE",
"426 641 OFFCURVE",
"426.992 700 OFFCURVE",
"298 700 CURVE SMOOTH",
"220.712 700 OFFCURVE",
"108.292 700 OFFCURVE",
"30 700 CURVE"
);
},
{
closed = 1;
nodes = (
"595 432 LINE SMOOTH",
"595 614 OFFCURVE",
"484 700 OFFCURVE",
"298 700 CURVE SMOOTH",
"287 700 OFFCURVE",
"276.208 690.838 OFFCURVE",
"300 558 CURVE",
"404 558 OFFCURVE",
"445 515 OFFCURVE",
"445 432 CURVE SMOOTH",
"445 281 LINE SMOOTH",
"445 190 OFFCURVE",
"391 142 OFFCURVE",
"310 142 CURVE SMOOTH",
"261.157 142 OFFCURVE",
"116.471 142 OFFCURVE",
"75 142 CURVE",
"75 95 OFFCURVE",
"75 66 OFFCURVE",
"75 11 CURVE SMOOTH",
"75 5 OFFCURVE",
"80 0 OFFCURVE",
"86 0 CURVE SMOOTH",
"314 0 LINE SMOOTH",
"488.414 0 OFFCURVE",
"595 105.624 OFFCURVE",
"595 281 CURVE SMOOTH"
);
}
);
};
layerId = master01;
paths = (
{
closed = 1;
nodes = (
"595 463 LINE SMOOTH",
"595 603 OFFCURVE",
"527 700 OFFCURVE",
"345 700 CURVE SMOOTH",
"262 700 OFFCURVE",
"113 700 OFFCURVE",
"30 700 CURVE",
"30 660 OFFCURVE",
"30 609 OFFCURVE",
"30 569 CURVE SMOOTH",
"30 562 OFFCURVE",
"34 558 OFFCURVE",
"41 558 CURVE SMOOTH",
"123 558 OFFCURVE",
"274 558 OFFCURVE",
"356 558 CURVE",
"387 558 OFFCURVE",
"408 552 OFFCURVE",
"422 538 CURVE SMOOTH",
"438 522 OFFCURVE",
"445 495 OFFCURVE",
"445 453 CURVE SMOOTH",
"445 247 LINE SMOOTH",
"445 183 OFFCURVE",
"423 142 OFFCURVE",
"356 142 CURVE",
"333 142 OFFCURVE",
"257 142 OFFCURVE",
"235 142 CURVE",
"235 262 OFFCURVE",
"235 361 OFFCURVE",
"235 481 CURVE SMOOTH",
"235 516 OFFCURVE",
"235 562 OFFCURVE",
"235 597 CURVE SMOOTH",
"245 622 LINE",
"75 622 LINE",
"75 419 OFFCURVE",
"75 214 OFFCURVE",
"75 11 CURVE SMOOTH",
"75 4 OFFCURVE",
"79 0 OFFCURVE",
"86 0 CURVE SMOOTH",
"104 0 OFFCURVE",
"286 0 OFFCURVE",
"359 0 CURVE SMOOTH",
"506 0 OFFCURVE",
"595 90 OFFCURVE",
"595 238 CURVE SMOOTH"
);
}
);
userData = {
com.arrowtype.glyphMarkStatus = check;
com.typemytype.robofont.Image.Brightness = 0;
com.typemytype.robofont.Image.Contrast = 1;
com.typemytype.robofont.Image.Saturation = 1;
com.typemytype.robofont.Image.Sharpness = 0.4;
};
width = 650;
},
{
anchors = (
{
name = bottom;
position = "{323, 0}";
},
{
name = top;
position = "{312, 711}";
}
);
associatedMasterId = master01;
layerId = "0B1E4063-3DF3-47D4-8A1D-DF5B4338376C";
name = foreground;
paths = (
{
closed = 1;
nodes = (
"595 463 LINE SMOOTH",
"595 603 OFFCURVE",
"527 700 OFFCURVE",
"345 700 CURVE SMOOTH",
"262 700 OFFCURVE",
"113 700 OFFCURVE",
"30 700 CURVE",
"30 660 OFFCURVE",
"30 609 OFFCURVE",
"30 569 CURVE SMOOTH",
"30 562 OFFCURVE",
"34 558 OFFCURVE",
"41 558 CURVE SMOOTH",
"123 558 OFFCURVE",
"274 558 OFFCURVE",
"356 558 CURVE",
"387 558 OFFCURVE",
"408 552 OFFCURVE",
"422 538 CURVE SMOOTH",
"438 522 OFFCURVE",
"445 495 OFFCURVE",
"445 453 CURVE SMOOTH",
"445 247 LINE SMOOTH",
"445 183 OFFCURVE",
"423 142 OFFCURVE",
"356 142 CURVE",
"333 142 OFFCURVE",
"257 142 OFFCURVE",
"235 142 CURVE",
"235 262 OFFCURVE",
"235 361 OFFCURVE",
"235 481 CURVE SMOOTH",
"235 516 OFFCURVE",
"235 562 OFFCURVE",
"235 597 CURVE SMOOTH",
"245 622 LINE",
"75 622 LINE",
"75 419 OFFCURVE",
"75 214 OFFCURVE",
"75 11 CURVE SMOOTH",
"75 4 OFFCURVE",
"79 0 OFFCURVE",
"86 0 CURVE SMOOTH",
"104 0 OFFCURVE",
"286 0 OFFCURVE",
"359 0 CURVE SMOOTH",
"506 0 OFFCURVE",
"595 90 OFFCURVE",
"595 238 CURVE SMOOTH"
);
}
);
userData = {
com.arrowtype.glyphMarkStatus = check;
com.typemytype.robofont.Image.Brightness = 0;
com.typemytype.robofont.Image.Contrast = 1;
com.typemytype.robofont.Image.Saturation = 1;
com.typemytype.robofont.Image.Sharpness = 0.4;
};
width = 650;
},
{
associatedMasterId = master01;
layerId = "3A917760-6104-4E6E-ADD7-FA21C5ABCD5E";
name = "45degrees";
paths = (
{
closed = 1;
nodes = (
"235 639 LINE",
"235 645 OFFCURVE",
"230 650 OFFCURVE",
"75 650 CURVE",
"75 61 LINE",
"75 55 OFFCURVE",
"80 50 OFFCURVE",
"235 50 CURVE"
);
},
{
closed = 1;
nodes = (
"30 657 OFFCURVE",
"30 612 OFFCURVE",
"30 569 CURVE",
"30 566 OFFCURVE",
"31 563 OFFCURVE",
"33 561 CURVE SMOOTH",
"35 559 OFFCURVE",
"38 558 OFFCURVE",
"41 558 CURVE",
"55 558 OFFCURVE",
"78 558 OFFCURVE",
"92 558 CURVE SMOOTH",
"155 558 OFFCURVE",
"238 558 OFFCURVE",
"300 558 CURVE SMOOTH",
"420 558 OFFCURVE",
"444 522 OFFCURVE",
"497 479 CURVE",
"542 548 OFFCURVE",
"557 593 OFFCURVE",
"523 627 CURVE SMOOTH",
"474 676 OFFCURVE",
"410 700 OFFCURVE",
"297 700 CURVE SMOOTH",
"220 700 OFFCURVE",
"108 700 OFFCURVE",
"30 700 CURVE"
);
},
{
closed = 1;
nodes = (
"595 450 LINE SMOOTH",
"595 518 OFFCURVE",
"578 572 OFFCURVE",
"523 627 CURVE SMOOTH",
"483 667 OFFCURVE",
"441 636 OFFCURVE",
"375 581 CURVE",
"427 539 OFFCURVE",
"445 516 OFFCURVE",
"445 432 CURVE SMOOTH",
"445 251 LINE SMOOTH",
"445 185 OFFCURVE",
"399 142 OFFCURVE",
"330 142 CURVE SMOOTH",
"277 142 OFFCURVE",
"120 142 OFFCURVE",
"75 142 CURVE",
"75 95 OFFCURVE",
"75 66 OFFCURVE",
"75 11 CURVE SMOOTH",
"75 5 OFFCURVE",
"80 0 OFFCURVE",
"86 0 CURVE SMOOTH",
"334 0 LINE SMOOTH",
"496 0 OFFCURVE",
"595 99 OFFCURVE",
"595 263 CURVE SMOOTH"
);
}
);
width = 600;
}
);
leftKerningGroup = E_left;
rightKerningGroup = O_right;
unicode = 0044;
},
{
color = (255,255,0,255);
glyphname = E;
layers = (
{
anchors = (
{
name = bottom;
position = "{260, -1}";
},
{
name = hook;
position = "{270, 730}";
},
{
name = ogonek;
position = "{501, 0}";
},
{
name = top;
position = "{260, 711}";
}
);
background = {
anchors = (
{
name = bottom;
position = "{260, -1}";
},
{
name = ogonek;
position = "{501, 0}";
},
{
name = top;
position = "{260, 711}";
}
);
paths = (
{
closed = 1;
nodes = (
"30 656.647 OFFCURVE",
"30 612.353 OFFCURVE",
"30 569 CURVE SMOOTH",
"30 566 OFFCURVE",
"31 563 OFFCURVE",
"33 561 CURVE SMOOTH",
"35 559 OFFCURVE",
"38 558 OFFCURVE",
"41 558 CURVE SMOOTH",
"500 558 LINE",
"500 601 OFFCURVE",
"500 646 OFFCURVE",
"500 689 CURVE SMOOTH",
"500 692 OFFCURVE",
"499 695 OFFCURVE",
"497 697 CURVE SMOOTH",
"495 699 OFFCURVE",
"492 700 OFFCURVE",
"489 700 CURVE SMOOTH",
"30 700 LINE"
);
},
{
closed = 1;
nodes = (
"235 639 LINE",
"235 645 OFFCURVE",
"230 650 OFFCURVE",
"75 650 CURVE",
"75 111 LINE SMOOTH",
"75 105 OFFCURVE",
"80 100 OFFCURVE",
"235 100 CURVE"
);
},
{
closed = 1;
nodes = (
"75 11 LINE SMOOTH",
"75 5 OFFCURVE",
"80 0 OFFCURVE",
"86 0 CURVE SMOOTH",
"500 0 LINE",
"500 43 OFFCURVE",
"500 88 OFFCURVE",
"500 131 CURVE SMOOTH",
"500 137 OFFCURVE",
"495 142 OFFCURVE",
"489 142 CURVE SMOOTH",
"75 142 LINE"
);
},
{
closed = 1;
nodes = (
"145 290.871 OFFCURVE",
"150 282 OFFCURVE",
"156 282 CURVE SMOOTH",
"440 282 LINE",
"440 320 OFFCURVE",
"440 363 OFFCURVE",
"440 409 CURVE SMOOTH",
"440 412 OFFCURVE",
"439 415 OFFCURVE",
"437 417 CURVE SMOOTH",
"435 419 OFFCURVE",
"432 420 OFFCURVE",
"429 420 CURVE SMOOTH",
"145 420 LINE"
);
}
);
};
layerId = master01;
paths = (
{
closed = 1;
nodes = (
"30 654 OFFCURVE",
"30 622 OFFCURVE",
"30 576 CURVE SMOOTH",
"30 570 OFFCURVE",
"35 565 OFFCURVE",
"41 565 CURVE SMOOTH",
"500 565 LINE",
"500 611 OFFCURVE",
"500 643 OFFCURVE",
"500 689 CURVE SMOOTH",
"500 695 OFFCURVE",
"495 700 OFFCURVE",
"489 700 CURVE SMOOTH",
"30 700 LINE"
);
},
{
closed = 1;
nodes = (
"176 286 LINE",
"440 286 LINE",
"440 325 OFFCURVE",
"440 358 OFFCURVE",
"440 405 CURVE SMOOTH",
"440 411 OFFCURVE",
"435 416 OFFCURVE",
"429 416 CURVE",
"176 416 LINE"
);
},
{
closed = 1;
nodes = (
"500 0 LINE",
"500 44 OFFCURVE",
"500 80 OFFCURVE",
"500 124 CURVE",
"500 130 OFFCURVE",
"495 135 OFFCURVE",
"489 135 CURVE",
"235 135 LINE",
"235 253 OFFCURVE",
"235 377 OFFCURVE",
"235 495 CURVE SMOOTH",
"235 527 OFFCURVE",
"235 560 OFFCURVE",
"235 592 CURVE",
"243 616 LINE",
"75 616 LINE",
"75 415 OFFCURVE",
"75 77 OFFCURVE",
"75 11 CURVE",
"75 5 OFFCURVE",
"80 0 OFFCURVE",
"86 0 CURVE SMOOTH"
);
}
);
userData = {
com.arrowtype.glyphMarkStatus = check;
};
width = 550;
},
{
anchors = (
{
name = bottom;
position = "{260, -1}";
},
{
name = hook;
position = "{270, 730}";
},
{
name = ogonek;
position = "{501, 0}";
},
{
name = top;
position = "{260, 711}";
}
);
associatedMasterId = master01;
layerId = "86C10995-62BD-4FE0-9542-B08C10C44B5B";
name = foreground;
paths = (
{
closed = 1;
nodes = (
"30 654 OFFCURVE",
"30 622 OFFCURVE",
"30 576 CURVE SMOOTH",
"30 570 OFFCURVE",
"35 565 OFFCURVE",
"41 565 CURVE SMOOTH",
"500 565 LINE",
"500 611 OFFCURVE",
"500 643 OFFCURVE",
"500 689 CURVE SMOOTH",
"500 695 OFFCURVE",
"495 700 OFFCURVE",
"489 700 CURVE SMOOTH",
"30 700 LINE"
);
},
{
closed = 1;
nodes = (
"176 286 LINE",
"440 286 LINE",
"440 325 OFFCURVE",
"440 358 OFFCURVE",
"440 405 CURVE SMOOTH",
"440 411 OFFCURVE",
"435 416 OFFCURVE",
"429 416 CURVE",
"176 416 LINE"
);
},
{
closed = 1;
nodes = (
"500 0 LINE",
"500 44 OFFCURVE",
"500 80 OFFCURVE",
"500 124 CURVE",
"500 130 OFFCURVE",
"495 135 OFFCURVE",
"489 135 CURVE",
"235 135 LINE",
"235 253 OFFCURVE",
"235 377 OFFCURVE",
"235 495 CURVE SMOOTH",
"235 527 OFFCURVE",
"235 560 OFFCURVE",
"235 592 CURVE",
"243 616 LINE",
"75 616 LINE",
"75 415 OFFCURVE",
"75 77 OFFCURVE",
"75 11 CURVE",
"75 5 OFFCURVE",
"80 0 OFFCURVE",
"86 0 CURVE SMOOTH"
);
}
);
userData = {
com.arrowtype.glyphMarkStatus = check;
};
width = 550;
}
);
leftKerningGroup = E_left;
rightKerningGroup = E_right;
unicode = 0045;
},
{
color = (255,255,0,255);
glyphname = F;
layers = (
{
background = {
paths = (
{
closed = 1;
nodes = (
"255 28 OFFCURVE",
"255 62 OFFCURVE",
"255 98 CURVE SMOOTH",
"255 632 LINE SMOOTH",
"255 643 OFFCURVE",
"242 649 OFFCURVE",
"95 649 CURVE",
"95 11 LINE SMOOTH",
"95 5 OFFCURVE",
"100 0 OFFCURVE",
"106 0 CURVE SMOOTH",
"156 0 OFFCURVE",
"205 0 OFFCURVE",
"255 0 CURVE"
);
},
{
closed = 1;
nodes = (
"50 656.647 OFFCURVE",
"50 612.353 OFFCURVE",
"50 569 CURVE SMOOTH",
"50 566 OFFCURVE",
"51 563 OFFCURVE",
"53 561 CURVE SMOOTH",
"55 559 OFFCURVE",
"58 558 OFFCURVE",
"61 558 CURVE",
"490 558 LINE",
"490 601.353 OFFCURVE",
"490 645.647 OFFCURVE",
"490 689 CURVE",
"490 692 OFFCURVE",
"489 695 OFFCURVE",
"487 697 CURVE SMOOTH",
"485 699 OFFCURVE",
"482 700 OFFCURVE",
"479 700 CURVE",
"50 700 LINE"
);
},
{
closed = 1;
nodes = (
"165 272.613 OFFCURVE",
"167 248 OFFCURVE",
"176 248 CURVE SMOOTH",
"460 248 LINE",
"460 291 OFFCURVE",
"460 336 OFFCURVE",
"460 379 CURVE",
"460 382 OFFCURVE",
"459 385 OFFCURVE",
"457 387 CURVE SMOOTH",
"455 389 OFFCURVE",
"452 390 OFFCURVE",
"449 390 CURVE",
"165 390 LINE"
);
}
);
};
layerId = master01;
paths = (
{
closed = 1;
nodes = (
"255 28 OFFCURVE",
"255 62 OFFCURVE",
"255 98 CURVE",
"255 237 OFFCURVE",
"255 348 OFFCURVE",
"255 475 CURVE SMOOTH",
"255 510 OFFCURVE",
"255 547 OFFCURVE",
"255 586 CURVE",
"267 616 LINE",
"95 616 LINE",
"95 404 OFFCURVE",
"95 223 OFFCURVE",
"95 11 CURVE",
"95 4 OFFCURVE",
"99 0 OFFCURVE",
"106 0 CURVE SMOOTH",
"156 0 OFFCURVE",
"205 0 OFFCURVE",
"255 0 CURVE"
);
},
{
closed = 1;
nodes = (
"50 654 OFFCURVE",
"50 622 OFFCURVE",
"50 576 CURVE SMOOTH",
"50 569 OFFCURVE",
"54 565 OFFCURVE",
"61 565 CURVE",
"490 565 LINE",
"490 611 OFFCURVE",
"490 643 OFFCURVE",
"490 689 CURVE",
"490 696 OFFCURVE",
"486 700 OFFCURVE",
"479 700 CURVE",
"50 700 LINE"
);
},
{
closed = 1;
nodes = (
"186 255 LINE",
"460 255 LINE",
"460 294 OFFCURVE",
"460 332 OFFCURVE",
"460 379 CURVE SMOOTH",
"460 386 OFFCURVE",
"456 390 OFFCURVE",
"449 390 CURVE",
"186 390 LINE"
);
}
);
userData = {
com.arrowtype.glyphMarkStatus = check;
};
width = 550;
},
{
associatedMasterId = master01;
layerId = "579260D5-B698-4028-8EF2-9D70068E8E1A";
name = foreground;
paths = (
{
closed = 1;
nodes = (
"255 28 OFFCURVE",
"255 62 OFFCURVE",
"255 98 CURVE",
"255 237 OFFCURVE",
"255 348 OFFCURVE",
"255 475 CURVE SMOOTH",
"255 510 OFFCURVE",
"255 547 OFFCURVE",
"255 586 CURVE",
"267 616 LINE",
"95 616 LINE",
"95 404 OFFCURVE",
"95 223 OFFCURVE",
"95 11 CURVE",
"95 4 OFFCURVE",
"99 0 OFFCURVE",
"106 0 CURVE SMOOTH",
"156 0 OFFCURVE",
"205 0 OFFCURVE",
"255 0 CURVE"
);
},
{
closed = 1;
nodes = (
"50 654 OFFCURVE",
"50 622 OFFCURVE",
"50 576 CURVE SMOOTH",
"50 569 OFFCURVE",
"54 565 OFFCURVE",
"61 565 CURVE",
"490 565 LINE",
"490 611 OFFCURVE",
"490 643 OFFCURVE",
"490 689 CURVE",
"490 696 OFFCURVE",
"486 700 OFFCURVE",
"479 700 CURVE",
"50 700 LINE"
);
},
{
closed = 1;
nodes = (
"186 255 LINE",
"460 255 LINE",
"460 294 OFFCURVE",
"460 332 OFFCURVE",
"460 379 CURVE SMOOTH",
"460 386 OFFCURVE",
"456 390 OFFCURVE",
"449 390 CURVE",
"186 390 LINE"
);
}
);
userData = {
com.arrowtype.glyphMarkStatus = check;
};
width = 550;
}
);
leftKerningGroup = E_left;
unicode = 0046;
},
{
color = (255,255,0,255);
glyphname = G;
layers = (
{
anchors = (
{
name = bottom;
position = "{330, -1}";
},
{
name = top;
position = "{330, 711}";
}
);
background = {
anchors = (
{
name = bottom;
position = "{330, -1}";
},
{
name = top;
position = "{330, 711}";
}
);
paths = (
{
closed = 1;
nodes = (
"411 581 OFFCURVE",
"446 571 OFFCURVE",
"490 537 CURVE",
"567 620 OFFCURVE",
"571 631 OFFCURVE",
"571 639 CURVE SMOOTH",
"571 650 OFFCURVE",
"570 653 OFFCURVE",
"565 658 CURVE SMOOTH",
"537 686 OFFCURVE",
"463 720 OFFCURVE",
"340 720 CURVE SMOOTH",
"159 720 OFFCURVE",
"50 624 OFFCURVE",
"50 444 CURVE SMOOTH",
"50 255 LINE SMOOTH",
"50 178 OFFCURVE",
"113 101 OFFCURVE",
"200 102 CURVE",
"200 150 OFFCURVE",
"200 187 OFFCURVE",
"200 255 CURVE SMOOTH",
"200 453 LINE SMOOTH",
"200 535 OFFCURVE",
"249 581 OFFCURVE",
"334 581 CURVE SMOOTH"
);
},
{
closed = 1;
nodes = (
"242 120 OFFCURVE",
"200 154 OFFCURVE",
"200 255 CURVE",
"58 280 OFFCURVE",
"50 273 OFFCURVE",
"50 255 CURVE",
"50 83 OFFCURVE",
"145 -20 OFFCURVE",
"325 -20 CURVE SMOOTH",
"505 -20 OFFCURVE",
"575 61 OFFCURVE",
"575 76 CURVE SMOOTH",
"575 278 LINE SMOOTH",
"575 298 OFFCURVE",
"475 306 OFFCURVE",
"435 306 CURVE",
"435 256 OFFCURVE",
"435 198 OFFCURVE",
"435 148 CURVE SMOOTH",
"435 138 OFFCURVE",
"399 120 OFFCURVE",
"325 120 CURVE SMOOTH"
);
},
{
closed = 1;
nodes = (
"335 350 OFFCURVE",
"335 311 OFFCURVE",
"335 271 CURVE SMOOTH",
"335 268 OFFCURVE",
"336 265 OFFCURVE",
"338 263 CURVE SMOOTH",
"340 261 OFFCURVE",
"343 260 OFFCURVE",
"346 260 CURVE SMOOTH",
"610 260 LINE",
"610 379 LINE SMOOTH",
"610 385 OFFCURVE",
"605 390 OFFCURVE",
"599 390 CURVE SMOOTH",
"335 390 LINE"
);
},
{
closed = 1;
nodes = (
"571 639 LINE SMOOTH",
"571 651 OFFCURVE",
"560 655 OFFCURVE",
"431 655 CURVE",
"431 640 OFFCURVE",
"431 617 OFFCURVE",
"431 603 CURVE SMOOTH",
"431 506 LINE SMOOTH",
"431 499 OFFCURVE",
"435 495 OFFCURVE",
"442 495 CURVE",
"485 495 OFFCURVE",
"528 495 OFFCURVE",
"571 495 CURVE"
);
}
);
};
layerId = master01;
paths = (
{
closed = 1;
nodes = (
"335 350 OFFCURVE",
"335 311 OFFCURVE",
"335 271 CURVE SMOOTH",
"335 264 OFFCURVE",
"339 260 OFFCURVE",
"346 260 CURVE SMOOTH",
"610 260 LINE",
"610 379 LINE SMOOTH",
"610 385 OFFCURVE",
"605 390 OFFCURVE",
"599 390 CURVE SMOOTH",
"335 390 LINE"
);
},
{
closed = 1;
nodes = (
"148 720 OFFCURVE",
"50 612 OFFCURVE",
"50 449 CURVE",
"50 254 LINE SMOOTH",
"50 85 OFFCURVE",
"134 -20 OFFCURVE",
"346 -20 CURVE SMOOTH",
"435 -20 OFFCURVE",
"531 15 OFFCURVE",
"569 63 CURVE SMOOTH",
"574 70 OFFCURVE",
"575 73 OFFCURVE",
"575 83 CURVE",
"575 154 OFFCURVE",
"575 211 OFFCURVE",
"575 279 CURVE",
"580 305 LINE",
"435 305 LINE",
"435 250 OFFCURVE",
"435 206 OFFCURVE",
"435 145 CURVE",
"416 128 OFFCURVE",
"376 120 OFFCURVE",
"332 120 CURVE",
"280 120 OFFCURVE",
"251 130 OFFCURVE",
"232 149 CURVE SMOOTH",
"213 168 OFFCURVE",
"200 200 OFFCURVE",
"200 246 CURVE SMOOTH",
"200 444 LINE SMOOTH",
"200 535 OFFCURVE",
"248 577 OFFCURVE",
"337 577 CURVE",
"388 577 OFFCURVE",
"426 570 OFFCURVE",
"459 555 CURVE",
"431 596 LINE",
"431 554 OFFCURVE",
"431 528 OFFCURVE",
"431 506 CURVE",
"431 499 OFFCURVE",
"435 495 OFFCURVE",
"442 495 CURVE",
"485 495 OFFCURVE",
"528 495 OFFCURVE",
"571 495 CURVE",
"571 540 OFFCURVE",
"571 601 OFFCURVE",
"571 640 CURVE",
"571 648 OFFCURVE",
"570 653 OFFCURVE",
"565 658 CURVE SMOOTH",
"535 688 OFFCURVE",
"459 720 OFFCURVE",
"345 720 CURVE"
);
}
);
userData = {
com.arrowtype.glyphMarkStatus = check;
com.typemytype.robofont.Image.Brightness = 0;
com.typemytype.robofont.Image.Contrast = 1;
com.typemytype.robofont.Image.Saturation = 1;
com.typemytype.robofont.Image.Sharpness = 0.4;
};
width = 650;
},
{
anchors = (
{
name = bottom;
position = "{330, -1}";
},
{
name = top;
position = "{330, 711}";
}
);
associatedMasterId = master01;
layerId = "25E06988-F0E8-460B-8B88-EAF509EDE829";
name = foreground;
paths = (
{
closed = 1;
nodes = (
"335 350 OFFCURVE",
"335 311 OFFCURVE",
"335 271 CURVE SMOOTH",
"335 264 OFFCURVE",
"339 260 OFFCURVE",
"346 260 CURVE SMOOTH",
"610 260 LINE",
"610 379 LINE SMOOTH",
"610 385 OFFCURVE",
"605 390 OFFCURVE",
"599 390 CURVE SMOOTH",
"335 390 LINE"
);
},
{
closed = 1;
nodes = (
"148 720 OFFCURVE",
"50 612 OFFCURVE",
"50 449 CURVE",
"50 254 LINE SMOOTH",
"50 85 OFFCURVE",
"134 -20 OFFCURVE",
"346 -20 CURVE SMOOTH",
"435 -20 OFFCURVE",
"531 15 OFFCURVE",
"569 63 CURVE SMOOTH",
"574 70 OFFCURVE",
"575 73 OFFCURVE",
"575 83 CURVE",
"575 154 OFFCURVE",
"575 211 OFFCURVE",
"575 279 CURVE",
"580 305 LINE",
"435 305 LINE",
"435 250 OFFCURVE",
"435 206 OFFCURVE",
"435 145 CURVE",
"416 128 OFFCURVE",
"376 120 OFFCURVE",
"332 120 CURVE",
"280 120 OFFCURVE",
"251 130 OFFCURVE",
"232 149 CURVE SMOOTH",
"213 168 OFFCURVE",
"200 200 OFFCURVE",
"200 246 CURVE SMOOTH",
"200 444 LINE SMOOTH",
"200 535 OFFCURVE",
"248 577 OFFCURVE",
"337 577 CURVE",
"388 577 OFFCURVE",
"426 570 OFFCURVE",
"459 555 CURVE",
"431 596 LINE",
"431 554 OFFCURVE",
"431 528 OFFCURVE",
"431 506 CURVE",
"431 499 OFFCURVE",
"435 495 OFFCURVE",
"442 495 CURVE",
"485 495 OFFCURVE",
"528 495 OFFCURVE",
"571 495 CURVE",
"571 540 OFFCURVE",
"571 601 OFFCURVE",
"571 640 CURVE",
"571 648 OFFCURVE",
"570 653 OFFCURVE",
"565 658 CURVE SMOOTH",
"535 688 OFFCURVE",
"459 720 OFFCURVE",
"345 720 CURVE"
);
}
);
userData = {
com.arrowtype.glyphMarkStatus = check;
com.typemytype.robofont.Image.Brightness = 0;
com.typemytype.robofont.Image.Contrast = 1;
com.typemytype.robofont.Image.Saturation = 1;
com.typemytype.robofont.Image.Sharpness = 0.4;
};
width = 650;
},
{
associatedMasterId = master01;
layerId = "DAE5453F-0249-42AB-9AF3-DEDBFAF6CCE2";
name = "45degrees";
paths = (
{
closed = 1;
nodes = (
"411 581 OFFCURVE",
"446 571 OFFCURVE",
"490 537 CURVE",
"565 636 OFFCURVE",
"570 653 OFFCURVE",
"565 658 CURVE SMOOTH",
"530 693 OFFCURVE",
"454 720 OFFCURVE",
"340 720 CURVE SMOOTH",
"159 720 OFFCURVE",
"50 624 OFFCURVE",
"50 444 CURVE SMOOTH",
"50 255 LINE SMOOTH",
"50 178 OFFCURVE",
"113 101 OFFCURVE",
"200 102 CURVE",
"200 150 OFFCURVE",
"200 187 OFFCURVE",
"200 255 CURVE SMOOTH",
"200 453 LINE SMOOTH",
"200 535 OFFCURVE",
"249 581 OFFCURVE",
"334 581 CURVE SMOOTH"
);
},
{
closed = 1;
nodes = (
"242 120 OFFCURVE",
"200 154 OFFCURVE",
"200 255 CURVE",
"58 280 OFFCURVE",
"50 273 OFFCURVE",
"50 255 CURVE",
"50 83 OFFCURVE",
"145 -20 OFFCURVE",
"325 -20 CURVE SMOOTH",
"505 -20 OFFCURVE",
"575 61 OFFCURVE",
"575 76 CURVE SMOOTH",
"575 278 LINE SMOOTH",
"575 298 OFFCURVE",
"475 306 OFFCURVE",
"435 306 CURVE",
"435 256 OFFCURVE",
"435 198 OFFCURVE",
"435 148 CURVE SMOOTH",
"435 138 OFFCURVE",
"399 120 OFFCURVE",
"325 120 CURVE SMOOTH"
);
},
{
closed = 1;
nodes = (
"335 350 OFFCURVE",
"335 311 OFFCURVE",
"335 271 CURVE SMOOTH",
"335 268 OFFCURVE",
"336 265 OFFCURVE",
"338 263 CURVE SMOOTH",
"340 261 OFFCURVE",
"343 260 OFFCURVE",
"346 260 CURVE SMOOTH",
"610 260 LINE",
"610 379 LINE SMOOTH",
"610 385 OFFCURVE",
"605 390 OFFCURVE",
"599 390 CURVE SMOOTH",
"335 390 LINE"
);
},
{
closed = 1;
nodes = (
"571 639 LINE SMOOTH",
"571 650 OFFCURVE",
"570 653 OFFCURVE",
"565 658 CURVE SMOOTH",
"558 665 OFFCURVE",
"552 674 OFFCURVE",
"431 673 CURVE",
"431 653 OFFCURVE",
"431 622 OFFCURVE",
"431 603 CURVE SMOOTH",
"431 506 LINE SMOOTH",
"431 499 OFFCURVE",
"435 495 OFFCURVE",
"442 495 CURVE",
"485 495 OFFCURVE",
"528 495 OFFCURVE",
"571 495 CURVE"
);
}
);
width = 600;
}
);
leftKerningGroup = O_left;
rightKerningGroup = G_right;
unicode = 0047;
},
{
color = (255,255,0,255);
glyphname = H;
layers = (
{
anchors = (
{
name = bottom;
position = "{324, 0}";
},
{
name = top;
position = "{325, 711}";
}
);
background = {
anchors = (
{
name = top;
position = "{325, 711}";
}
);
paths = (
{
closed = 1;
nodes = (
"70 664 OFFCURVE",
"70 629 OFFCURVE",
"70 593 CURVE SMOOTH",
"70 11 LINE SMOOTH",
"70 5 OFFCURVE",
"75 0 OFFCURVE",
"81 0 CURVE SMOOTH",
"131 0 OFFCURVE",
"180 0 OFFCURVE",
"230 0 CURVE",
"230 689 LINE SMOOTH",
"230 692 OFFCURVE",
"229 695 OFFCURVE",
"227 697 CURVE SMOOTH",
"225 699 OFFCURVE",
"222 700 OFFCURVE",
"219 700 CURVE SMOOTH",
"169 700 OFFCURVE",
"120 700 OFFCURVE",
"70 700 CURVE"
);
},
{
closed = 1;
nodes = (
"580 32 OFFCURVE",
"580 70 OFFCURVE",
"580 110 CURVE SMOOTH",
"580 689 LINE SMOOTH",
"580 695 OFFCURVE",
"575 700 OFFCURVE",
"569 700 CURVE SMOOTH",
"519 700 OFFCURVE",
"470 700 OFFCURVE",
"420 700 CURVE",
"420 11 LINE SMOOTH",
"420 8 OFFCURVE",
"421 5 OFFCURVE",
"423 3 CURVE SMOOTH",
"425 1 OFFCURVE",
"428 0 OFFCURVE",
"431 0 CURVE SMOOTH",
"481 0 OFFCURVE",
"530 0 OFFCURVE",
"580 0 CURVE"
);
},
{
closed = 1;
nodes = (
"135 289 LINE SMOOTH",
"135 286 OFFCURVE",
"136 283 OFFCURVE",
"138 281 CURVE SMOOTH",
"140 279 OFFCURVE",
"143 278 OFFCURVE",
"146 278 CURVE",
"510 278 LINE",
"510 413.373 OFFCURVE",
"505 420 OFFCURVE",
"499 420 CURVE",
"135 420 LINE"
);
}
);
};
layerId = master01;
paths = (
{
closed = 1;
nodes = (
"70 664 OFFCURVE",
"70 629 OFFCURVE",
"70 593 CURVE SMOOTH",
"70 399 OFFCURVE",
"70 205 OFFCURVE",
"70 11 CURVE SMOOTH",
"70 5 OFFCURVE",
"75 0 OFFCURVE",
"81 0 CURVE SMOOTH",
"131 0 OFFCURVE",
"180 0 OFFCURVE",
"230 0 CURVE",
"230 229 OFFCURVE",
"230 460 OFFCURVE",
"230 689 CURVE SMOOTH",
"230 695 OFFCURVE",
"225 700 OFFCURVE",
"219 700 CURVE SMOOTH",
"169 700 OFFCURVE",
"120 700 OFFCURVE",
"70 700 CURVE"
);
},
{
closed = 1;
nodes = (
"136 292 LINE SMOOTH",
"136 286 OFFCURVE",
"141 281 OFFCURVE",
"147 281 CURVE",
"493 281 LINE",
"460 425 LINE",
"423 416 LINE",
"401 416 OFFCURVE",
"379 416 OFFCURVE",
"357 416 CURVE",
"136 416 LINE"
);
},
{
closed = 1;
nodes = (
"580 32 OFFCURVE",
"580 70 OFFCURVE",
"580 110 CURVE",
"580 303 OFFCURVE",
"580 496 OFFCURVE",
"580 689 CURVE",
"580 695 OFFCURVE",
"575 700 OFFCURVE",
"569 700 CURVE SMOOTH",
"519 700 OFFCURVE",
"470 700 OFFCURVE",
"420 700 CURVE",
"420 471 OFFCURVE",
"420 240 OFFCURVE",
"420 11 CURVE SMOOTH",
"420 5 OFFCURVE",
"425 0 OFFCURVE",
"431 0 CURVE SMOOTH",
"481 0 OFFCURVE",
"530 0 OFFCURVE",
"580 0 CURVE"
);
}
);
userData = {
com.arrowtype.glyphMarkStatus = check;
};
width = 650;
},
{
anchors = (
{
name = bottom;
position = "{324, 0}";
},
{
name = top;
position = "{325, 711}";
}
);
associatedMasterId = master01;
layerId = "B8E6CBDB-F8EE-4BE0-A57B-AEB42AC6B5BE";
name = foreground;
paths = (
{
closed = 1;
nodes = (
"70 664 OFFCURVE",
"70 629 OFFCURVE",
"70 593 CURVE SMOOTH",
"70 399 OFFCURVE",
"70 205 OFFCURVE",
"70 11 CURVE SMOOTH",
"70 5 OFFCURVE",
"75 0 OFFCURVE",
"81 0 CURVE SMOOTH",
"131 0 OFFCURVE",
"180 0 OFFCURVE",
"230 0 CURVE",
"230 229 OFFCURVE",
"230 460 OFFCURVE",
"230 689 CURVE SMOOTH",
"230 695 OFFCURVE",
"225 700 OFFCURVE",
"219 700 CURVE SMOOTH",
"169 700 OFFCURVE",
"120 700 OFFCURVE",
"70 700 CURVE"
);
},
{
closed = 1;
nodes = (
"136 292 LINE SMOOTH",
"136 286 OFFCURVE",
"141 281 OFFCURVE",
"147 281 CURVE",
"493 281 LINE",
"460 425 LINE",
"423 416 LINE",
"401 416 OFFCURVE",
"379 416 OFFCURVE",
"357 416 CURVE",
"136 416 LINE"
);
},
{
closed = 1;
nodes = (
"580 32 OFFCURVE",
"580 70 OFFCURVE",
"580 110 CURVE",
"580 303 OFFCURVE",
"580 496 OFFCURVE",
"580 689 CURVE",
"580 695 OFFCURVE",
"575 700 OFFCURVE",
"569 700 CURVE SMOOTH",
"519 700 OFFCURVE",
"470 700 OFFCURVE",
"420 700 CURVE",
"420 471 OFFCURVE",
"420 240 OFFCURVE",
"420 11 CURVE SMOOTH",
"420 5 OFFCURVE",
"425 0 OFFCURVE",
"431 0 CURVE SMOOTH",
"481 0 OFFCURVE",
"530 0 OFFCURVE",
"580 0 CURVE"
);
}
);
userData = {
com.arrowtype.glyphMarkStatus = check;
};
width = 650;
}
);
leftKerningGroup = H_left;
rightKerningGroup = H_right;
unicode = 0048;
},
{
color = (255,255,0,255);
glyphname = I;
layers = (
{
anchors = (
{
name = bottom;
position = "{250, -1}";
},
{
name = hook;
position = "{250, 730}";
},
{
name = ogonek;
position = "{431, 0}";
},
{
name = top;
position = "{250, 711}";
}
);
background = {
anchors = (
{
name = bottom;
position = "{250, -1}";
},
{
name = ogonek;
position = "{431, 0}";
},
{
name = top;
position = "{250, 711}";
}
);
guideLines = (
{
angle = 90;
position = "{0, 0}";
},
{
angle = 90;
position = "{50, 0}";
},
{
angle = 90;
position = "{100, 0}";
},
{
angle = 90;
position = "{150, 0}";
},
{
angle = 90;
position = "{200, 0}";
},
{
angle = 90;
position = "{250, 0}";
},
{
angle = 90;
position = "{300, 0}";
},
{
angle = 90;
position = "{350, 0}";
},
{
angle = 90;
position = "{400, 0}";
},
{
angle = 90;
position = "{450, 0}";
},
{
angle = 90;
position = "{500, 0}";
},
{
position = "{0, -250}";
},
{
position = "{0, -200}";
},
{
position = "{0, -150}";
},
{
position = "{0, -100}";
},
{
position = "{0, -50}";
},
{
position = "{0, 0}";
},
{
position = "{0, 50}";
},
{
position = "{0, 100}";
},
{
position = "{0, 150}";
},
{
position = "{0, 200}";
},
{
position = "{0, 250}";
},
{
position = "{0, 300}";
},
{
position = "{0, 350}";
},
{
position = "{0, 400}";
},
{
position = "{0, 450}";
},
{
position = "{0, 500}";
},
{
position = "{0, 550}";
},
{
position = "{0, 600}";
},
{
position = "{0, 650}";
},
{
position = "{0, 700}";
}
);
paths = (
{
closed = 1;
nodes = (
"330 639 LINE SMOOTH",
"330 645 OFFCURVE",
"325 650 OFFCURVE",
"170 650 CURVE",
"170 61 LINE",
"170 55 OFFCURVE",
"175 50 OFFCURVE",
"330 50 CURVE"
);
},
{
closed = 1;
nodes = (
"70 656.647 OFFCURVE",
"70 612.353 OFFCURVE",
"70 569 CURVE",
"70 566 OFFCURVE",
"71 563 OFFCURVE",
"73 561 CURVE SMOOTH",
"75 559 OFFCURVE",
"78 558 OFFCURVE",
"81 558 CURVE SMOOTH",
"430 558 LINE",
"430 601 OFFCURVE",
"430 646 OFFCURVE",
"430 689 CURVE SMOOTH",
"430 695 OFFCURVE",
"425 700 OFFCURVE",
"419 700 CURVE SMOOTH",
"70 700 LINE"
);
},
{
closed = 1;
nodes = (
"70 98.647 OFFCURVE",
"70 54.353 OFFCURVE",
"70 11 CURVE SMOOTH",
"70 8 OFFCURVE",
"71 5 OFFCURVE",
"73 3 CURVE SMOOTH",
"75 1 OFFCURVE",
"78 0 OFFCURVE",
"81 0 CURVE SMOOTH",
"430 0 LINE",
"430 43.353 OFFCURVE",
"430 87.647 OFFCURVE",
"430 131 CURVE SMOOTH",
"430 137 OFFCURVE",
"425 142 OFFCURVE",
"419 142 CURVE SMOOTH",
"70 142 LINE"
);
}
);
};
layerId = master01;
paths = (
{
closed = 1;
nodes = (
"330 220 OFFCURVE",
"330 359 OFFCURVE",
"330 495 CURVE",
"330 517 OFFCURVE",
"330 547 OFFCURVE",
"330 569 CURVE",
"334 615 LINE",
"170 615 LINE",
"170 479 OFFCURVE",
"170 340 OFFCURVE",
"170 205 CURVE",
"170 184 OFFCURVE",
"170 152 OFFCURVE",
"170 131 CURVE",
"166 85 LINE",
"330 85 LINE"
);
},
{
closed = 1;
nodes = (
"430 44 OFFCURVE",
"430 80 OFFCURVE",
"430 124 CURVE SMOOTH",
"430 130 OFFCURVE",
"425 135 OFFCURVE",
"419 135 CURVE SMOOTH",
"70 135 LINE",
"70 91 OFFCURVE",
"70 55 OFFCURVE",
"70 11 CURVE SMOOTH",
"70 5 OFFCURVE",
"75 0 OFFCURVE",
"81 0 CURVE SMOOTH",
"430 0 LINE"
);
},
{
closed = 1;
nodes = (
"70 656 OFFCURVE",
"70 620 OFFCURVE",
"70 576 CURVE",
"70 570 OFFCURVE",
"75 565 OFFCURVE",
"81 565 CURVE SMOOTH",
"430 565 LINE",
"430 609 OFFCURVE",
"430 645 OFFCURVE",
"430 689 CURVE SMOOTH",
"430 695 OFFCURVE",
"425 700 OFFCURVE",
"419 700 CURVE SMOOTH",
"70 700 LINE"
);
}
);
userData = {
com.arrowtype.glyphMarkStatus = check;
};
width = 500;
},
{
anchors = (
{
name = bottom;
position = "{250, -1}";
},
{
name = hook;
position = "{250, 730}";
},
{
name = ogonek;
position = "{431, 0}";
},
{
name = top;
position = "{250, 711}";
}
);
associatedMasterId = master01;
layerId = "140E98DF-8DE2-42C9-A68F-84D4609D86C8";
name = foreground;
paths = (
{
closed = 1;
nodes = (
"330 220 OFFCURVE",
"330 359 OFFCURVE",
"330 495 CURVE",
"330 517 OFFCURVE",
"330 547 OFFCURVE",
"330 569 CURVE",
"334 615 LINE",
"170 615 LINE",
"170 479 OFFCURVE",
"170 340 OFFCURVE",
"170 205 CURVE",
"170 184 OFFCURVE",
"170 152 OFFCURVE",
"170 131 CURVE",
"166 85 LINE",
"330 85 LINE"
);
},
{
closed = 1;
nodes = (
"430 44 OFFCURVE",
"430 80 OFFCURVE",
"430 124 CURVE SMOOTH",
"430 130 OFFCURVE",
"425 135 OFFCURVE",
"419 135 CURVE SMOOTH",
"70 135 LINE",
"70 91 OFFCURVE",
"70 55 OFFCURVE",
"70 11 CURVE SMOOTH",
"70 5 OFFCURVE",
"75 0 OFFCURVE",
"81 0 CURVE SMOOTH",
"430 0 LINE"
);
},
{
closed = 1;
nodes = (
"70 656 OFFCURVE",
"70 620 OFFCURVE",
"70 576 CURVE",
"70 570 OFFCURVE",
"75 565 OFFCURVE",
"81 565 CURVE SMOOTH",
"430 565 LINE",
"430 609 OFFCURVE",
"430 645 OFFCURVE",
"430 689 CURVE SMOOTH",
"430 695 OFFCURVE",
"425 700 OFFCURVE",
"419 700 CURVE SMOOTH",
"70 700 LINE"
);
}
);
userData = {
com.arrowtype.glyphMarkStatus = check;
};
width = 500;
}
);
leftKerningGroup = I_left;
rightKerningGroup = I_right;
unicode = 0049;
},
{
color = (255,255,0,255);
glyphname = J;
layers = (
{
anchors = (
{
name = top;
position = "{255, 711}";
}
);
background = {
anchors = (
{
name = top;
position = "{255, 711}";
}
);
guideLines = (
{
angle = 90;
position = "{0, 0}";
},
{
angle = 90;
position = "{50, 0}";
},
{
angle = 90;
position = "{100, 0}";
},
{
angle = 90;
position = "{150, 0}";
},
{
angle = 90;
position = "{200, 0}";
},
{
angle = 90;
position = "{250, 0}";
},
{
angle = 90;
position = "{300, 0}";
},
{
angle = 90;
position = "{350, 0}";
},
{
angle = 90;
position = "{400, 0}";
},
{
angle = 90;
position = "{450, 0}";
},
{
angle = 90;
position = "{500, 0}";
},
{
position = "{0, -250}";
},
{
position = "{0, -200}";
},
{
position = "{0, -150}";
},
{
position = "{0, -100}";
},
{
position = "{0, -50}";
},
{
position = "{0, 0}";
},
{
position = "{0, 50}";
},
{
position = "{0, 100}";
},
{
position = "{0, 150}";
},
{
position = "{0, 200}";
},
{
position = "{0, 250}";
},
{
position = "{0, 300}";
},
{
position = "{0, 350}";
},
{
position = "{0, 400}";
},
{
position = "{0, 450}";
},
{
position = "{0, 500}";
},
{
position = "{0, 550}";
},
{
position = "{0, 600}";
},
{
position = "{0, 650}";
},
{
position = "{0, 700}";
}
);
paths = (
{
closed = 1;
nodes = (
"91 657 OFFCURVE",
"91 612 OFFCURVE",
"91 569 CURVE",
"91 566 OFFCURVE",
"92 563 OFFCURVE",
"94 561 CURVE SMOOTH",
"96 559 OFFCURVE",
"99 558 OFFCURVE",
"102 558 CURVE",
"390 558 LINE",
"390 614 OFFCURVE",
"368 700 OFFCURVE",
"315 700 CURVE SMOOTH",
"91 700 LINE"
);
},
{
closed = 1;
nodes = (
"430 689 LINE SMOOTH",
"430 695 OFFCURVE",
"425 700 OFFCURVE",
"419 700 CURVE SMOOTH",
"280 700 LINE",
"280 226 LINE SMOOTH",
"280 149 OFFCURVE",
"280 128 OFFCURVE",
"280 72 CURVE",
"354 72 OFFCURVE",
"430 116 OFFCURVE",
"430 225 CURVE SMOOTH"
);
},
{
closed = 1;
nodes = (
"143 130 OFFCURVE",
"104 141 OFFCURVE",
"60 160 CURVE",
"40 160 LINE",
"40 117 OFFCURVE",
"40 72 OFFCURVE",
"40 29 CURVE",
"40 26 OFFCURVE",
"41 23 OFFCURVE",
"43 21 CURVE SMOOTH",
"57 7 OFFCURVE",
"124 -12 OFFCURVE",
"177 -12 CURVE SMOOTH",
"201 -12 LINE SMOOTH",
"351 -12 OFFCURVE",
"430 83 OFFCURVE",
"430 225 CURVE",
"430 235 OFFCURVE",
"420 242 OFFCURVE",
"280 226 CURVE",
"280 142 OFFCURVE",
"254 130 OFFCURVE",
"189 130 CURVE SMOOTH"
);
}
);
};
layerId = master01;
paths = (
{
closed = 1;
nodes = (
"145 130 OFFCURVE",
"109 139 OFFCURVE",
"60 160 CURVE",
"40 160 LINE",
"40 115 OFFCURVE",
"40 68 OFFCURVE",
"40 27 CURVE",
"40 20 OFFCURVE",
"41 16 OFFCURVE",
"45 12 CURVE SMOOTH",
"60 -3 OFFCURVE",
"120 -20 OFFCURVE",
"199 -20 CURVE SMOOTH",
"358 -20 OFFCURVE",
"430 67 OFFCURVE",
"430 219 CURVE SMOOTH",
"430 393 OFFCURVE",
"430 541 OFFCURVE",
"430 689 CURVE SMOOTH",
"430 695 OFFCURVE",
"425 700 OFFCURVE",
"419 700 CURVE SMOOTH",
"293 700 OFFCURVE",
"217 700 OFFCURVE",
"91 700 CURVE",
"91 656 OFFCURVE",
"91 620 OFFCURVE",
"91 576 CURVE",
"91 570 OFFCURVE",
"96 565 OFFCURVE",
"102 565 CURVE",
"184 565 OFFCURVE",
"226 565 OFFCURVE",
"308 565 CURVE",
"261 590 LINE",
"302 544 LINE",
"280 592 LINE",
"280 456 OFFCURVE",
"280 347 OFFCURVE",
"280 228 CURVE SMOOTH",
"280 186 OFFCURVE",
"275 163 OFFCURVE",
"261 149 CURVE SMOOTH",
"247 135 OFFCURVE",
"229 130 OFFCURVE",
"196 130 CURVE SMOOTH"
);
}
);
userData = {
com.arrowtype.glyphMarkStatus = check;
};
width = 500;
},
{
anchors = (
{
name = top;
position = "{255, 711}";
}
);
associatedMasterId = master01;
layerId = "B0F0AB12-1419-45C6-B315-EC16760A3819";
name = foreground;
paths = (
{
closed = 1;
nodes = (
"145 130 OFFCURVE",
"109 139 OFFCURVE",
"60 160 CURVE",
"40 160 LINE",
"40 115 OFFCURVE",
"40 68 OFFCURVE",
"40 27 CURVE",
"40 20 OFFCURVE",
"41 16 OFFCURVE",
"45 12 CURVE SMOOTH",
"60 -3 OFFCURVE",
"120 -20 OFFCURVE",
"199 -20 CURVE SMOOTH",
"358 -20 OFFCURVE",
"430 67 OFFCURVE",
"430 219 CURVE SMOOTH",
"430 393 OFFCURVE",
"430 541 OFFCURVE",
"430 689 CURVE SMOOTH",
"430 695 OFFCURVE",
"425 700 OFFCURVE",
"419 700 CURVE SMOOTH",
"293 700 OFFCURVE",
"217 700 OFFCURVE",
"91 700 CURVE",
"91 656 OFFCURVE",
"91 620 OFFCURVE",
"91 576 CURVE",
"91 570 OFFCURVE",
"96 565 OFFCURVE",
"102 565 CURVE",
"184 565 OFFCURVE",
"226 565 OFFCURVE",
"308 565 CURVE",
"261 590 LINE",
"302 544 LINE",
"280 592 LINE",
"280 456 OFFCURVE",
"280 347 OFFCURVE",
"280 228 CURVE SMOOTH",
"280 186 OFFCURVE",
"275 163 OFFCURVE",
"261 149 CURVE SMOOTH",
"247 135 OFFCURVE",
"229 130 OFFCURVE",
"196 130 CURVE SMOOTH"
);
}
);
userData = {
com.arrowtype.glyphMarkStatus = check;
};
width = 500;
},
{
associatedMasterId = master01;
layerId = "85465943-EF1A-4B84-BA7A-15AF67844B28";
name = "45degrees";
paths = (
{
closed = 1;
nodes = (
"91 657 OFFCURVE",
"91 612 OFFCURVE",
"91 569 CURVE",
"91 566 OFFCURVE",
"92 563 OFFCURVE",
"94 561 CURVE SMOOTH",
"96 559 OFFCURVE",
"99 558 OFFCURVE",
"102 558 CURVE",
"390 558 LINE",
"390 614 OFFCURVE",
"368 700 OFFCURVE",
"315 700 CURVE SMOOTH",
"91 700 LINE"
);
},
{
closed = 1;
nodes = (
"430 689 LINE SMOOTH",
"430 695 OFFCURVE",
"425 700 OFFCURVE",
"419 700 CURVE SMOOTH",
"280 700 LINE",
"280 246 LINE SMOOTH",
"280 161 OFFCURVE",
"267 102 OFFCURVE",
"243 54 CURVE",
"294 21 OFFCURVE",
"331 17 OFFCURVE",
"360 46 CURVE",
"413 99 OFFCURVE",
"430 167 OFFCURVE",
"430 245 CURVE SMOOTH"
);
},
{
closed = 1;
nodes = (
"143 130 OFFCURVE",
"104 141 OFFCURVE",
"60 160 CURVE",
"40 160 LINE",
"40 117 OFFCURVE",
"40 72 OFFCURVE",
"40 29 CURVE",
"40 26 OFFCURVE",
"41 23 OFFCURVE",
"43 21 CURVE SMOOTH",
"57 7 OFFCURVE",
"124 -12 OFFCURVE",
"177 -12 CURVE SMOOTH",
"201 -12 LINE SMOOTH",
"255 -12 OFFCURVE",
"320 6 OFFCURVE",
"360 46 CURVE SMOOTH",
"421 107 OFFCURVE",
"359 151 OFFCURVE",
"311 163 CURVE",
"269 139 OFFCURVE",
"246 130 OFFCURVE",
"189 130 CURVE SMOOTH"
);
}
);
width = 600;
}
);
leftKerningGroup = I_left;
rightKerningGroup = J_right;
unicode = 004A;
},
{
color = (0,0,0,64);
glyphname = K;
layers = (
{
anchors = (
{
name = bottom;
position = "{320, -1}";
}
);
layerId = master01;
paths = (
{
closed = 1;
nodes = (
"237 233 LINE",
"294 233 LINE",
"305 185 OFFCURVE",
"316 160 OFFCURVE",
"362 84 CURVE SMOOTH",
"410 7 OFFCURVE",
"442 0 OFFCURVE",
"517 0 CURVE SMOOTH",
"539 0 OFFCURVE",
"552 0 OFFCURVE",
"559 0 CURVE SMOOTH",
"566 0 OFFCURVE",
"570 4 OFFCURVE",
"570 11 CURVE SMOOTH",
"570 19 OFFCURVE",
"570 89 OFFCURVE",
"570 135 CURVE",
"565 135 LINE",
"555 135 OFFCURVE",
"551 135 OFFCURVE",
"541 135 CURVE",
"515 135 OFFCURVE",
"509 140 OFFCURVE",
"494 165 CURVE SMOOTH",
"442 249 OFFCURVE",
"387 337 OFFCURVE",
"335 421 CURVE"
);
},
{
closed = 1;
nodes = (
"407 700 LINE",
"374 645 OFFCURVE",
"325 562 OFFCURVE",
"293 507 CURVE SMOOTH",
"265 460 OFFCURVE",
"248 423 OFFCURVE",
"235 373 CURVE",
"195 373 LINE",
"195 119 LINE",
"341 327 OFFCURVE",
"507 567 OFFCURVE",
"562 649 CURVE SMOOTH",
"586 684 OFFCURVE",
"586 687 OFFCURVE",
"586 692 CURVE SMOOTH",
"586 696 OFFCURVE",
"582 700 OFFCURVE",
"577 700 CURVE"
);
},
{
closed = 1;
nodes = (
"60 664 OFFCURVE",
"60 629 OFFCURVE",
"60 593 CURVE SMOOTH",
"60 399 OFFCURVE",
"60 205 OFFCURVE",
"60 11 CURVE SMOOTH",
"60 4 OFFCURVE",
"64 0 OFFCURVE",
"71 0 CURVE",
"121 0 OFFCURVE",
"165 0 OFFCURVE",
"215 0 CURVE",
"215 229 OFFCURVE",
"215 460 OFFCURVE",
"215 689 CURVE SMOOTH",
"215 696 OFFCURVE",
"211 700 OFFCURVE",
"204 700 CURVE",
"154 700 OFFCURVE",
"110 700 OFFCURVE",
"60 700 CURVE"
);
}
);
width = 600;
},
{
anchors = (
{
name = bottom;
position = "{320, -1}";
}
);
associatedMasterId = master01;
layerId = "9673E00A-0B21-4B0F-B817-5D2F770A3FA0";
name = foreground;
paths = (
{
closed = 1;
nodes = (
"237 233 LINE",
"294 233 LINE",
"305 185 OFFCURVE",
"316 160 OFFCURVE",
"362 84 CURVE SMOOTH",
"410 7 OFFCURVE",
"442 0 OFFCURVE",
"517 0 CURVE SMOOTH",
"539 0 OFFCURVE",
"552 0 OFFCURVE",
"559 0 CURVE SMOOTH",
"566 0 OFFCURVE",
"570 4 OFFCURVE",
"570 11 CURVE SMOOTH",
"570 19 OFFCURVE",
"570 89 OFFCURVE",
"570 135 CURVE",
"565 135 LINE",
"555 135 OFFCURVE",
"551 135 OFFCURVE",
"541 135 CURVE",
"515 135 OFFCURVE",
"509 140 OFFCURVE",
"494 165 CURVE SMOOTH",
"442 249 OFFCURVE",
"387 337 OFFCURVE",
"335 421 CURVE"
);
},
{
closed = 1;
nodes = (
"407 700 LINE",
"374 645 OFFCURVE",
"325 562 OFFCURVE",
"293 507 CURVE SMOOTH",
"265 460 OFFCURVE",
"248 423 OFFCURVE",
"235 373 CURVE",
"195 373 LINE",
"195 119 LINE",
"341 327 OFFCURVE",
"507 567 OFFCURVE",
"562 649 CURVE SMOOTH",
"586 684 OFFCURVE",
"586 687 OFFCURVE",
"586 692 CURVE SMOOTH",
"586 696 OFFCURVE",
"582 700 OFFCURVE",
"577 700 CURVE"
);
},
{
closed = 1;
nodes = (
"60 664 OFFCURVE",
"60 629 OFFCURVE",
"60 593 CURVE SMOOTH",
"60 399 OFFCURVE",
"60 205 OFFCURVE",
"60 11 CURVE SMOOTH",
"60 4 OFFCURVE",
"64 0 OFFCURVE",
"71 0 CURVE",
"121 0 OFFCURVE",
"165 0 OFFCURVE",
"215 0 CURVE",
"215 229 OFFCURVE",
"215 460 OFFCURVE",
"215 689 CURVE SMOOTH",
"215 696 OFFCURVE",
"211 700 OFFCURVE",
"204 700 CURVE",
"154 700 OFFCURVE",
"110 700 OFFCURVE",
"60 700 CURVE"
);
}
);
width = 600;
}
);
leftKerningGroup = N_left;
rightKerningGroup = K_right;
unicode = 004B;
},
{
color = (255,255,0,255);
glyphname = L;
layers = (
{
anchors = (
{
name = bottom;
position = "{285, -1}";
},
{
name = caronslovak;
position = "{415, 600}";
},
{
name = dot;
position = "{435, 400}";
},
{
name = slash;
position = "{174, 369}";
},
{
name = top;
position = "{150, 711}";
}
);
background = {
anchors = (
{
name = bottom;
position = "{285, -1}";
},
{
name = caronslovak;
position = "{415, 600}";
},
{
name = dot;
position = "{435, 400}";
},
{
name = top;
position = "{150, 711}";
}
);
paths = (
{
closed = 1;
nodes = (
"230 689 LINE",
"230 692 OFFCURVE",
"229 695 OFFCURVE",
"227 697 CURVE SMOOTH",
"225 699 OFFCURVE",
"222 700 OFFCURVE",
"219 700 CURVE",
"169 700 OFFCURVE",
"120 700 OFFCURVE",
"70 700 CURVE",
"70 667 OFFCURVE",
"70 633 OFFCURVE",
"70 600 CURVE SMOOTH",
"70 111 LINE SMOOTH",
"70 105 OFFCURVE",
"75 100 OFFCURVE",
"230 100 CURVE"
);
},
{
closed = 1;
nodes = (
"70 11 LINE SMOOTH",
"70 5 OFFCURVE",
"75 0 OFFCURVE",
"81 0 CURVE SMOOTH",
"500 0 LINE",
"500 43.353 OFFCURVE",
"500 87.647 OFFCURVE",
"500 131 CURVE SMOOTH",
"500 137 OFFCURVE",
"495 142 OFFCURVE",
"489 142 CURVE SMOOTH",
"70 142 LINE"
);
},
{
closed = 1;
nodes = (
"500 0 LINE",
"484 100 OFFCURVE",
"458 135 OFFCURVE",
"379 135 CURVE",
"230 135 LINE",
"230 317 OFFCURVE",
"230 507 OFFCURVE",
"230 689 CURVE",
"230 695 OFFCURVE",
"225 700 OFFCURVE",
"219 700 CURVE",
"169 700 OFFCURVE",
"120 700 OFFCURVE",
"70 700 CURVE",
"70 673 OFFCURVE",
"70 647 OFFCURVE",
"70 620 CURVE",
"70 417 OFFCURVE",
"70 214 OFFCURVE",
"70 11 CURVE SMOOTH",
"70 5 OFFCURVE",
"75 0 OFFCURVE",
"81 0 CURVE SMOOTH"
);
},
{
closed = 1;
nodes = (
"360 182 OFFCURVE",
"360 146 OFFCURVE",
"360 121 CURVE SMOOTH",
"360 55 OFFCURVE",
"393 10 OFFCURVE",
"500 0 CURVE",
"500 51 OFFCURVE",
"500 144 OFFCURVE",
"500 194 CURVE SMOOTH",
"500 200 OFFCURVE",
"495 205 OFFCURVE",
"489 205 CURVE SMOOTH",
"443 205 OFFCURVE",
"406 205 OFFCURVE",
"360 205 CURVE"
);
}
);
};
layerId = master01;
paths = (
{
closed = 1;
nodes = (
"500 0 LINE",
"484 100 OFFCURVE",
"458 135 OFFCURVE",
"379 135 CURVE",
"230 135 LINE",
"230 317 OFFCURVE",
"230 507 OFFCURVE",
"230 689 CURVE",
"230 695 OFFCURVE",
"225 700 OFFCURVE",
"219 700 CURVE",
"169 700 OFFCURVE",
"120 700 OFFCURVE",
"70 700 CURVE",
"70 673 OFFCURVE",
"70 647 OFFCURVE",
"70 620 CURVE",
"70 417 OFFCURVE",
"70 214 OFFCURVE",
"70 11 CURVE SMOOTH",
"70 5 OFFCURVE",
"75 0 OFFCURVE",
"81 0 CURVE SMOOTH"
);
},
{
closed = 1;
nodes = (
"360 182 OFFCURVE",
"360 146 OFFCURVE",
"360 121 CURVE SMOOTH",
"360 55 OFFCURVE",
"393 10 OFFCURVE",
"500 0 CURVE",
"500 51 OFFCURVE",
"500 144 OFFCURVE",
"500 194 CURVE SMOOTH",
"500 200 OFFCURVE",
"495 205 OFFCURVE",
"489 205 CURVE SMOOTH",
"443 205 OFFCURVE",
"406 205 OFFCURVE",
"360 205 CURVE"
);
}
);
userData = {
com.arrowtype.glyphMarkStatus = check;
};
width = 550;
},
{
anchors = (
{
name = bottom;
position = "{285, -1}";
},
{
name = caronslovak;
position = "{415, 600}";
},
{
name = dot;
position = "{435, 400}";
},
{
name = slash;
position = "{174, 369}";
},
{
name = top;
position = "{150, 711}";
}
);
associatedMasterId = master01;
layerId = "9D52663B-C77C-4689-A731-A456AC904FD0";
name = foreground;
paths = (
{
closed = 1;
nodes = (
"500 0 LINE",
"484 100 OFFCURVE",
"458 135 OFFCURVE",
"379 135 CURVE",
"230 135 LINE",
"230 317 OFFCURVE",
"230 507 OFFCURVE",
"230 689 CURVE",
"230 695 OFFCURVE",
"225 700 OFFCURVE",
"219 700 CURVE",
"169 700 OFFCURVE",
"120 700 OFFCURVE",
"70 700 CURVE",
"70 673 OFFCURVE",
"70 647 OFFCURVE",
"70 620 CURVE",
"70 417 OFFCURVE",
"70 214 OFFCURVE",
"70 11 CURVE SMOOTH",
"70 5 OFFCURVE",
"75 0 OFFCURVE",
"81 0 CURVE SMOOTH"
);
},
{
closed = 1;
nodes = (
"360 182 OFFCURVE",
"360 146 OFFCURVE",
"360 121 CURVE SMOOTH",
"360 55 OFFCURVE",
"393 10 OFFCURVE",
"500 0 CURVE",
"500 51 OFFCURVE",
"500 144 OFFCURVE",
"500 194 CURVE SMOOTH",
"500 200 OFFCURVE",
"495 205 OFFCURVE",
"489 205 CURVE SMOOTH",
"443 205 OFFCURVE",
"406 205 OFFCURVE",
"360 205 CURVE"
);
}
);
userData = {
com.arrowtype.glyphMarkStatus = check;
};
width = 550;
}
);
leftKerningGroup = N_left;
rightKerningGroup = L_right;
unicode = 004C;
},
{
color = (255,255,0,255);
glyphname = M;
layers = (
{
anchors = (
{
name = bottom;
position = "{401, 0}";
}
);
background = {
guideLines = (
{
angle = 90;
position = "{0, 0}";
},
{
angle = 90;
position = "{50, 0}";
},
{
angle = 90;
position = "{100, 0}";
},
{
angle = 90;
position = "{150, 0}";
},
{
angle = 90;
position = "{200, 0}";
},
{
angle = 90;
position = "{250, 0}";
},
{
angle = 90;
position = "{300, 0}";
},
{
angle = 90;
position = "{350, 0}";
},
{
angle = 90;
position = "{400, 0}";
},
{
angle = 90;
position = "{450, 0}";
},
{
angle = 90;
position = "{500, 0}";
},
{
angle = 90;
position = "{550, 0}";
},
{
angle = 90;
position = "{600, 0}";
},
{
angle = 90;
position = "{650, 0}";
},
{
angle = 90;
position = "{700, 0}";
},
{
angle = 90;
position = "{750, 0}";
},
{
angle = 90;
position = "{800, 0}";
},
{
angle = 90;
position = "{850, 0}";
},
{
position = "{0, -250}";
},
{
position = "{0, -200}";
},
{
position = "{0, -150}";
},
{
position = "{0, -100}";
},
{
position = "{0, -50}";
},
{
position = "{0, 0}";
},
{
position = "{0, 50}";
},
{
position = "{0, 100}";
},
{
position = "{0, 150}";
},
{
position = "{0, 200}";
},
{
position = "{0, 250}";
},
{
position = "{0, 300}";
},
{
position = "{0, 350}";
},
{
position = "{0, 400}";
},
{
position = "{0, 450}";
},
{
position = "{0, 500}";
},
{
position = "{0, 550}";
},
{
position = "{0, 600}";
},
{
position = "{0, 650}";
},
{
position = "{0, 700}";
}
);
paths = (
{
closed = 1;
nodes = (
"216 68 OFFCURVE",
"216 135 OFFCURVE",
"216 203 CURVE",
"210 367 OFFCURVE",
"204 529 OFFCURVE",
"198 689 CURVE SMOOTH",
"198 692 OFFCURVE",
"197 695 OFFCURVE",
"195 697 CURVE SMOOTH",
"193 699 OFFCURVE",
"190 700 OFFCURVE",
"187 700 CURVE",
"148 700 OFFCURVE",
"109 700 OFFCURVE",
"70 700 CURVE",
"70 662 OFFCURVE",
"70 625 OFFCURVE",
"70 587 CURVE",
"70 395 OFFCURVE",
"70 203 OFFCURVE",
"70 11 CURVE SMOOTH",
"70 8 OFFCURVE",
"71 5 OFFCURVE",
"73 3 CURVE SMOOTH",
"75 1 OFFCURVE",
"78 0 OFFCURVE",
"81 0 CURVE",
"126 0 OFFCURVE",
"171 0 OFFCURVE",
"216 0 CURVE"
);
},
{
closed = 1;
nodes = (
"730 37 OFFCURVE",
"730 75 OFFCURVE",
"730 112 CURVE SMOOTH",
"730 304 OFFCURVE",
"730 497 OFFCURVE",
"730 689 CURVE",
"730 692 OFFCURVE",
"729 695 OFFCURVE",
"727 697 CURVE SMOOTH",
"725 699 OFFCURVE",
"722 700 OFFCURVE",
"719 700 CURVE",
"601 700 LINE",
"601 683 OFFCURVE",
"601 665 OFFCURVE",
"600 648 CURVE SMOOTH",
"594 499 OFFCURVE",
"587 350 OFFCURVE",
"581 204 CURVE",
"581 143 OFFCURVE",
"581 81 OFFCURVE",
"581 20 CURVE",
"581 8 OFFCURVE",
"583 5 OFFCURVE",
"585 3 CURVE SMOOTH",
"587 1 OFFCURVE",
"589 0 OFFCURVE",
"593 0 CURVE SMOOTH",
"639 0 OFFCURVE",
"684 0 OFFCURVE",
"730 0 CURVE"
);
},
{
closed = 1;
nodes = (
"273 697 OFFCURVE",
"269 700 OFFCURVE",
"261 700 CURVE SMOOTH",
"129 700 LINE",
"139.28 673.273 OFFCURVE",
"155 648 OFFCURVE",
"165 621 CURVE",
"222 463 OFFCURVE",
"279 305 OFFCURVE",
"336 147 CURVE",
"337 143 OFFCURVE",
"343 140 OFFCURVE",
"347 140 CURVE SMOOTH",
"355 140 OFFCURVE",
"365 146 OFFCURVE",
"440 240 CURVE",
"386 389 OFFCURVE",
"331 538 OFFCURVE",
"277 687 CURVE"
);
},
{
closed = 1;
nodes = (
"473 547 OFFCURVE",
"417 393 OFFCURVE",
"362 240 CURVE",
"338 158 OFFCURVE",
"351 146 OFFCURVE",
"347 140 CURVE",
"459 140 LINE",
"525 322 OFFCURVE",
"592 505 OFFCURVE",
"658 687 CURVE SMOOTH",
"661 696 OFFCURVE",
"658 700 OFFCURVE",
"650 700 CURVE SMOOTH",
"634.75 700 OFFCURVE",
"535 700 OFFCURVE",
"528 700 CURVE"
);
}
);
};
layerId = master01;
paths = (
{
closed = 1;
nodes = (
"220 44 OFFCURVE",
"220 89 OFFCURVE",
"220 133 CURVE",
"220 244 OFFCURVE",
"215 334 OFFCURVE",
"190 496 CURVE",
"171 466 LINE",
"243 466 LINE",
"202 494 LINE",
"245 380 OFFCURVE",
"294 257 OFFCURVE",
"338 143 CURVE SMOOTH",
"341 136 OFFCURVE",
"346 135 OFFCURVE",
"350 135 CURVE SMOOTH",
"386 135 OFFCURVE",
"422 135 OFFCURVE",
"458 135 CURVE",
"502 251 OFFCURVE",
"552 378 OFFCURVE",
"596 494 CURVE",
"554 466 LINE",
"627 466 LINE",
"608 496 LINE",
"585 330 OFFCURVE",
"580 242 OFFCURVE",
"580 133 CURVE",
"580 92 OFFCURVE",
"580 52 OFFCURVE",
"580 11 CURVE SMOOTH",
"580 5 OFFCURVE",
"585 0 OFFCURVE",
"591 0 CURVE SMOOTH",
"637 0 OFFCURVE",
"684 0 OFFCURVE",
"730 0 CURVE",
"730 33 OFFCURVE",
"730 66 OFFCURVE",
"730 99 CURVE SMOOTH",
"730 296 OFFCURVE",
"730 493 OFFCURVE",
"730 689 CURVE SMOOTH",
"730 695 OFFCURVE",
"725 700 OFFCURVE",
"719 700 CURVE SMOOTH",
"673 700 OFFCURVE",
"575 700 OFFCURVE",
"529 700 CURVE",
"473 552 OFFCURVE",
"438 455 OFFCURVE",
"394 322 CURVE",
"438 365 LINE",
"365 365 LINE",
"408 322 LINE",
"364 454 OFFCURVE",
"326 554 OFFCURVE",
"276 675 CURVE SMOOTH",
"268 696 OFFCURVE",
"263 700 OFFCURVE",
"250 700 CURVE SMOOTH",
"210 700 OFFCURVE",
"116 700 OFFCURVE",
"70 700 CURVE",
"70 667 OFFCURVE",
"70 633 OFFCURVE",
"70 600 CURVE SMOOTH",
"70 404 OFFCURVE",
"70 207 OFFCURVE",
"70 11 CURVE SMOOTH",
"70 5 OFFCURVE",
"75 0 OFFCURVE",
"81 0 CURVE SMOOTH",
"127 0 OFFCURVE",
"174 0 OFFCURVE",
"220 0 CURVE"
);
}
);
userData = {
com.arrowtype.glyphMarkStatus = check;
com.typemytype.robofont.Image.Brightness = 0;
com.typemytype.robofont.Image.Contrast = 1;
com.typemytype.robofont.Image.Saturation = 1;
com.typemytype.robofont.Image.Sharpness = 0.4;
};
width = 800;
},
{
anchors = (
{
name = bottom;
position = "{401, 0}";
}
);
associatedMasterId = master01;
layerId = "8BD5C676-4A16-481C-87C9-DBA9FFF5A9F3";
name = foreground;
paths = (
{
closed = 1;
nodes = (
"220 44 OFFCURVE",
"220 89 OFFCURVE",
"220 133 CURVE",
"220 244 OFFCURVE",
"215 334 OFFCURVE",
"190 496 CURVE",
"171 466 LINE",
"243 466 LINE",
"202 494 LINE",
"245 380 OFFCURVE",
"294 257 OFFCURVE",
"338 143 CURVE SMOOTH",
"341 136 OFFCURVE",
"346 135 OFFCURVE",
"350 135 CURVE SMOOTH",
"386 135 OFFCURVE",
"422 135 OFFCURVE",
"458 135 CURVE",
"502 251 OFFCURVE",
"552 378 OFFCURVE",
"596 494 CURVE",
"554 466 LINE",
"627 466 LINE",
"608 496 LINE",
"585 330 OFFCURVE",
"580 242 OFFCURVE",
"580 133 CURVE",
"580 92 OFFCURVE",
"580 52 OFFCURVE",
"580 11 CURVE SMOOTH",
"580 5 OFFCURVE",
"585 0 OFFCURVE",
"591 0 CURVE SMOOTH",
"637 0 OFFCURVE",
"684 0 OFFCURVE",
"730 0 CURVE",
"730 33 OFFCURVE",
"730 66 OFFCURVE",
"730 99 CURVE SMOOTH",
"730 296 OFFCURVE",
"730 493 OFFCURVE",
"730 689 CURVE SMOOTH",
"730 695 OFFCURVE",
"725 700 OFFCURVE",
"719 700 CURVE SMOOTH",
"673 700 OFFCURVE",
"575 700 OFFCURVE",
"529 700 CURVE",
"473 552 OFFCURVE",
"438 455 OFFCURVE",
"394 322 CURVE",
"438 365 LINE",
"365 365 LINE",
"408 322 LINE",
"364 454 OFFCURVE",
"326 554 OFFCURVE",
"276 675 CURVE SMOOTH",
"268 696 OFFCURVE",
"263 700 OFFCURVE",
"250 700 CURVE SMOOTH",
"210 700 OFFCURVE",
"116 700 OFFCURVE",
"70 700 CURVE",
"70 667 OFFCURVE",
"70 633 OFFCURVE",
"70 600 CURVE SMOOTH",
"70 404 OFFCURVE",
"70 207 OFFCURVE",
"70 11 CURVE SMOOTH",
"70 5 OFFCURVE",
"75 0 OFFCURVE",
"81 0 CURVE SMOOTH",
"127 0 OFFCURVE",
"174 0 OFFCURVE",
"220 0 CURVE"
);
}
);
userData = {
com.arrowtype.glyphMarkStatus = check;
com.typemytype.robofont.Image.Brightness = 0;
com.typemytype.robofont.Image.Contrast = 1;
com.typemytype.robofont.Image.Saturation = 1;
com.typemytype.robofont.Image.Sharpness = 0.4;
};
width = 800;
},
{
associatedMasterId = master01;
layerId = "05556C17-5AE1-4EDF-BFE5-07F4910CF704";
name = "45degrees";
paths = (
{
closed = 1;
nodes = (
"216 68 OFFCURVE",
"216 135 OFFCURVE",
"216 203 CURVE",
"213 365 OFFCURVE",
"210 527 OFFCURVE",
"207 689 CURVE",
"207 692 OFFCURVE",
"206 695 OFFCURVE",
"204 697 CURVE SMOOTH",
"202 699 OFFCURVE",
"199 700 OFFCURVE",
"196 700 CURVE",
"154 700 OFFCURVE",
"112 700 OFFCURVE",
"70 700 CURVE",
"70 662 OFFCURVE",
"70 625 OFFCURVE",
"70 587 CURVE",
"70 395 OFFCURVE",
"70 203 OFFCURVE",
"70 11 CURVE SMOOTH",
"70 8 OFFCURVE",
"71 5 OFFCURVE",
"73 3 CURVE SMOOTH",
"75 1 OFFCURVE",
"78 0 OFFCURVE",
"81 0 CURVE",
"126 0 OFFCURVE",
"171 0 OFFCURVE",
"216 0 CURVE"
);
},
{
closed = 1;
nodes = (
"730 37 OFFCURVE",
"730 75 OFFCURVE",
"730 112 CURVE SMOOTH",
"730 304 OFFCURVE",
"730 497 OFFCURVE",
"730 689 CURVE",
"730 692 OFFCURVE",
"729 695 OFFCURVE",
"727 697 CURVE SMOOTH",
"725 699 OFFCURVE",
"722 700 OFFCURVE",
"719 700 CURVE",
"592 700 LINE",
"592 683 OFFCURVE",
"591 665 OFFCURVE",
"591 648 CURVE",
"588 500 OFFCURVE",
"585 348 OFFCURVE",
"581 204 CURVE",
"581 143 OFFCURVE",
"581 81 OFFCURVE",
"581 20 CURVE",
"581 8 OFFCURVE",
"583 5 OFFCURVE",
"585 3 CURVE SMOOTH",
"587 1 OFFCURVE",
"589 0 OFFCURVE",
"593 0 CURVE SMOOTH",
"639 0 OFFCURVE",
"684 0 OFFCURVE",
"730 0 CURVE"
);
},
{
closed = 1;
nodes = (
"262 697 OFFCURVE",
"257 700 OFFCURVE",
"249 700 CURVE",
"129 700 LINE",
"139 674 OFFCURVE",
"149 647 OFFCURVE",
"159 621 CURVE",
"218 463 OFFCURVE",
"277 305 OFFCURVE",
"336 147 CURVE",
"337 143 OFFCURVE",
"343 140 OFFCURVE",
"347 140 CURVE SMOOTH",
"355 140 OFFCURVE",
"365 146 OFFCURVE",
"440 240 CURVE",
"382 389 OFFCURVE",
"323 538 OFFCURVE",
"265 687 CURVE"
);
},
{
closed = 1;
nodes = (
"477 547 OFFCURVE",
"419 393 OFFCURVE",
"362 240 CURVE",
"338 158 OFFCURVE",
"351 146 OFFCURVE",
"347 140 CURVE",
"459 140 LINE",
"527 322 OFFCURVE",
"596 505 OFFCURVE",
"664 687 CURVE",
"666 696 OFFCURVE",
"664 700 OFFCURVE",
"656 700 CURVE SMOOTH",
"641 700 OFFCURVE",
"541 700 OFFCURVE",
"534 700 CURVE"
);
}
);
width = 600;
}
);
leftKerningGroup = M_left;
rightKerningGroup = M_right;
unicode = 004D;
},
{
color = (255,255,0,255);
glyphname = N;
layers = (
{
anchors = (
{
name = bottom;
position = "{350, -1}";
},
{
name = top;
position = "{350, 711}";
}
);
background = {
anchors = (
{
name = bottom;
position = "{350, -1}";
},
{
name = top;
position = "{350, 711}";
}
);
guideLines = (
{
angle = 90;
position = "{0, 0}";
},
{
angle = 90;
position = "{50, 0}";
},
{
angle = 90;
position = "{100, 0}";
},
{
angle = 90;
position = "{150, 0}";
},
{
angle = 90;
position = "{200, 0}";
},
{
angle = 90;
position = "{250, 0}";
},
{
angle = 90;
position = "{300, 0}";
},
{
angle = 90;
position = "{350, 0}";
},
{
angle = 90;
position = "{400, 0}";
},
{
angle = 90;
position = "{450, 0}";
},
{
angle = 90;
position = "{500, 0}";
},
{
angle = 90;
position = "{550, 0}";
},
{
angle = 90;
position = "{600, 0}";
},
{
angle = 90;
position = "{650, 0}";
},
{
angle = 90;
position = "{700, 0}";
},
{
position = "{0, -250}";
},
{
position = "{0, -200}";
},
{
position = "{0, -150}";
},
{
position = "{0, -100}";
},
{
position = "{0, -50}";
},
{
position = "{0, 0}";
},
{
position = "{0, 50}";
},
{
position = "{0, 100}";
},
{
position = "{0, 150}";
},
{
position = "{0, 200}";
},
{
position = "{0, 250}";
},
{
position = "{0, 300}";
},
{
position = "{0, 350}";
},
{
position = "{0, 400}";
},
{
position = "{0, 450}";
},
{
position = "{0, 500}";
},
{
position = "{0, 550}";
},
{
position = "{0, 600}";
},
{
position = "{0, 650}";
},
{
position = "{0, 700}";
}
);
paths = (
{
closed = 1;
nodes = (
"220 163 LINE",
"202 534 OFFCURVE",
"192 692 OFFCURVE",
"187 697 CURVE SMOOTH",
"185 699 OFFCURVE",
"182 700 OFFCURVE",
"179 700 CURVE",
"146 700 OFFCURVE",
"75 700 OFFCURVE",
"70 700 CURVE",
"70 653 OFFCURVE",
"70 607 OFFCURVE",
"70 560 CURVE",
"70 11 LINE SMOOTH",
"70 5 OFFCURVE",
"75 0 OFFCURVE",
"81 0 CURVE SMOOTH",
"127 0 OFFCURVE",
"174 0 OFFCURVE",
"220 0 CURVE"
);
},
{
closed = 1;
nodes = (
"630 689 LINE SMOOTH",
"630 695 OFFCURVE",
"625 700 OFFCURVE",
"619 700 CURVE SMOOTH",
"480 700 LINE",
"480 494 LINE",
"502 194 OFFCURVE",
"519 5 OFFCURVE",
"521 3 CURVE SMOOTH",
"523 1 OFFCURVE",
"526 0 OFFCURVE",
"529 0 CURVE",
"630 0 LINE"
);
},
{
closed = 1;
nodes = (
"158 700 OFFCURVE",
"153 697 OFFCURVE",
"94 626 CURVE",
"226 420 OFFCURVE",
"357 214 OFFCURVE",
"489 8 CURVE",
"492 1 OFFCURVE",
"497 0 OFFCURVE",
"501 0 CURVE SMOOTH",
"505 0 OFFCURVE",
"537 0 OFFCURVE",
"540 0 CURVE SMOOTH",
"555 0 OFFCURVE",
"570 100 OFFCURVE",
"570 155 CURVE",
"456 333 OFFCURVE",
"341 512 OFFCURVE",
"227 690 CURVE",
"222 699 OFFCURVE",
"220 700 OFFCURVE",
"209 700 CURVE",
"169 700 LINE"
);
}
);
};
layerId = master01;
paths = (
{
closed = 1;
nodes = (
"200 54 OFFCURVE",
"200 109 OFFCURVE",
"200 163 CURVE",
"200 231 OFFCURVE",
"196 341 OFFCURVE",
"167 490 CURVE",
"148 480 LINE",
"221 480 LINE",
"174 513 LINE",
"248 359 OFFCURVE",
"308 241 OFFCURVE",
"432 35 CURVE SMOOTH",
"452 1 OFFCURVE",
"462 0 OFFCURVE",
"470 0 CURVE SMOOTH",
"508 0 OFFCURVE",
"558 0 OFFCURVE",
"600 0 CURVE",
"600 33 OFFCURVE",
"600 67 OFFCURVE",
"600 100 CURVE SMOOTH",
"600 296 OFFCURVE",
"600 493 OFFCURVE",
"600 689 CURVE SMOOTH",
"600 695 OFFCURVE",
"595 700 OFFCURVE",
"589 700 CURVE SMOOTH",
"543 700 OFFCURVE",
"496 700 OFFCURVE",
"450 700 CURVE",
"450 651 OFFCURVE",
"450 603 OFFCURVE",
"450 567 CURVE SMOOTH",
"450 464 OFFCURVE",
"457 379 OFFCURVE",
"488 233 CURVE",
"509 243 LINE",
"439 243 LINE",
"479 217 LINE",
"405 369 OFFCURVE",
"342 482 OFFCURVE",
"243 665 CURVE SMOOTH",
"224 700 OFFCURVE",
"225 700 OFFCURVE",
"213 700 CURVE SMOOTH",
"168 700 OFFCURVE",
"95 700 OFFCURVE",
"50 700 CURVE",
"50 667 OFFCURVE",
"50 633 OFFCURVE",
"50 600 CURVE SMOOTH",
"50 404 OFFCURVE",
"50 207 OFFCURVE",
"50 11 CURVE",
"50 5 OFFCURVE",
"55 0 OFFCURVE",
"61 0 CURVE SMOOTH",
"107 0 OFFCURVE",
"154 0 OFFCURVE",
"200 0 CURVE"
);
}
);
userData = {
com.arrowtype.glyphMarkStatus = check;
};
width = 650;
},
{
anchors = (
{
name = bottom;
position = "{350, -1}";
},
{
name = top;
position = "{350, 711}";
}
);
associatedMasterId = master01;
layerId = "2169B650-65D6-479E-B7E8-D992DAA30B86";
name = foreground;
paths = (
{
closed = 1;
nodes = (
"200 54 OFFCURVE",
"200 109 OFFCURVE",
"200 163 CURVE",
"200 231 OFFCURVE",
"196 341 OFFCURVE",
"167 490 CURVE",
"148 480 LINE",
"221 480 LINE",
"174 513 LINE",
"248 359 OFFCURVE",
"308 241 OFFCURVE",
"432 35 CURVE SMOOTH",
"452 1 OFFCURVE",
"462 0 OFFCURVE",
"470 0 CURVE SMOOTH",
"508 0 OFFCURVE",
"558 0 OFFCURVE",
"600 0 CURVE",
"600 33 OFFCURVE",
"600 67 OFFCURVE",
"600 100 CURVE SMOOTH",
"600 296 OFFCURVE",
"600 493 OFFCURVE",
"600 689 CURVE SMOOTH",
"600 695 OFFCURVE",
"595 700 OFFCURVE",
"589 700 CURVE SMOOTH",
"543 700 OFFCURVE",
"496 700 OFFCURVE",
"450 700 CURVE",
"450 651 OFFCURVE",
"450 603 OFFCURVE",
"450 567 CURVE SMOOTH",
"450 464 OFFCURVE",
"457 379 OFFCURVE",
"488 233 CURVE",
"509 243 LINE",
"439 243 LINE",
"479 217 LINE",
"405 369 OFFCURVE",
"342 482 OFFCURVE",
"243 665 CURVE SMOOTH",
"224 700 OFFCURVE",
"225 700 OFFCURVE",
"213 700 CURVE SMOOTH",
"168 700 OFFCURVE",
"95 700 OFFCURVE",
"50 700 CURVE",
"50 667 OFFCURVE",
"50 633 OFFCURVE",
"50 600 CURVE SMOOTH",
"50 404 OFFCURVE",
"50 207 OFFCURVE",
"50 11 CURVE",
"50 5 OFFCURVE",
"55 0 OFFCURVE",
"61 0 CURVE SMOOTH",
"107 0 OFFCURVE",
"154 0 OFFCURVE",
"200 0 CURVE"
);
}
);
userData = {
com.arrowtype.glyphMarkStatus = check;
};
width = 650;
}
);
leftKerningGroup = N_left;
rightKerningGroup = H_right;
unicode = 004E;
},
{
color = (255,255,0,255);
glyphname = O;
layers = (
{
anchors = (
{
name = bottom;
position = "{325, -1}";
},
{
name = hook;
position = "{323, 730}";
},
{
name = horn;
position = "{476, 677}";
},
{
name = ogonek;
position = "{550, 88}";
},
{
name = tildeviet;
position = "{292, 714}";
},
{
name = top;
position = "{325, 711}";
}
);
background = {
anchors = (
{
name = bottom;
position = "{325, -1}";
},
{
name = ogonek;
position = "{429, 9}";
},
{
name = top;
position = "{325, 711}";
}
);
guideLines = (
{
angle = 90;
position = "{0, 0}";
},
{
angle = 90;
position = "{50, 0}";
},
{
angle = 90;
position = "{100, 0}";
},
{
angle = 90;
position = "{150, 0}";
},
{
angle = 90;
position = "{200, 0}";
},
{
angle = 90;
position = "{250, 0}";
},
{
angle = 90;
position = "{300, 0}";
},
{
angle = 90;
position = "{350, 0}";
},
{
angle = 90;
position = "{400, 0}";
},
{
angle = 90;
position = "{450, 0}";
},
{
angle = 90;
position = "{500, 0}";
},
{
angle = 90;
position = "{550, 0}";
},
{
angle = 90;
position = "{600, 0}";
},
{
angle = 90;
position = "{650, 0}";
},
{
position = "{0, -250}";
},
{
position = "{0, -200}";
},
{
position = "{0, -150}";
},
{
position = "{0, -100}";
},
{
position = "{0, -50}";
},
{
position = "{0, 0}";
},
{
position = "{0, 50}";
},
{
position = "{0, 100}";
},
{
position = "{0, 150}";
},
{
position = "{0, 200}";
},
{
position = "{0, 250}";
},
{
position = "{0, 300}";
},
{
position = "{0, 350}";
},
{
position = "{0, 400}";
},
{
position = "{0, 450}";
},
{
position = "{0, 500}";
},
{
position = "{0, 550}";
},
{
position = "{0, 600}";
},
{
position = "{0, 650}";
},
{
position = "{0, 700}";
}
);
paths = (
{
closed = 1;
nodes = (
"169 720 OFFCURVE",
"55 592 OFFCURVE",
"55 434 CURVE SMOOTH",
"55 258 LINE SMOOTH",
"55 88 OFFCURVE",
"167 -20 OFFCURVE",
"325 -20 CURVE SMOOTH",
"334 -20 OFFCURVE",
"342 -2 OFFCURVE",
"325 122 CURVE",
"248 122 OFFCURVE",
"205 175 OFFCURVE",
"205 258 CURVE SMOOTH",
"205 434 LINE SMOOTH",
"205 523 OFFCURVE",
"252 578 OFFCURVE",
"325 578 CURVE SMOOTH",
"391 578 OFFCURVE",
"424 578 OFFCURVE",
"453 578 CURVE",
"453 639 OFFCURVE",
"438 720 OFFCURVE",
"325 720 CURVE"
);
},
{
closed = 1;
nodes = (
"481 -20 OFFCURVE",
"595 108 OFFCURVE",
"595 266 CURVE SMOOTH",
"595 442 LINE SMOOTH",
"595 612 OFFCURVE",
"483 720 OFFCURVE",
"325 720 CURVE SMOOTH",
"316 720 OFFCURVE",
"308 702 OFFCURVE",
"325 578 CURVE",
"402 578 OFFCURVE",
"445 525 OFFCURVE",
"445 442 CURVE SMOOTH",
"445 266 LINE SMOOTH",
"445 177 OFFCURVE",
"398 122 OFFCURVE",
"325 122 CURVE SMOOTH",
"259 122 OFFCURVE",
"226 122 OFFCURVE",
"197 122 CURVE",
"197 61 OFFCURVE",
"212 -20 OFFCURVE",
"325 -20 CURVE"
);
}
);
};
layerId = master01;
paths = (
{
closed = 1;
nodes = (
"184 720 OFFCURVE",
"55 623 OFFCURVE",
"55 438 CURVE SMOOTH",
"55 250 LINE SMOOTH",
"55 79 OFFCURVE",
"172 -20 OFFCURVE",
"325 -20 CURVE SMOOTH",
"482 -20 OFFCURVE",
"595 79 OFFCURVE",
"595 250 CURVE SMOOTH",
"595 438 LINE SMOOTH",
"595 623 OFFCURVE",
"476 720 OFFCURVE",
"325 720 CURVE SMOOTH"
);
},
{
closed = 1;
nodes = (
"205 450 LINE SMOOTH",
"205 533 OFFCURVE",
"245 585 OFFCURVE",
"327 585 CURVE SMOOTH",
"368 585 OFFCURVE",
"395 575 OFFCURVE",
"414 557 CURVE SMOOTH",
"436 537 OFFCURVE",
"445 510 OFFCURVE",
"445 450 CURVE SMOOTH",
"445 262 LINE SMOOTH",
"445 166 OFFCURVE",
"397 117 OFFCURVE",
"330 117 CURVE SMOOTH",
"293 117 OFFCURVE",
"262 127 OFFCURVE",
"245 141 CURVE SMOOTH",
"228 155 OFFCURVE",
"205 185 OFFCURVE",
"205 262 CURVE SMOOTH"
);
}
);
userData = {
com.arrowtype.glyphMarkStatus = check;
com.typemytype.robofont.Image.Brightness = 0;
com.typemytype.robofont.Image.Contrast = 1;
com.typemytype.robofont.Image.Saturation = 1;
com.typemytype.robofont.Image.Sharpness = 0.4;
};
width = 650;
},
{
anchors = (
{
name = bottom;
position = "{325, -1}";
},
{
name = hook;
position = "{323, 730}";
},
{
name = horn;
position = "{476, 677}";
},
{
name = ogonek;
position = "{550, 88}";
},
{
name = tildeviet;
position = "{292, 714}";
},
{
name = top;
position = "{325, 711}";
}
);
associatedMasterId = master01;
layerId = "BDE468CC-A4AA-45F2-A299-2593C1F248F0";
name = foreground;
paths = (
{
closed = 1;
nodes = (
"184 720 OFFCURVE",
"55 623 OFFCURVE",
"55 438 CURVE SMOOTH",
"55 250 LINE SMOOTH",
"55 79 OFFCURVE",
"172 -20 OFFCURVE",
"325 -20 CURVE SMOOTH",
"482 -20 OFFCURVE",
"595 79 OFFCURVE",
"595 250 CURVE SMOOTH",
"595 438 LINE SMOOTH",
"595 623 OFFCURVE",
"476 720 OFFCURVE",
"325 720 CURVE SMOOTH"
);
},
{
closed = 1;
nodes = (
"205 450 LINE SMOOTH",
"205 533 OFFCURVE",
"245 585 OFFCURVE",
"327 585 CURVE SMOOTH",
"368 585 OFFCURVE",
"395 575 OFFCURVE",
"414 557 CURVE SMOOTH",
"436 537 OFFCURVE",
"445 510 OFFCURVE",
"445 450 CURVE SMOOTH",
"445 262 LINE SMOOTH",
"445 166 OFFCURVE",
"397 117 OFFCURVE",
"330 117 CURVE SMOOTH",
"293 117 OFFCURVE",
"262 127 OFFCURVE",
"245 141 CURVE SMOOTH",
"228 155 OFFCURVE",
"205 185 OFFCURVE",
"205 262 CURVE SMOOTH"
);
}
);
userData = {
com.arrowtype.glyphMarkStatus = check;
com.typemytype.robofont.Image.Brightness = 0;
com.typemytype.robofont.Image.Contrast = 1;
com.typemytype.robofont.Image.Saturation = 1;
com.typemytype.robofont.Image.Sharpness = 0.4;
};
width = 650;
},
{
associatedMasterId = master01;
layerId = "F79986A8-AD67-43FE-8508-CDC0AF06C985";
name = "45degrees";
paths = (
{
closed = 1;
nodes = (
"167 720 OFFCURVE",
"55 598 OFFCURVE",
"55 440 CURVE SMOOTH",
"55 270 LINE SMOOTH",
"55 100 OFFCURVE",
"163 -20 OFFCURVE",
"315 -20 CURVE SMOOTH",
"330 -20 LINE",
"384 -20 OFFCURVE",
"420 21 OFFCURVE",
"420 84 CURVE",
"268 84 OFFCURVE",
"205 132 OFFCURVE",
"205 245 CURVE SMOOTH",
"205 428 LINE SMOOTH",
"205 517 OFFCURVE",
"258 578 OFFCURVE",
"339 578 CURVE SMOOTH",
"400 578 OFFCURVE",
"431 564 OFFCURVE",
"457 540 CURVE",
"468 561 OFFCURVE",
"474 587 OFFCURVE",
"474 608 CURVE",
"474 674 OFFCURVE",
"411 720 OFFCURVE",
"320 720 CURVE"
);
},
{
closed = 1;
nodes = (
"483 -20 OFFCURVE",
"595 102 OFFCURVE",
"595 260 CURVE SMOOTH",
"595 430 LINE SMOOTH",
"595 600 OFFCURVE",
"487 720 OFFCURVE",
"335 720 CURVE SMOOTH",
"320 720 LINE",
"266 720 OFFCURVE",
"230 679 OFFCURVE",
"230 616 CURVE",
"382 616 OFFCURVE",
"445 568 OFFCURVE",
"445 455 CURVE SMOOTH",
"445 272 LINE SMOOTH",
"445 183 OFFCURVE",
"392 122 OFFCURVE",
"311 122 CURVE SMOOTH",
"250 122 OFFCURVE",
"219 136 OFFCURVE",
"193 160 CURVE",
"182 139 OFFCURVE",
"176 113 OFFCURVE",
"176 92 CURVE",
"176 26 OFFCURVE",
"239 -20 OFFCURVE",
"330 -20 CURVE"
);
}
);
width = 600;
}
);
leftKerningGroup = O_left;
rightKerningGroup = O_right;
unicode = 004F;
},
{
color = (0,0,0,64);
glyphname = P;
layers = (
{
layerId = master01;
paths = (
{
closed = 1;
nodes = (
"235 28 OFFCURVE",
"235 62 OFFCURVE",
"235 98 CURVE",
"235 237 OFFCURVE",
"235 356 OFFCURVE",
"235 483 CURVE SMOOTH",
"235 518 OFFCURVE",
"235 547 OFFCURVE",
"235 586 CURVE",
"247 616 LINE",
"75 616 LINE",
"75 404 OFFCURVE",
"75 223 OFFCURVE",
"75 11 CURVE",
"75 4 OFFCURVE",
"79 0 OFFCURVE",
"86 0 CURVE SMOOTH",
"136 0 OFFCURVE",
"185 0 OFFCURVE",
"235 0 CURVE"
);
},
{
closed = 1;
nodes = (
"30 656 OFFCURVE",
"30 621 OFFCURVE",
"30 577 CURVE SMOOTH",
"30 570 OFFCURVE",
"34 566 OFFCURVE",
"41 566 CURVE",
"127 566 OFFCURVE",
"224 566 OFFCURVE",
"312 566 CURVE SMOOTH",
"338 566 OFFCURVE",
"356 562 OFFCURVE",
"368 550 CURVE SMOOTH",
"380 538 OFFCURVE",
"385 519 OFFCURVE",
"385 490 CURVE SMOOTH",
"385 416 LINE SMOOTH",
"385 358 OFFCURVE",
"362 340 OFFCURVE",
"311 340 CURVE SMOOTH",
"285 340 OFFCURVE",
"245 340 OFFCURVE",
"205 340 CURVE",
"205 201 LINE SMOOTH",
"216 205 LINE",
"247.398 205 OFFCURVE",
"280 205 OFFCURVE",
"311 205 CURVE SMOOTH",
"482 205 OFFCURVE",
"545 287 OFFCURVE",
"545 423 CURVE SMOOTH",
"545 483 LINE SMOOTH",
"545 615 OFFCURVE",
"482 700 OFFCURVE",
"311 700 CURVE SMOOTH",
"231 700 OFFCURVE",
"120.248 700 OFFCURVE",
"30 700 CURVE"
);
}
);
userData = {
com.typemytype.robofont.Image.Brightness = 0;
com.typemytype.robofont.Image.Contrast = 1;
com.typemytype.robofont.Image.Saturation = 1;
com.typemytype.robofont.Image.Sharpness = 0.4;
};
width = 600;
},
{
associatedMasterId = master01;
layerId = "8DED0A5F-4796-4CA1-B5E5-352E4C16FCDA";
name = foreground;
paths = (
{
closed = 1;
nodes = (
"235 28 OFFCURVE",
"235 62 OFFCURVE",
"235 98 CURVE",
"235 237 OFFCURVE",
"235 356 OFFCURVE",
"235 483 CURVE SMOOTH",
"235 518 OFFCURVE",
"235 547 OFFCURVE",
"235 586 CURVE",
"247 616 LINE",
"75 616 LINE",
"75 404 OFFCURVE",
"75 223 OFFCURVE",
"75 11 CURVE",
"75 4 OFFCURVE",
"79 0 OFFCURVE",
"86 0 CURVE SMOOTH",
"136 0 OFFCURVE",
"185 0 OFFCURVE",
"235 0 CURVE"
);
},
{
closed = 1;
nodes = (
"30 656 OFFCURVE",
"30 621 OFFCURVE",
"30 577 CURVE SMOOTH",
"30 570 OFFCURVE",
"34 566 OFFCURVE",
"41 566 CURVE",
"127 566 OFFCURVE",
"224 566 OFFCURVE",
"312 566 CURVE SMOOTH",
"338 566 OFFCURVE",
"356 562 OFFCURVE",
"368 550 CURVE SMOOTH",
"380 538 OFFCURVE",
"385 519 OFFCURVE",
"385 490 CURVE SMOOTH",
"385 416 LINE SMOOTH",
"385 358 OFFCURVE",
"362 340 OFFCURVE",
"311 340 CURVE SMOOTH",
"285 340 OFFCURVE",
"245 340 OFFCURVE",
"205 340 CURVE",
"205 201 LINE SMOOTH",
"216 205 LINE",
"247.398 205 OFFCURVE",
"280 205 OFFCURVE",
"311 205 CURVE SMOOTH",
"482 205 OFFCURVE",
"545 287 OFFCURVE",
"545 423 CURVE SMOOTH",
"545 483 LINE SMOOTH",
"545 615 OFFCURVE",
"482 700 OFFCURVE",
"311 700 CURVE SMOOTH",
"231 700 OFFCURVE",
"120.248 700 OFFCURVE",
"30 700 CURVE"
);
}
);
userData = {
com.typemytype.robofont.Image.Brightness = 0;
com.typemytype.robofont.Image.Contrast = 1;
com.typemytype.robofont.Image.Saturation = 1;
com.typemytype.robofont.Image.Sharpness = 0.4;
};
width = 600;
}
);
leftKerningGroup = E_left;
unicode = 0050;
},
{
color = (255,255,0,255);
glyphname = Q;
layers = (
{
background = {
components = (
{
name = O;
}
);
paths = (
{
closed = 1;
nodes = (
"364 78 OFFCURVE",
"349 69 OFFCURVE",
"363 46 CURVE",
"438 -77 LINE SMOOTH",
"474 -137 OFFCURVE",
"503 -160 OFFCURVE",
"578 -160 CURVE SMOOTH",
"609 -160 LINE SMOOTH",
"616 -160 OFFCURVE",
"620 -156 OFFCURVE",
"620 -149 CURVE SMOOTH",
"620 -100 OFFCURVE",
"620 -50 OFFCURVE",
"620 0 CURVE",
"615 0 LINE",
"609 0 OFFCURVE",
"606 0 OFFCURVE",
"600 0 CURVE",
"570 0 OFFCURVE",
"560 3 OFFCURVE",
"547 27 CURVE SMOOTH",
"491 127 LINE"
);
}
);
};
components = (
{
name = O;
}
);
layerId = master01;
paths = (
{
closed = 1;
nodes = (
"368 59 LINE",
"392 12 OFFCURVE",
"411 -26 OFFCURVE",
"436 -73 CURVE",
"465 -130 OFFCURVE",
"495 -155 OFFCURVE",
"567 -155 CURVE SMOOTH",
"580 -155 OFFCURVE",
"600 -155 OFFCURVE",
"609 -155 CURVE SMOOTH",
"616 -155 OFFCURVE",
"620 -151 OFFCURVE",
"620 -144 CURVE SMOOTH",
"620 -98 OFFCURVE",
"620 -46 OFFCURVE",
"620 0 CURVE",
"600 0 LINE",
"595 0 OFFCURVE",
"592 0 OFFCURVE",
"587 0 CURVE",
"573 0 OFFCURVE",
"562 2 OFFCURVE",
"552 19 CURVE SMOOTH",
"530 58 OFFCURVE",
"519 77 OFFCURVE",
"497 116 CURVE"
);
}
);
userData = {
com.arrowtype.glyphMarkStatus = check;
};
width = 650;
},
{
associatedMasterId = master01;
components = (
{
name = O;
}
);
layerId = "33DA3317-EB76-499B-976A-840A23B3B4DC";
name = foreground;
paths = (
{
closed = 1;
nodes = (
"368 59 LINE",
"392 12 OFFCURVE",
"411 -26 OFFCURVE",
"436 -73 CURVE",
"465 -130 OFFCURVE",
"495 -155 OFFCURVE",
"567 -155 CURVE SMOOTH",
"580 -155 OFFCURVE",
"600 -155 OFFCURVE",
"609 -155 CURVE SMOOTH",
"616 -155 OFFCURVE",
"620 -151 OFFCURVE",
"620 -144 CURVE SMOOTH",
"620 -98 OFFCURVE",
"620 -46 OFFCURVE",
"620 0 CURVE",
"600 0 LINE",
"595 0 OFFCURVE",
"592 0 OFFCURVE",
"587 0 CURVE",
"573 0 OFFCURVE",
"562 2 OFFCURVE",
"552 19 CURVE SMOOTH",
"530 58 OFFCURVE",
"519 77 OFFCURVE",
"497 116 CURVE"
);
}
);
userData = {
com.arrowtype.glyphMarkStatus = check;
};
width = 650;
}
);
leftKerningGroup = O_left;
rightKerningGroup = O_right;
unicode = 0051;
},
{
color = (0,0,0,64);
glyphname = R;
layers = (
{
anchors = (
{
name = bottom;
position = "{300, -1}";
},
{
name = top;
position = "{300, 711}";
}
);
layerId = master01;
paths = (
{
closed = 1;
nodes = (
"275 261 LINE",
"309 196 OFFCURVE",
"341 130 OFFCURVE",
"375 65 CURVE",
"403 10 OFFCURVE",
"435 0 OFFCURVE",
"507 0 CURVE SMOOTH",
"520 0 OFFCURVE",
"540 0 OFFCURVE",
"549 0 CURVE SMOOTH",
"556 0 OFFCURVE",
"560 4 OFFCURVE",
"560 11 CURVE SMOOTH",
"560 56 OFFCURVE",
"560 90 OFFCURVE",
"560 135 CURVE",
"540 135 LINE",
"535 135 OFFCURVE",
"532 135 OFFCURVE",
"527 135 CURVE",
"513 135 OFFCURVE",
"506 140 OFFCURVE",
"496 158 CURVE SMOOTH",
"464 216 OFFCURVE",
"439 259 OFFCURVE",
"406 318 CURVE"
);
},
{
closed = 1;
nodes = (
"30 656 OFFCURVE",
"30 620 OFFCURVE",
"30 576 CURVE SMOOTH",
"30 569 OFFCURVE",
"34 565 OFFCURVE",
"41 565 CURVE SMOOTH",
"130 565 OFFCURVE",
"221 565 OFFCURVE",
"310 565 CURVE SMOOTH",
"335 565 OFFCURVE",
"353 559 OFFCURVE",
"364 548 CURVE SMOOTH",
"375 537 OFFCURVE",
"380 521 OFFCURVE",
"380 499 CURVE SMOOTH",
"380 429 LINE SMOOTH",
"380 384 OFFCURVE",
"358 363 OFFCURVE",
"310 363 CURVE SMOOTH",
"275 363 OFFCURVE",
"240 363 OFFCURVE",
"205 363 CURVE",
"205 228 LINE",
"216 233 LINE",
"253 233 OFFCURVE",
"292 233 OFFCURVE",
"329 233 CURVE SMOOTH",
"457 233 OFFCURVE",
"535 307 OFFCURVE",
"535 431 CURVE SMOOTH",
"535 490 LINE SMOOTH",
"535 618 OFFCURVE",
"472 700 OFFCURVE",
"304 700 CURVE SMOOTH",
"213 700 OFFCURVE",
"121 700 OFFCURVE",
"30 700 CURVE"
);
},
{
closed = 1;
nodes = (
"230 28 OFFCURVE",
"230 62 OFFCURVE",
"230 98 CURVE",
"230 237 OFFCURVE",
"230 348 OFFCURVE",
"230 475 CURVE SMOOTH",
"230 510 OFFCURVE",
"230 547 OFFCURVE",
"230 586 CURVE",
"242 616 LINE",
"75 616 LINE",
"75 404 OFFCURVE",
"75 223 OFFCURVE",
"75 11 CURVE",
"75 4 OFFCURVE",
"79 0 OFFCURVE",
"86 0 CURVE SMOOTH",
"136 0 OFFCURVE",
"180 0 OFFCURVE",
"230 0 CURVE"
);
}
);
userData = {
com.typemytype.robofont.Image.Brightness = 0;
com.typemytype.robofont.Image.Contrast = 1;
com.typemytype.robofont.Image.Saturation = 1;
com.typemytype.robofont.Image.Sharpness = 0.4;
};
width = 600;
},
{
anchors = (
{
name = bottom;
position = "{300, -1}";
},
{
name = top;
position = "{300, 711}";
}
);
associatedMasterId = master01;
layerId = "48EB9C0D-C5CE-44DC-ABD1-85AD991C4365";
name = foreground;
paths = (
{
closed = 1;
nodes = (
"275 261 LINE",
"309 196 OFFCURVE",
"341 130 OFFCURVE",
"375 65 CURVE",
"403 10 OFFCURVE",
"435 0 OFFCURVE",
"507 0 CURVE SMOOTH",
"520 0 OFFCURVE",
"540 0 OFFCURVE",
"549 0 CURVE SMOOTH",
"556 0 OFFCURVE",
"560 4 OFFCURVE",
"560 11 CURVE SMOOTH",
"560 56 OFFCURVE",
"560 90 OFFCURVE",
"560 135 CURVE",
"540 135 LINE",
"535 135 OFFCURVE",
"532 135 OFFCURVE",
"527 135 CURVE",
"513 135 OFFCURVE",
"506 140 OFFCURVE",
"496 158 CURVE SMOOTH",
"464 216 OFFCURVE",
"439 259 OFFCURVE",
"406 318 CURVE"
);
},
{
closed = 1;
nodes = (
"30 656 OFFCURVE",
"30 620 OFFCURVE",
"30 576 CURVE SMOOTH",
"30 569 OFFCURVE",
"34 565 OFFCURVE",
"41 565 CURVE SMOOTH",
"130 565 OFFCURVE",
"221 565 OFFCURVE",
"310 565 CURVE SMOOTH",
"335 565 OFFCURVE",
"353 559 OFFCURVE",
"364 548 CURVE SMOOTH",
"375 537 OFFCURVE",
"380 521 OFFCURVE",
"380 499 CURVE SMOOTH",
"380 429 LINE SMOOTH",
"380 384 OFFCURVE",
"358 363 OFFCURVE",
"310 363 CURVE SMOOTH",
"275 363 OFFCURVE",
"240 363 OFFCURVE",
"205 363 CURVE",
"205 228 LINE",
"216 233 LINE",
"253 233 OFFCURVE",
"292 233 OFFCURVE",
"329 233 CURVE SMOOTH",
"457 233 OFFCURVE",
"535 307 OFFCURVE",
"535 431 CURVE SMOOTH",
"535 490 LINE SMOOTH",
"535 618 OFFCURVE",
"472 700 OFFCURVE",
"304 700 CURVE SMOOTH",
"213 700 OFFCURVE",
"121 700 OFFCURVE",
"30 700 CURVE"
);
},
{
closed = 1;
nodes = (
"230 28 OFFCURVE",
"230 62 OFFCURVE",
"230 98 CURVE",
"230 237 OFFCURVE",
"230 348 OFFCURVE",
"230 475 CURVE SMOOTH",
"230 510 OFFCURVE",
"230 547 OFFCURVE",
"230 586 CURVE",
"242 616 LINE",
"75 616 LINE",
"75 404 OFFCURVE",
"75 223 OFFCURVE",
"75 11 CURVE",
"75 4 OFFCURVE",
"79 0 OFFCURVE",
"86 0 CURVE SMOOTH",
"136 0 OFFCURVE",
"180 0 OFFCURVE",
"230 0 CURVE"
);
}
);
userData = {
com.typemytype.robofont.Image.Brightness = 0;
com.typemytype.robofont.Image.Contrast = 1;
com.typemytype.robofont.Image.Saturation = 1;
com.typemytype.robofont.Image.Sharpness = 0.4;
};
width = 600;
}
);
leftKerningGroup = E_left;
rightKerningGroup = R_right;
unicode = 0052;
},
{
color = (0,0,0,64);
glyphname = S;
layers = (
{
anchors = (
{
name = bottom;
position = "{303, -1}";
},
{
name = dot;
position = "{388, 700}";
},
{
name = top;
position = "{319, 711}";
}
);
layerId = master01;
paths = (
{
closed = 1;
nodes = (
"165 720 OFFCURVE",
"67 639 OFFCURVE",
"67 530 CURVE SMOOTH",
"67 479 LINE SMOOTH",
"67 407 OFFCURVE",
"96 342 OFFCURVE",
"230 301 CURVE SMOOTH",
"324 272 LINE SMOOTH",
"393 251 OFFCURVE",
"399 236 OFFCURVE",
"399 209 CURVE SMOOTH",
"399 172 LINE SMOOTH",
"399 144 OFFCURVE",
"369 116 OFFCURVE",
"290 116 CURVE SMOOTH",
"200 116 OFFCURVE",
"140 135 OFFCURVE",
"80 174 CURVE",
"60 174 LINE",
"60 127 OFFCURVE",
"60 89 OFFCURVE",
"60 52 CURVE",
"60 39 OFFCURVE",
"62 36 OFFCURVE",
"66 32 CURVE",
"99 -1 OFFCURVE",
"182 -20 OFFCURVE",
"279 -20 CURVE SMOOTH",
"447 -20 OFFCURVE",
"546 51 OFFCURVE",
"546 170 CURVE SMOOTH",
"546 218 LINE SMOOTH",
"546 311 OFFCURVE",
"511 361 OFFCURVE",
"386 399 CURVE SMOOTH",
"291 428 LINE SMOOTH",
"225 448 OFFCURVE",
"214 462 OFFCURVE",
"214 498 CURVE SMOOTH",
"214 519 LINE SMOOTH",
"214 567 OFFCURVE",
"250 585 OFFCURVE",
"322 585 CURVE",
"354 585 OFFCURVE",
"376 581 OFFCURVE",
"407 571 CURVE",
"379 604 LINE",
"379 562 OFFCURVE",
"379 538 OFFCURVE",
"379 516 CURVE",
"379 509 OFFCURVE",
"383 505 OFFCURVE",
"390 505 CURVE",
"433 505 OFFCURVE",
"478 505 OFFCURVE",
"521 505 CURVE",
"521 550 OFFCURVE",
"521 606 OFFCURVE",
"521 645 CURVE",
"521 653 OFFCURVE",
"520 658 OFFCURVE",
"515 663 CURVE SMOOTH",
"484 694 OFFCURVE",
"416 720 OFFCURVE",
"322 720 CURVE SMOOTH"
);
}
);
userData = {
com.typemytype.robofont.Image.Brightness = 0;
com.typemytype.robofont.Image.Contrast = 1;
com.typemytype.robofont.Image.Saturation = 1;
com.typemytype.robofont.Image.Sharpness = 0.4;
};
width = 600;
},
{
anchors = (
{
name = bottom;
position = "{303, -1}";
},
{
name = dot;
position = "{388, 700}";
},
{
name = top;
position = "{319, 711}";
}
);
associatedMasterId = master01;
layerId = "1D24429C-2414-4B3C-9B1E-8242BE161F28";
name = foreground;
paths = (
{
closed = 1;
nodes = (
"165 720 OFFCURVE",
"67 639 OFFCURVE",
"67 530 CURVE SMOOTH",
"67 479 LINE SMOOTH",
"67 407 OFFCURVE",
"96 342 OFFCURVE",
"230 301 CURVE SMOOTH",
"324 272 LINE SMOOTH",
"393 251 OFFCURVE",
"399 236 OFFCURVE",
"399 209 CURVE SMOOTH",
"399 172 LINE SMOOTH",
"399 144 OFFCURVE",
"369 116 OFFCURVE",
"290 116 CURVE SMOOTH",
"200 116 OFFCURVE",
"140 135 OFFCURVE",
"80 174 CURVE",
"60 174 LINE",
"60 127 OFFCURVE",
"60 89 OFFCURVE",
"60 52 CURVE",
"60 39 OFFCURVE",
"62 36 OFFCURVE",
"66 32 CURVE",
"99 -1 OFFCURVE",
"182 -20 OFFCURVE",
"279 -20 CURVE SMOOTH",
"447 -20 OFFCURVE",
"546 51 OFFCURVE",
"546 170 CURVE SMOOTH",
"546 218 LINE SMOOTH",
"546 311 OFFCURVE",
"511 361 OFFCURVE",
"386 399 CURVE SMOOTH",
"291 428 LINE SMOOTH",
"225 448 OFFCURVE",
"214 462 OFFCURVE",
"214 498 CURVE SMOOTH",
"214 519 LINE SMOOTH",
"214 567 OFFCURVE",
"250 585 OFFCURVE",
"322 585 CURVE",
"354 585 OFFCURVE",
"376 581 OFFCURVE",
"407 571 CURVE",
"379 604 LINE",
"379 562 OFFCURVE",
"379 538 OFFCURVE",
"379 516 CURVE",
"379 509 OFFCURVE",
"383 505 OFFCURVE",
"390 505 CURVE",
"433 505 OFFCURVE",
"478 505 OFFCURVE",
"521 505 CURVE",
"521 550 OFFCURVE",
"521 606 OFFCURVE",
"521 645 CURVE",
"521 653 OFFCURVE",
"520 658 OFFCURVE",
"515 663 CURVE SMOOTH",
"484 694 OFFCURVE",
"416 720 OFFCURVE",
"322 720 CURVE SMOOTH"
);
}
);
userData = {
com.typemytype.robofont.Image.Brightness = 0;
com.typemytype.robofont.Image.Contrast = 1;
com.typemytype.robofont.Image.Saturation = 1;
com.typemytype.robofont.Image.Sharpness = 0.4;
};
width = 600;
}
);
leftKerningGroup = S_left;
rightKerningGroup = S_right;
unicode = 0053;
},
{
color = (0,0,0,64);
glyphname = T;
layers = (
{
anchors = (
{
name = bottom;
position = "{300, -1}";
},
{
name = top;
position = "{300, 711}";
}
);
layerId = master01;
paths = (
{
closed = 1;
nodes = (
"50 654 OFFCURVE",
"50 622 OFFCURVE",
"50 576 CURVE SMOOTH",
"50 569 OFFCURVE",
"54 565 OFFCURVE",
"61 565 CURVE",
"550 565 LINE",
"550 611 OFFCURVE",
"550 643 OFFCURVE",
"550 689 CURVE",
"550 696 OFFCURVE",
"546 700 OFFCURVE",
"539 700 CURVE",
"50 700 LINE"
);
},
{
closed = 1;
nodes = (
"380 28 OFFCURVE",
"380 62 OFFCURVE",
"380 98 CURVE",
"380 237 OFFCURVE",
"380 348 OFFCURVE",
"380 475 CURVE SMOOTH",
"380 510 OFFCURVE",
"380 554 OFFCURVE",
"380 593 CURVE",
"392 623 LINE",
"220 623 LINE",
"220 411 OFFCURVE",
"220 223 OFFCURVE",
"220 11 CURVE",
"220 4 OFFCURVE",
"224 0 OFFCURVE",
"231 0 CURVE SMOOTH",
"281 0 OFFCURVE",
"330 0 OFFCURVE",
"380 0 CURVE"
);
}
);
width = 600;
},
{
anchors = (
{
name = bottom;
position = "{300, -1}";
},
{
name = top;
position = "{300, 711}";
}
);
associatedMasterId = master01;
layerId = "63FD0C99-7041-44A9-A823-8DEC0EE0518F";
name = foreground;
paths = (
{
closed = 1;
nodes = (
"50 654 OFFCURVE",
"50 622 OFFCURVE",
"50 576 CURVE SMOOTH",
"50 569 OFFCURVE",
"54 565 OFFCURVE",
"61 565 CURVE",
"550 565 LINE",
"550 611 OFFCURVE",
"550 643 OFFCURVE",
"550 689 CURVE",
"550 696 OFFCURVE",
"546 700 OFFCURVE",
"539 700 CURVE",
"50 700 LINE"
);
},
{
closed = 1;
nodes = (
"380 28 OFFCURVE",
"380 62 OFFCURVE",
"380 98 CURVE",
"380 237 OFFCURVE",
"380 348 OFFCURVE",
"380 475 CURVE SMOOTH",
"380 510 OFFCURVE",
"380 554 OFFCURVE",
"380 593 CURVE",
"392 623 LINE",
"220 623 LINE",
"220 411 OFFCURVE",
"220 223 OFFCURVE",
"220 11 CURVE",
"220 4 OFFCURVE",
"224 0 OFFCURVE",
"231 0 CURVE SMOOTH",
"281 0 OFFCURVE",
"330 0 OFFCURVE",
"380 0 CURVE"
);
}
);
width = 600;
}
);
leftKerningGroup = T_left;
rightKerningGroup = T_right;
unicode = 0054;
},
{
color = (255,255,0,255);
glyphname = U;
layers = (
{
anchors = (
{
name = bottom;
position = "{325, -1}";
},
{
name = hook;
position = "{325, 730}";
},
{
name = horn;
position = "{522, 700}";
},
{
name = ogonek;
position = "{581, 0}";
},
{
name = ring;
position = "{325, 711}";
},
{
name = tildeviet;
position = "{292, 714}";
},
{
name = top;
position = "{325, 711}";
}
);
background = {
anchors = (
{
name = bottom;
position = "{325, -1}";
},
{
name = ogonek;
position = "{581, 0}";
},
{
name = ring;
position = "{325, 711}";
},
{
name = top;
position = "{325, 711}";
}
);
paths = (
{
closed = 1;
nodes = (
"70 667 OFFCURVE",
"70 633 OFFCURVE",
"70 600 CURVE SMOOTH",
"70 178 LINE",
"70 106.6 OFFCURVE",
"131 108 OFFCURVE",
"230 108 CURVE",
"230 141.495 OFFCURVE",
"230 156.443 OFFCURVE",
"230 197 CURVE SMOOTH",
"230 689 LINE SMOOTH",
"230 695 OFFCURVE",
"225 700 OFFCURVE",
"219 700 CURVE SMOOTH",
"169 700 OFFCURVE",
"120 700 OFFCURVE",
"70 700 CURVE"
);
},
{
closed = 1;
nodes = (
"312 -10 OFFCURVE",
"363 24 OFFCURVE",
"433 104 CURVE SMOOTH",
"464 140 OFFCURVE",
"463 198 OFFCURVE",
"442 234 CURVE",
"381 172 OFFCURVE",
"329 142 OFFCURVE",
"279 142 CURVE SMOOTH",
"240 142 OFFCURVE",
"230 156.667 OFFCURVE",
"230 197 CURVE",
"130 197 OFFCURVE",
"70 185.795 OFFCURVE",
"70 178 CURVE SMOOTH",
"70 64.976 OFFCURVE",
"123 -10 OFFCURVE",
"235 -10 CURVE SMOOTH"
);
},
{
closed = 1;
nodes = (
"580 32 OFFCURVE",
"580 70 OFFCURVE",
"580 110 CURVE SMOOTH",
"580 689 LINE SMOOTH",
"580 695 OFFCURVE",
"575 700 OFFCURVE",
"569 700 CURVE SMOOTH",
"519 700 OFFCURVE",
"470 700 OFFCURVE",
"420 700 CURVE",
"420 11 LINE SMOOTH",
"420 8 OFFCURVE",
"421 5 OFFCURVE",
"423 3 CURVE SMOOTH",
"425 1 OFFCURVE",
"428 0 OFFCURVE",
"431 0 CURVE SMOOTH",
"481 0 OFFCURVE",
"530 0 OFFCURVE",
"580 0 CURVE"
);
}
);
};
layerId = master01;
paths = (
{
closed = 1;
nodes = (
"580 32 OFFCURVE",
"580 70 OFFCURVE",
"580 110 CURVE",
"580 303 OFFCURVE",
"580 496 OFFCURVE",
"580 689 CURVE",
"580 695 OFFCURVE",
"575 700 OFFCURVE",
"569 700 CURVE SMOOTH",
"519 700 OFFCURVE",
"470 700 OFFCURVE",
"420 700 CURVE",
"420 471 OFFCURVE",
"420 240 OFFCURVE",
"420 11 CURVE SMOOTH",
"420 4 OFFCURVE",
"424 0 OFFCURVE",
"431 0 CURVE SMOOTH",
"481 0 OFFCURVE",
"530 0 OFFCURVE",
"580 0 CURVE"
);
},
{
closed = 1;
nodes = (
"310 -10 OFFCURVE",
"364 25 OFFCURVE",
"400 91 CURVE",
"442 91 LINE",
"442 233 LINE",
"393 164 OFFCURVE",
"343 130 OFFCURVE",
"283 130 CURVE SMOOTH",
"243 130 OFFCURVE",
"230 144 OFFCURVE",
"230 184 CURVE SMOOTH",
"230 338 OFFCURVE",
"230 523 OFFCURVE",
"230 689 CURVE SMOOTH",
"230 696 OFFCURVE",
"226 700 OFFCURVE",
"219 700 CURVE SMOOTH",
"169 700 OFFCURVE",
"120 700 OFFCURVE",
"70 700 CURVE",
"70 667 OFFCURVE",
"70 633 OFFCURVE",
"70 600 CURVE SMOOTH",
"70 453 OFFCURVE",
"70 305 OFFCURVE",
"70 174 CURVE SMOOTH",
"70 55 OFFCURVE",
"118 -10 OFFCURVE",
"232 -10 CURVE SMOOTH"
);
}
);
userData = {
com.arrowtype.glyphMarkStatus = check;
com.typemytype.robofont.Image.Brightness = 0;
com.typemytype.robofont.Image.Contrast = 1;
com.typemytype.robofont.Image.Saturation = 1;
com.typemytype.robofont.Image.Sharpness = 0.4;
com.typemytype.robofont.guideline.magnetic.0CwkVtpOtC = 10;
com.typemytype.robofont.guideline.magnetic.0wSe36O6sk = 10;
com.typemytype.robofont.guideline.magnetic.2e4XIx09Q2 = 10;
com.typemytype.robofont.guideline.magnetic.3IRz04HeOh = 10;
com.typemytype.robofont.guideline.magnetic.4IOiKbs8mh = 10;
com.typemytype.robofont.guideline.magnetic.4UlNsFxbrc = 10;
com.typemytype.robofont.guideline.magnetic.5H9Lk8tE4K = 10;
com.typemytype.robofont.guideline.magnetic.76n86iLW2g = 10;
com.typemytype.robofont.guideline.magnetic.CMGITW5JoJ = 10;
com.typemytype.robofont.guideline.magnetic.HMsmzniCvN = 10;
com.typemytype.robofont.guideline.magnetic.Hc0R2YPlcy = 10;
com.typemytype.robofont.guideline.magnetic.M8QZLohOVE = 10;
com.typemytype.robofont.guideline.magnetic.Of2SjMuT3n = 10;
com.typemytype.robofont.guideline.magnetic.RRhuo3WKJX = 10;
com.typemytype.robofont.guideline.magnetic.TY2ndgsmjj = 10;
com.typemytype.robofont.guideline.magnetic.Xqt7hMVSrV = 10;
com.typemytype.robofont.guideline.magnetic.YIiGNTFfWA = 10;
com.typemytype.robofont.guideline.magnetic.YnnoB3nETr = 10;
com.typemytype.robofont.guideline.magnetic.Z3dITdenAS = 10;
com.typemytype.robofont.guideline.magnetic.dh1Igwg8gh = 10;
com.typemytype.robofont.guideline.magnetic.eUL97rpiE6 = 10;
com.typemytype.robofont.guideline.magnetic.enzicO8jBK = 10;
com.typemytype.robofont.guideline.magnetic.fDDmIpE0rm = 10;
com.typemytype.robofont.guideline.magnetic.feflGiepGQ = 10;
com.typemytype.robofont.guideline.magnetic.lNF0sdThds = 10;
com.typemytype.robofont.guideline.magnetic.o9uZv05fAd = 10;
com.typemytype.robofont.guideline.magnetic.oaY87qspKF = 10;
com.typemytype.robofont.guideline.magnetic.tCrtdjjdgb = 10;
com.typemytype.robofont.guideline.magnetic.u779Xb6q2C = 10;
com.typemytype.robofont.guideline.magnetic.xPoRQlqi2I = 10;
com.typemytype.robofont.guideline.magnetic.xqEWdED1KK = 10;
com.typemytype.robofont.guideline.magnetic.yLSlJUnPRN = 10;
com.typemytype.robofont.guideline.magnetic.ymJOFSoXkr = 10;
com.typemytype.robofont.guideline.magnetic.zhRZU3bAEr = 10;
};
width = 650;
},
{
anchors = (
{
name = bottom;
position = "{325, -1}";
},
{
name = hook;
position = "{325, 730}";
},
{
name = horn;
position = "{522, 700}";
},
{
name = ogonek;
position = "{581, 0}";
},
{
name = ring;
position = "{325, 711}";
},
{
name = tildeviet;
position = "{292, 714}";
},
{
name = top;
position = "{325, 711}";
}
);
associatedMasterId = master01;
layerId = "7C461F09-A5DC-4E64-93D9-47BAEA975E66";
name = foreground;
paths = (
{
closed = 1;
nodes = (
"580 32 OFFCURVE",
"580 70 OFFCURVE",
"580 110 CURVE",
"580 303 OFFCURVE",
"580 496 OFFCURVE",
"580 689 CURVE",
"580 695 OFFCURVE",
"575 700 OFFCURVE",
"569 700 CURVE SMOOTH",
"519 700 OFFCURVE",
"470 700 OFFCURVE",
"420 700 CURVE",
"420 471 OFFCURVE",
"420 240 OFFCURVE",
"420 11 CURVE SMOOTH",
"420 4 OFFCURVE",
"424 0 OFFCURVE",
"431 0 CURVE SMOOTH",
"481 0 OFFCURVE",
"530 0 OFFCURVE",
"580 0 CURVE"
);
},
{
closed = 1;
nodes = (
"310 -10 OFFCURVE",
"364 25 OFFCURVE",
"400 91 CURVE",
"442 91 LINE",
"442 233 LINE",
"393 164 OFFCURVE",
"343 130 OFFCURVE",
"283 130 CURVE SMOOTH",
"243 130 OFFCURVE",
"230 144 OFFCURVE",
"230 184 CURVE SMOOTH",
"230 338 OFFCURVE",
"230 523 OFFCURVE",
"230 689 CURVE SMOOTH",
"230 696 OFFCURVE",
"226 700 OFFCURVE",
"219 700 CURVE SMOOTH",
"169 700 OFFCURVE",
"120 700 OFFCURVE",
"70 700 CURVE",
"70 667 OFFCURVE",
"70 633 OFFCURVE",
"70 600 CURVE SMOOTH",
"70 453 OFFCURVE",
"70 305 OFFCURVE",
"70 174 CURVE SMOOTH",
"70 55 OFFCURVE",
"118 -10 OFFCURVE",
"232 -10 CURVE SMOOTH"
);
}
);
userData = {
com.arrowtype.glyphMarkStatus = check;
com.typemytype.robofont.Image.Brightness = 0;
com.typemytype.robofont.Image.Contrast = 1;
com.typemytype.robofont.Image.Saturation = 1;
com.typemytype.robofont.Image.Sharpness = 0.4;
com.typemytype.robofont.guideline.magnetic.0CwkVtpOtC = 10;
com.typemytype.robofont.guideline.magnetic.0wSe36O6sk = 10;
com.typemytype.robofont.guideline.magnetic.2e4XIx09Q2 = 10;
com.typemytype.robofont.guideline.magnetic.3IRz04HeOh = 10;
com.typemytype.robofont.guideline.magnetic.4IOiKbs8mh = 10;
com.typemytype.robofont.guideline.magnetic.4UlNsFxbrc = 10;
com.typemytype.robofont.guideline.magnetic.5H9Lk8tE4K = 10;
com.typemytype.robofont.guideline.magnetic.76n86iLW2g = 10;
com.typemytype.robofont.guideline.magnetic.CMGITW5JoJ = 10;
com.typemytype.robofont.guideline.magnetic.HMsmzniCvN = 10;
com.typemytype.robofont.guideline.magnetic.Hc0R2YPlcy = 10;
com.typemytype.robofont.guideline.magnetic.M8QZLohOVE = 10;
com.typemytype.robofont.guideline.magnetic.Of2SjMuT3n = 10;
com.typemytype.robofont.guideline.magnetic.RRhuo3WKJX = 10;
com.typemytype.robofont.guideline.magnetic.TY2ndgsmjj = 10;
com.typemytype.robofont.guideline.magnetic.Xqt7hMVSrV = 10;
com.typemytype.robofont.guideline.magnetic.YIiGNTFfWA = 10;
com.typemytype.robofont.guideline.magnetic.YnnoB3nETr = 10;
com.typemytype.robofont.guideline.magnetic.Z3dITdenAS = 10;
com.typemytype.robofont.guideline.magnetic.dh1Igwg8gh = 10;
com.typemytype.robofont.guideline.magnetic.eUL97rpiE6 = 10;
com.typemytype.robofont.guideline.magnetic.enzicO8jBK = 10;
com.typemytype.robofont.guideline.magnetic.fDDmIpE0rm = 10;
com.typemytype.robofont.guideline.magnetic.feflGiepGQ = 10;
com.typemytype.robofont.guideline.magnetic.lNF0sdThds = 10;
com.typemytype.robofont.guideline.magnetic.o9uZv05fAd = 10;
com.typemytype.robofont.guideline.magnetic.oaY87qspKF = 10;
com.typemytype.robofont.guideline.magnetic.tCrtdjjdgb = 10;
com.typemytype.robofont.guideline.magnetic.u779Xb6q2C = 10;
com.typemytype.robofont.guideline.magnetic.xPoRQlqi2I = 10;
com.typemytype.robofont.guideline.magnetic.xqEWdED1KK = 10;
com.typemytype.robofont.guideline.magnetic.yLSlJUnPRN = 10;
com.typemytype.robofont.guideline.magnetic.ymJOFSoXkr = 10;
com.typemytype.robofont.guideline.magnetic.zhRZU3bAEr = 10;
};
width = 650;
},
{
associatedMasterId = master01;
layerId = "46EA6F91-7D66-45B8-ABE5-551A37271BB8";
name = "45degrees";
userData = {
com.rafalbuchner.mirroringDrawingLocal = {
mirroringOptions = 3;
offset = (
0,
0
);
};
};
width = 600;
},
{
associatedMasterId = master01;
layerId = "4BE37908-6EC2-4D67-9730-0AB1E6E28455";
name = background2;
paths = (
{
closed = 1;
nodes = (
"318 -10 OFFCURVE",
"363 21 OFFCURVE",
"400 86 CURVE",
"442 86 LINE",
"442 213 LINE",
"393 156 OFFCURVE",
"346 130 OFFCURVE",
"301 130 CURVE SMOOTH",
"273 130 OFFCURVE",
"260 144 OFFCURVE",
"260 172 CURVE SMOOTH",
"260 338 OFFCURVE",
"260 523 OFFCURVE",
"260 689 CURVE SMOOTH",
"260 696 OFFCURVE",
"256 700 OFFCURVE",
"249 700 CURVE SMOOTH",
"199 700 OFFCURVE",
"150 700 OFFCURVE",
"100 700 CURVE",
"100 667 OFFCURVE",
"100 633 OFFCURVE",
"100 600 CURVE SMOOTH",
"100 453 OFFCURVE",
"100 305 OFFCURVE",
"100 158 CURVE SMOOTH",
"100 55 OFFCURVE",
"148 -10 OFFCURVE",
"245 -10 CURVE SMOOTH"
);
}
);
userData = {
com.rafalbuchner.mirroringDrawingLocal = {
mirroringOptions = 3;
offset = (
0,
0
);
};
};
width = 650;
}
);
leftKerningGroup = U_left;
rightKerningGroup = H_right;
unicode = 0055;
},
{
color = (255,255,0,255);
glyphname = V;
layers = (
{
background = {
paths = (
{
closed = 1;
nodes = (
"185 700 OFFCURVE",
"176 700 CURVE SMOOTH",
"35 700 LINE",
"89 472 OFFCURVE",
"142 243 OFFCURVE",
"196 15 CURVE SMOOTH",
"198 5 OFFCURVE",
"207 0 OFFCURVE",
"217 0 CURVE SMOOTH",
"282 0 OFFCURVE",
"386 28 OFFCURVE",
"386 136 CURVE",
"359 136 OFFCURVE",
"344 136 OFFCURVE",
"321 136 CURVE SMOOTH",
"315 136 OFFCURVE",
"313 138 OFFCURVE",
"312 145 CURVE",
"272 324 OFFCURVE",
"233 504 OFFCURVE",
"193 683 CURVE SMOOTH",
"191 694 OFFCURVE"
);
},
{
closed = 1;
nodes = (
"609 700 OFFCURVE",
"598 700 CURVE SMOOTH",
"461 700 LINE",
"417 500 OFFCURVE",
"372 298 OFFCURVE",
"328 98 CURVE",
"316 32 OFFCURVE",
"269 11 OFFCURVE",
"217 0 CURVE",
"450 0 LINE",
"504 227 OFFCURVE",
"557 454 OFFCURVE",
"611 681 CURVE SMOOTH",
"613 691 OFFCURVE"
);
}
);
};
layerId = master01;
paths = (
{
closed = 1;
nodes = (
"134 700 OFFCURVE",
"83 700 OFFCURVE",
"35 700 CURVE",
"46 647 OFFCURVE",
"60 596 OFFCURVE",
"71 547 CURVE SMOOTH",
"120 335 OFFCURVE",
"164 152 OFFCURVE",
"194 24 CURVE SMOOTH",
"199 4 OFFCURVE",
"202 0 OFFCURVE",
"217 0 CURVE SMOOTH",
"280 0 OFFCURVE",
"366 0 OFFCURVE",
"450 0 CURVE",
"475 104 OFFCURVE",
"594 601 OFFCURVE",
"615 687 CURVE SMOOTH",
"617 697 OFFCURVE",
"611 700 OFFCURVE",
"607 700 CURVE SMOOTH",
"560 700 OFFCURVE",
"512 700 OFFCURVE",
"465 700 CURVE",
"383 349 OFFCURVE",
"353 223 OFFCURVE",
"330 95 CURVE",
"365 120 LINE",
"285 120 LINE",
"319 95 LINE",
"296 223 OFFCURVE",
"269 349 OFFCURVE",
"198 672 CURVE SMOOTH",
"192 697 OFFCURVE",
"188 700 OFFCURVE",
"178 700 CURVE SMOOTH"
);
}
);
userData = {
com.arrowtype.glyphMarkStatus = check;
};
width = 650;
},
{
associatedMasterId = master01;
layerId = "674FD2A8-8283-42AB-ADFB-0D1B8F340A19";
name = foreground;
paths = (
{
closed = 1;
nodes = (
"134 700 OFFCURVE",
"83 700 OFFCURVE",
"35 700 CURVE",
"46 647 OFFCURVE",
"60 596 OFFCURVE",
"71 547 CURVE SMOOTH",
"120 335 OFFCURVE",
"164 152 OFFCURVE",
"194 24 CURVE SMOOTH",
"199 4 OFFCURVE",
"202 0 OFFCURVE",
"217 0 CURVE SMOOTH",
"280 0 OFFCURVE",
"366 0 OFFCURVE",
"450 0 CURVE",
"475 104 OFFCURVE",
"594 601 OFFCURVE",
"615 687 CURVE SMOOTH",
"617 697 OFFCURVE",
"611 700 OFFCURVE",
"607 700 CURVE SMOOTH",
"560 700 OFFCURVE",
"512 700 OFFCURVE",
"465 700 CURVE",
"383 349 OFFCURVE",
"353 223 OFFCURVE",
"330 95 CURVE",
"365 120 LINE",
"285 120 LINE",
"319 95 LINE",
"296 223 OFFCURVE",
"269 349 OFFCURVE",
"198 672 CURVE SMOOTH",
"192 697 OFFCURVE",
"188 700 OFFCURVE",
"178 700 CURVE SMOOTH"
);
}
);
userData = {
com.arrowtype.glyphMarkStatus = check;
};
width = 650;
}
);
unicode = 0056;
},
{
color = (255,255,0,255);
glyphname = W;
layers = (
{
anchors = (
{
name = top;
position = "{449, 711}";
}
);
background = {
anchors = (
{
name = top;
position = "{449, 711}";
}
);
guideLines = (
{
angle = 90;
position = "{0, 0}";
},
{
angle = 90;
position = "{50, 0}";
},
{
angle = 90;
position = "{100, 0}";
},
{
angle = 90;
position = "{150, 0}";
},
{
angle = 90;
position = "{200, 0}";
},
{
angle = 90;
position = "{250, 0}";
},
{
angle = 90;
position = "{300, 0}";
},
{
angle = 90;
position = "{350, 0}";
},
{
angle = 90;
position = "{400, 0}";
},
{
angle = 90;
position = "{450, 0}";
},
{
angle = 90;
position = "{500, 0}";
},
{
angle = 90;
position = "{550, 0}";
},
{
angle = 90;
position = "{600, 0}";
},
{
angle = 90;
position = "{650, 0}";
},
{
angle = 90;
position = "{700, 0}";
},
{
angle = 90;
position = "{750, 0}";
},
{
angle = 90;
position = "{800, 0}";
},
{
angle = 90;
position = "{850, 0}";
},
{
angle = 90;
position = "{900, 0}";
},
{
position = "{0, -250}";
},
{
position = "{0, -200}";
},
{
position = "{0, -150}";
},
{
position = "{0, -100}";
},
{
position = "{0, -50}";
},
{
position = "{0, 0}";
},
{
position = "{0, 50}";
},
{
position = "{0, 100}";
},
{
position = "{0, 150}";
},
{
position = "{0, 200}";
},
{
position = "{0, 250}";
},
{
position = "{0, 300}";
},
{
position = "{0, 350}";
},
{
position = "{0, 400}";
},
{
position = "{0, 450}";
},
{
position = "{0, 500}";
},
{
position = "{0, 550}";
},
{
position = "{0, 600}";
},
{
position = "{0, 650}";
},
{
position = "{0, 700}";
}
);
paths = (
{
closed = 1;
nodes = (
"67 472 OFFCURVE",
"108 243 OFFCURVE",
"149 15 CURVE",
"150 5 OFFCURVE",
"160 0 OFFCURVE",
"170 0 CURVE",
"193 0 LINE SMOOTH",
"224.329 0 OFFCURVE",
"280 20 OFFCURVE",
"292 35 CURVE",
"257 250 OFFCURVE",
"222 467 OFFCURVE",
"187 682 CURVE",
"186 692 OFFCURVE",
"185 695 OFFCURVE",
"183 697 CURVE SMOOTH",
"181 699 OFFCURVE",
"178 700 OFFCURVE",
"174 700 CURVE",
"124.281 700 OFFCURVE",
"76 700 OFFCURVE",
"26 700 CURVE"
);
},
{
closed = 1;
nodes = (
"683 501 OFFCURVE",
"650 300 OFFCURVE",
"618 101 CURVE",
"612 39 OFFCURVE",
"606.491 11.857 OFFCURVE",
"585 0 CURVE",
"749 0 LINE",
"790 229 OFFCURVE",
"831 458 OFFCURVE",
"872 687 CURVE",
"873 693 OFFCURVE",
"872 695 OFFCURVE",
"870 697 CURVE SMOOTH",
"868 699 OFFCURVE",
"867 700 OFFCURVE",
"863 700 CURVE",
"813.281 700 OFFCURVE",
"765 700 OFFCURVE",
"715 700 CURVE"
);
},
{
closed = 1;
nodes = (
"375 624 LINE",
"333 450 OFFCURVE",
"291 275 OFFCURVE",
"249 101 CURVE",
"233 33 OFFCURVE",
"202 14 OFFCURVE",
"170 0 CURVE",
"355 0 LINE",
"403 201 OFFCURVE",
"451 404 OFFCURVE",
"499 605 CURVE SMOOTH",
"502 616 OFFCURVE",
"497 624 OFFCURVE",
"486 624 CURVE SMOOTH"
);
},
{
closed = 1;
nodes = (
"394 624 LINE",
"443 421 OFFCURVE",
"493 218 OFFCURVE",
"542 15 CURVE SMOOTH",
"544 5 OFFCURVE",
"553 0 OFFCURVE",
"563 0 CURVE SMOOTH",
"633 0 LINE",
"645 0 OFFCURVE",
"673 10 OFFCURVE",
"669 24 CURVE",
"621 220 OFFCURVE",
"574 417 OFFCURVE",
"526 613 CURVE SMOOTH",
"524 620 OFFCURVE",
"518 624 OFFCURVE",
"512 624 CURVE SMOOTH"
);
}
);
};
layerId = master01;
paths = (
{
closed = 1;
nodes = (
"31 670 OFFCURVE",
"38 636 OFFCURVE",
"44 600 CURVE SMOOTH",
"86 362 OFFCURVE",
"127 138 OFFCURVE",
"147 23 CURVE SMOOTH",
"150 4 OFFCURVE",
"154 0 OFFCURVE",
"169 0 CURVE SMOOTH",
"211 0 OFFCURVE",
"303 0 OFFCURVE",
"357 0 CURVE",
"364 31 OFFCURVE",
"414 232 OFFCURVE",
"443 440 CURVE",
"415 415 LINE",
"484 415 LINE",
"456 440 LINE",
"485 233 OFFCURVE",
"507 153 OFFCURVE",
"540 23 CURVE SMOOTH",
"545 4 OFFCURVE",
"548 0 OFFCURVE",
"562 0 CURVE SMOOTH",
"603 0 OFFCURVE",
"698 0 OFFCURVE",
"750 0 CURVE",
"791 229 OFFCURVE",
"865 633 OFFCURVE",
"875 685 CURVE SMOOTH",
"877 695 OFFCURVE",
"872 700 OFFCURVE",
"864 700 CURVE SMOOTH",
"821 700 OFFCURVE",
"759 700 OFFCURVE",
"716 700 CURVE",
"686 522 OFFCURVE",
"674 453 OFFCURVE",
"645 167 CURVE",
"671 175 LINE",
"604 175 LINE",
"627 167 LINE",
"606 309 OFFCURVE",
"566 452 OFFCURVE",
"527 613 CURVE SMOOTH",
"525 620 OFFCURVE",
"521 624 OFFCURVE",
"515 624 CURVE SMOOTH",
"373 624 LINE",
"336 460 OFFCURVE",
"300 309 OFFCURVE",
"278 167 CURVE",
"299 175 LINE",
"232 175 LINE",
"260 167 LINE",
"234 433 OFFCURVE",
"197 610 OFFCURVE",
"185 686 CURVE SMOOTH",
"184 695 OFFCURVE",
"179 700 OFFCURVE",
"171 700 CURVE SMOOTH",
"128 700 OFFCURVE",
"68 700 OFFCURVE",
"25 700 CURVE"
);
}
);
userData = {
com.arrowtype.glyphMarkStatus = check;
com.typemytype.robofont.Image.Brightness = 0;
com.typemytype.robofont.Image.Contrast = 1;
com.typemytype.robofont.Image.Saturation = 1;
com.typemytype.robofont.Image.Sharpness = 0.4;
};
width = 900;
},
{
anchors = (
{
name = top;
position = "{449, 711}";
}
);
associatedMasterId = master01;
layerId = "4D84125C-D5EC-4496-BB4C-128AFDC22CC1";
name = foreground;
paths = (
{
closed = 1;
nodes = (
"31 670 OFFCURVE",
"38 636 OFFCURVE",
"44 600 CURVE SMOOTH",
"86 362 OFFCURVE",
"127 138 OFFCURVE",
"147 23 CURVE SMOOTH",
"150 4 OFFCURVE",
"154 0 OFFCURVE",
"169 0 CURVE SMOOTH",
"211 0 OFFCURVE",
"303 0 OFFCURVE",
"357 0 CURVE",
"364 31 OFFCURVE",
"414 232 OFFCURVE",
"443 440 CURVE",
"415 415 LINE",
"484 415 LINE",
"456 440 LINE",
"485 233 OFFCURVE",
"507 153 OFFCURVE",
"540 23 CURVE SMOOTH",
"545 4 OFFCURVE",
"548 0 OFFCURVE",
"562 0 CURVE SMOOTH",
"603 0 OFFCURVE",
"698 0 OFFCURVE",
"750 0 CURVE",
"791 229 OFFCURVE",
"865 633 OFFCURVE",
"875 685 CURVE SMOOTH",
"877 695 OFFCURVE",
"872 700 OFFCURVE",
"864 700 CURVE SMOOTH",
"821 700 OFFCURVE",
"759 700 OFFCURVE",
"716 700 CURVE",
"686 522 OFFCURVE",
"674 453 OFFCURVE",
"645 167 CURVE",
"671 175 LINE",
"604 175 LINE",
"627 167 LINE",
"606 309 OFFCURVE",
"566 452 OFFCURVE",
"527 613 CURVE SMOOTH",
"525 620 OFFCURVE",
"521 624 OFFCURVE",
"515 624 CURVE SMOOTH",
"373 624 LINE",
"336 460 OFFCURVE",
"300 309 OFFCURVE",
"278 167 CURVE",
"299 175 LINE",
"232 175 LINE",
"260 167 LINE",
"234 433 OFFCURVE",
"197 610 OFFCURVE",
"185 686 CURVE SMOOTH",
"184 695 OFFCURVE",
"179 700 OFFCURVE",
"171 700 CURVE SMOOTH",
"128 700 OFFCURVE",
"68 700 OFFCURVE",
"25 700 CURVE"
);
}
);
userData = {
com.arrowtype.glyphMarkStatus = check;
com.typemytype.robofont.Image.Brightness = 0;
com.typemytype.robofont.Image.Contrast = 1;
com.typemytype.robofont.Image.Saturation = 1;
com.typemytype.robofont.Image.Sharpness = 0.4;
};
width = 900;
}
);
leftKerningGroup = W_left;
rightKerningGroup = W_right;
unicode = 0057;
},
{
color = (255,255,0,255);
glyphname = X;
layers = (
{
background = {
guideLines = (
{
angle = 90;
position = "{0, 0}";
},
{
angle = 90;
position = "{50, 0}";
},
{
angle = 90;
position = "{100, 0}";
},
{
angle = 90;
position = "{150, 0}";
},
{
angle = 90;
position = "{200, 0}";
},
{
angle = 90;
position = "{250, 0}";
},
{
angle = 90;
position = "{300, 0}";
},
{
angle = 90;
position = "{350, 0}";
},
{
angle = 90;
position = "{400, 0}";
},
{
angle = 90;
position = "{450, 0}";
},
{
angle = 90;
position = "{500, 0}";
},
{
angle = 90;
position = "{550, 0}";
},
{
angle = 90;
position = "{600, 0}";
},
{
angle = 90;
position = "{650, 0}";
},
{
position = "{0, -250}";
},
{
position = "{0, -200}";
},
{
position = "{0, -150}";
},
{
position = "{0, -100}";
},
{
position = "{0, -50}";
},
{
position = "{0, 0}";
},
{
position = "{0, 50}";
},
{
position = "{0, 100}";
},
{
position = "{0, 150}";
},
{
position = "{0, 200}";
},
{
position = "{0, 250}";
},
{
position = "{0, 300}";
},
{
position = "{0, 350}";
},
{
position = "{0, 400}";
},
{
position = "{0, 450}";
},
{
position = "{0, 500}";
},
{
position = "{0, 550}";
},
{
position = "{0, 600}";
},
{
position = "{0, 650}";
},
{
position = "{0, 700}";
}
);
paths = (
{
closed = 1;
nodes = (
"522 0 OFFCURVE",
"586 0 OFFCURVE",
"637 0 CURVE",
"557 128 OFFCURVE",
"476 257 OFFCURVE",
"396 385 CURVE SMOOTH",
"381 410 OFFCURVE",
"363 419 OFFCURVE",
"350 441 CURVE SMOOTH",
"301 525 OFFCURVE",
"253 607 OFFCURVE",
"204 690 CURVE SMOOTH",
"200 697 OFFCURVE",
"194 700 OFFCURVE",
"185 700 CURVE SMOOTH",
"23 700 LINE",
"98 573 OFFCURVE",
"173 446 OFFCURVE",
"248 319 CURVE SMOOTH",
"261 296 OFFCURVE",
"284 283 OFFCURVE",
"298 260 CURVE SMOOTH",
"349 177 OFFCURVE",
"402 92 OFFCURVE",
"453 10 CURVE SMOOTH",
"458 2 OFFCURVE",
"464 0 OFFCURVE",
"472 0 CURVE SMOOTH"
);
},
{
closed = 1;
nodes = (
"463 700 LINE",
"403 595 OFFCURVE",
"344 489 OFFCURVE",
"284 384 CURVE",
"275 368 OFFCURVE",
"285 355 OFFCURVE",
"393 305 CURVE",
"469 430 OFFCURVE",
"544 555 OFFCURVE",
"620 681 CURVE SMOOTH",
"624 688 OFFCURVE",
"624 693 OFFCURVE",
"620 697 CURVE SMOOTH",
"618 699 OFFCURVE",
"615 700 OFFCURVE",
"611 700 CURVE"
);
},
{
closed = 1;
nodes = (
"186 0 LINE",
"248 106 OFFCURVE",
"310 211 OFFCURVE",
"370 317 CURVE SMOOTH",
"378 331 OFFCURVE",
"366 346 OFFCURVE",
"261 395 CURVE",
"183 270 OFFCURVE",
"104 144 OFFCURVE",
"26 19 CURVE SMOOTH",
"22 13 OFFCURVE",
"22 7 OFFCURVE",
"26 3 CURVE SMOOTH",
"28 1 OFFCURVE",
"31 0 OFFCURVE",
"35 0 CURVE SMOOTH"
);
}
);
};
layerId = master01;
paths = (
{
closed = 1;
nodes = (
"476 0 OFFCURVE",
"531 0 OFFCURVE",
"583 0 CURVE",
"515 128 OFFCURVE",
"448 257 OFFCURVE",
"380 385 CURVE",
"313 437 LINE",
"272 524 OFFCURVE",
"232 607 OFFCURVE",
"195 689 CURVE",
"191 696 OFFCURVE",
"187 700 OFFCURVE",
"177 700 CURVE SMOOTH",
"123 701 OFFCURVE",
"75 700 OFFCURVE",
"21 700 CURVE",
"88 573 OFFCURVE",
"155 446 OFFCURVE",
"222 319 CURVE",
"294 259 LINE",
"333 175 OFFCURVE",
"385 61 OFFCURVE",
"410 9 CURVE SMOOTH",
"413 3 OFFCURVE",
"419 0 OFFCURVE",
"425 0 CURVE SMOOTH"
);
},
{
closed = 1;
nodes = (
"515 700 OFFCURVE",
"464 700 OFFCURVE",
"414 700 CURVE",
"346 568 OFFCURVE",
"343 556 OFFCURVE",
"332 442 CURVE",
"272 442 LINE",
"370 318 LINE",
"439 440 OFFCURVE",
"556 651 OFFCURVE",
"574 681 CURVE SMOOTH",
"580 691 OFFCURVE",
"575 700 OFFCURVE",
"565 700 CURVE"
);
},
{
closed = 1;
nodes = (
"84 0 OFFCURVE",
"137 0 OFFCURVE",
"187 0 CURVE",
"258 135 OFFCURVE",
"263 146 OFFCURVE",
"276 254 CURVE",
"336 254 LINE",
"231 382 LINE",
"162 260 OFFCURVE",
"44 49 OFFCURVE",
"26 19 CURVE SMOOTH",
"20 9 OFFCURVE",
"26 0 OFFCURVE",
"34 0 CURVE SMOOTH"
);
}
);
userData = {
com.arrowtype.glyphMarkStatus = check;
com.typemytype.robofont.Image.Brightness = 0;
com.typemytype.robofont.Image.Contrast = 1;
com.typemytype.robofont.Image.Saturation = 1;
com.typemytype.robofont.Image.Sharpness = 0.4;
};
width = 600;
},
{
associatedMasterId = master01;
layerId = "68CD6BA7-0930-4759-88F0-5DD28035D621";
name = foreground;
paths = (
{
closed = 1;
nodes = (
"476 0 OFFCURVE",
"531 0 OFFCURVE",
"583 0 CURVE",
"515 128 OFFCURVE",
"448 257 OFFCURVE",
"380 385 CURVE",
"313 437 LINE",
"272 524 OFFCURVE",
"232 607 OFFCURVE",
"195 689 CURVE",
"191 696 OFFCURVE",
"187 700 OFFCURVE",
"177 700 CURVE SMOOTH",
"123 701 OFFCURVE",
"75 700 OFFCURVE",
"21 700 CURVE",
"88 573 OFFCURVE",
"155 446 OFFCURVE",
"222 319 CURVE",
"294 259 LINE",
"333 175 OFFCURVE",
"385 61 OFFCURVE",
"410 9 CURVE SMOOTH",
"413 3 OFFCURVE",
"419 0 OFFCURVE",
"425 0 CURVE SMOOTH"
);
},
{
closed = 1;
nodes = (
"515 700 OFFCURVE",
"464 700 OFFCURVE",
"414 700 CURVE",
"346 568 OFFCURVE",
"343 556 OFFCURVE",
"332 442 CURVE",
"272 442 LINE",
"370 318 LINE",
"439 440 OFFCURVE",
"556 651 OFFCURVE",
"574 681 CURVE SMOOTH",
"580 691 OFFCURVE",
"575 700 OFFCURVE",
"565 700 CURVE"
);
},
{
closed = 1;
nodes = (
"84 0 OFFCURVE",
"137 0 OFFCURVE",
"187 0 CURVE",
"258 135 OFFCURVE",
"263 146 OFFCURVE",
"276 254 CURVE",
"336 254 LINE",
"231 382 LINE",
"162 260 OFFCURVE",
"44 49 OFFCURVE",
"26 19 CURVE SMOOTH",
"20 9 OFFCURVE",
"26 0 OFFCURVE",
"34 0 CURVE SMOOTH"
);
}
);
userData = {
com.arrowtype.glyphMarkStatus = check;
com.typemytype.robofont.Image.Brightness = 0;
com.typemytype.robofont.Image.Contrast = 1;
com.typemytype.robofont.Image.Saturation = 1;
com.typemytype.robofont.Image.Sharpness = 0.4;
};
width = 600;
}
);
rightKerningGroup = K_right;
unicode = 0058;
},
{
color = (255,255,0,255);
glyphname = Y;
layers = (
{
anchors = (
{
name = bottom;
position = "{325, -1}";
},
{
name = dot;
position = "{327, -172}";
},
{
name = hook;
position = "{325, 730}";
},
{
name = top;
position = "{325, 711}";
}
);
background = {
anchors = (
{
name = top;
position = "{300, 711}";
}
);
paths = (
{
closed = 1;
nodes = (
"85 547 OFFCURVE",
"159 393 OFFCURVE",
"228 239 CURVE SMOOTH",
"232 229 OFFCURVE",
"239 225 OFFCURVE",
"249 225 CURVE",
"314 225 OFFCURVE",
"345 302 OFFCURVE",
"327 335 CURVE",
"281 451 OFFCURVE",
"234 567 OFFCURVE",
"189 683 CURVE",
"186 694 OFFCURVE",
"181 700 OFFCURVE",
"172 700 CURVE",
"15 700 LINE"
);
},
{
closed = 1;
nodes = (
"372 578 OFFCURVE",
"327 457 OFFCURVE",
"282 335 CURVE",
"257 274 OFFCURVE",
"259 251 OFFCURVE",
"249 225 CURVE",
"365 225 LINE",
"436 377 OFFCURVE",
"507 529 OFFCURVE",
"578 681 CURVE",
"581 691 OFFCURVE",
"576 700 OFFCURVE",
"565 700 CURVE",
"417 700 LINE"
);
},
{
closed = 1;
nodes = (
"380 33 OFFCURVE",
"380 67 OFFCURVE",
"380 100 CURVE",
"380 289 LINE SMOOTH",
"380 295 OFFCURVE",
"375 300 OFFCURVE",
"220 300 CURVE",
"220 11 LINE",
"220 8 OFFCURVE",
"221 5 OFFCURVE",
"223 3 CURVE SMOOTH",
"225 1 OFFCURVE",
"228 0 OFFCURVE",
"231 0 CURVE",
"281 0 OFFCURVE",
"330 0 OFFCURVE",
"380 0 CURVE"
);
}
);
};
layerId = master01;
paths = (
{
closed = 1;
nodes = (
"405 33 OFFCURVE",
"405 67 OFFCURVE",
"405 100 CURVE SMOOTH",
"405 163 OFFCURVE",
"405 237 OFFCURVE",
"405 300 CURVE",
"245 300 LINE",
"245 207 OFFCURVE",
"245 104 OFFCURVE",
"245 11 CURVE SMOOTH",
"245 4 OFFCURVE",
"249 0 OFFCURVE",
"256 0 CURVE SMOOTH",
"306 0 OFFCURVE",
"355 0 OFFCURVE",
"405 0 CURVE"
);
},
{
closed = 1;
nodes = (
"100 532 OFFCURVE",
"243 240 OFFCURVE",
"253 219 CURVE",
"260 205 OFFCURVE",
"264 205 OFFCURVE",
"390 205 CURVE",
"469 359 OFFCURVE",
"552 528 OFFCURVE",
"623 674 CURVE SMOOTH",
"632 693 OFFCURVE",
"627 700 OFFCURVE",
"612 700 CURVE SMOOTH",
"568 700 OFFCURVE",
"520 700 OFFCURVE",
"468 700 CURVE",
"407 564 OFFCURVE",
"364 463 OFFCURVE",
"333 325 CURVE",
"371 358 LINE",
"288 358 LINE",
"327 325 LINE",
"292 462 OFFCURVE",
"248 562 OFFCURVE",
"193 676 CURVE SMOOTH",
"184 696 OFFCURVE",
"179 700 OFFCURVE",
"164 700 CURVE SMOOTH",
"119 700 OFFCURVE",
"68 700 OFFCURVE",
"15 700 CURVE"
);
}
);
userData = {
com.arrowtype.glyphMarkStatus = check;
};
width = 650;
},
{
anchors = (
{
name = bottom;
position = "{325, -1}";
},
{
name = dot;
position = "{327, -172}";
},
{
name = hook;
position = "{325, 730}";
},
{
name = top;
position = "{325, 711}";
}
);
associatedMasterId = master01;
layerId = "7D8628A6-D9D7-4838-8C32-AD8F2981A09B";
name = foreground;
paths = (
{
closed = 1;
nodes = (
"405 33 OFFCURVE",
"405 67 OFFCURVE",
"405 100 CURVE SMOOTH",
"405 163 OFFCURVE",
"405 237 OFFCURVE",
"405 300 CURVE",
"245 300 LINE",
"245 207 OFFCURVE",
"245 104 OFFCURVE",
"245 11 CURVE SMOOTH",
"245 4 OFFCURVE",
"249 0 OFFCURVE",
"256 0 CURVE SMOOTH",
"306 0 OFFCURVE",
"355 0 OFFCURVE",
"405 0 CURVE"
);
},
{
closed = 1;
nodes = (
"100 532 OFFCURVE",
"243 240 OFFCURVE",
"253 219 CURVE",
"260 205 OFFCURVE",
"264 205 OFFCURVE",
"390 205 CURVE",
"469 359 OFFCURVE",
"552 528 OFFCURVE",
"623 674 CURVE SMOOTH",
"632 693 OFFCURVE",
"627 700 OFFCURVE",
"612 700 CURVE SMOOTH",
"568 700 OFFCURVE",
"520 700 OFFCURVE",
"468 700 CURVE",
"407 564 OFFCURVE",
"364 463 OFFCURVE",
"333 325 CURVE",
"371 358 LINE",
"288 358 LINE",
"327 325 LINE",
"292 462 OFFCURVE",
"248 562 OFFCURVE",
"193 676 CURVE SMOOTH",
"184 696 OFFCURVE",
"179 700 OFFCURVE",
"164 700 CURVE SMOOTH",
"119 700 OFFCURVE",
"68 700 OFFCURVE",
"15 700 CURVE"
);
}
);
userData = {
com.arrowtype.glyphMarkStatus = check;
};
width = 650;
}
);
leftKerningGroup = Y_left;
rightKerningGroup = Y_right;
unicode = 0059;
},
{
color = (255,128,0,255);
glyphname = Z;
layers = (
{
anchors = (
{
name = bottom;
position = "{303, 0}";
},
{
name = top;
position = "{300, 711}";
}
);
layerId = master01;
paths = (
{
closed = 1;
nodes = (
"555 44 OFFCURVE",
"555 87 OFFCURVE",
"555 131 CURVE",
"555 138 OFFCURVE",
"551 142 OFFCURVE",
"544 142 CURVE SMOOTH",
"450 142 LINE SMOOTH",
"383 142 OFFCURVE",
"291 142 OFFCURVE",
"185 142 CURVE",
"201 116 LINE",
"201 188 LINE",
"176 152 LINE",
"230 178 OFFCURVE",
"267 200 OFFCURVE",
"308 249 CURVE SMOOTH",
"388 346 OFFCURVE",
"469 442 OFFCURVE",
"550 539 CURVE",
"550 689 LINE SMOOTH",
"550 696 OFFCURVE",
"546 700 OFFCURVE",
"539 700 CURVE",
"50 700 LINE",
"50 610 OFFCURVE",
"94 558 OFFCURVE",
"181 558 CURVE SMOOTH",
"217 558 LINE SMOOTH",
"264 558 OFFCURVE",
"308 558 OFFCURVE",
"414 558 CURVE",
"399 584 LINE",
"399 512 LINE",
"424 548 LINE",
"370 522 OFFCURVE",
"332 499 OFFCURVE",
"292 451 CURVE SMOOTH",
"211 354 OFFCURVE",
"131 257 OFFCURVE",
"50 161 CURVE",
"50 11 LINE SMOOTH",
"50 4 OFFCURVE",
"54 0 OFFCURVE",
"61 0 CURVE SMOOTH",
"555 0 LINE"
);
},
{
closed = 1;
nodes = (
"190 528 OFFCURVE",
"190 560 OFFCURVE",
"190 579 CURVE SMOOTH",
"190 666 OFFCURVE",
"162 700 OFFCURVE",
"50 700 CURVE",
"50 655 OFFCURVE",
"50 565 OFFCURVE",
"50 521 CURVE SMOOTH",
"50 514 OFFCURVE",
"54 510 OFFCURVE",
"61 510 CURVE",
"107 510 OFFCURVE",
"144 510 OFFCURVE",
"190 510 CURVE"
);
}
);
width = 600;
},
{
anchors = (
{
name = bottom;
position = "{303, 0}";
},
{
name = top;
position = "{300, 711}";
}
);
associatedMasterId = master01;
layerId = "0728A492-98D7-4EB2-A063-14166D8CACCB";
name = foreground;
paths = (
{
closed = 1;
nodes = (
"555 44 OFFCURVE",
"555 87 OFFCURVE",
"555 131 CURVE",
"555 138 OFFCURVE",
"551 142 OFFCURVE",
"544 142 CURVE SMOOTH",
"450 142 LINE SMOOTH",
"383 142 OFFCURVE",
"291 142 OFFCURVE",
"185 142 CURVE",
"201 116 LINE",
"201 188 LINE",
"176 152 LINE",
"230 178 OFFCURVE",
"267 200 OFFCURVE",
"308 249 CURVE SMOOTH",
"388 346 OFFCURVE",
"469 442 OFFCURVE",
"550 539 CURVE",
"550 689 LINE SMOOTH",
"550 696 OFFCURVE",
"546 700 OFFCURVE",
"539 700 CURVE",
"50 700 LINE",
"50 610 OFFCURVE",
"94 558 OFFCURVE",
"181 558 CURVE SMOOTH",
"217 558 LINE SMOOTH",
"264 558 OFFCURVE",
"308 558 OFFCURVE",
"414 558 CURVE",
"399 584 LINE",
"399 512 LINE",
"424 548 LINE",
"370 522 OFFCURVE",
"332 499 OFFCURVE",
"292 451 CURVE SMOOTH",
"211 354 OFFCURVE",
"131 257 OFFCURVE",
"50 161 CURVE",
"50 11 LINE SMOOTH",
"50 4 OFFCURVE",
"54 0 OFFCURVE",
"61 0 CURVE SMOOTH",
"555 0 LINE"
);
},
{
closed = 1;
nodes = (
"190 528 OFFCURVE",
"190 560 OFFCURVE",
"190 579 CURVE SMOOTH",
"190 666 OFFCURVE",
"162 700 OFFCURVE",
"50 700 CURVE",
"50 655 OFFCURVE",
"50 565 OFFCURVE",
"50 521 CURVE SMOOTH",
"50 514 OFFCURVE",
"54 510 OFFCURVE",
"61 510 CURVE",
"107 510 OFFCURVE",
"144 510 OFFCURVE",
"190 510 CURVE"
);
}
);
width = 600;
}
);
leftKerningGroup = Z_left;
rightKerningGroup = Z_right;
unicode = 005A;
},
{
color = (255,115,115,191);
glyphname = AE;
layers = (
{
anchors = (
{
name = top;
position = "{429, 711}";
}
);
layerId = master01;
paths = (
{
closed = 1;
nodes = (
"223 188 OFFCURVE",
"282 388 OFFCURVE",
"343 590 CURVE",
"304 561 LINE",
"755 561 LINE",
"755 604 OFFCURVE",
"755 646 OFFCURVE",
"755 689 CURVE SMOOTH",
"755 696 OFFCURVE",
"751 700 OFFCURVE",
"744 700 CURVE",
"346 700 LINE",
"304 700 OFFCURVE",
"262 700 OFFCURVE",
"220 700 CURVE",
"156 482 OFFCURVE",
"81 234 OFFCURVE",
"14 13 CURVE SMOOTH",
"11 3 OFFCURVE",
"19 0 OFFCURVE",
"23 0 CURVE SMOOTH",
"71 0 OFFCURVE",
"118 0 OFFCURVE",
"166 0 CURVE"
);
},
{
closed = 1;
nodes = (
"350 397 OFFCURVE",
"350 202 OFFCURVE",
"350 7 CURVE SMOOTH",
"350 1 OFFCURVE",
"355 0 OFFCURVE",
"361 0 CURVE SMOOTH",
"755 0 LINE",
"755 43 OFFCURVE",
"755 85 OFFCURVE",
"755 128 CURVE SMOOTH",
"755 134 OFFCURVE",
"750 139 OFFCURVE",
"744 139 CURVE SMOOTH",
"502 139 LINE",
"502 273 OFFCURVE",
"502 406 OFFCURVE",
"502 540 CURVE",
"502 552 OFFCURVE",
"502 563 OFFCURVE",
"502 575 CURVE",
"507 592 LINE",
"350 592 LINE"
);
},
{
closed = 1;
nodes = (
"158 136 LINE SMOOTH",
"158 130 OFFCURVE",
"163 125 OFFCURVE",
"169 125 CURVE",
"376 125 LINE",
"376 262 LINE",
"365 259 LINE",
"352.013 259 OFFCURVE",
"339 259 OFFCURVE",
"326 259 CURVE",
"158 259 LINE"
);
},
{
closed = 1;
nodes = (
"390 286 LINE",
"715 286 LINE",
"715 328 OFFCURVE",
"715 365 OFFCURVE",
"715 407 CURVE SMOOTH",
"715 414 OFFCURVE",
"711 418 OFFCURVE",
"704 418 CURVE",
"390 418 LINE"
);
}
);
userData = {
com.typemytype.robofont.Image.Brightness = 0;
com.typemytype.robofont.Image.Contrast = 1;
com.typemytype.robofont.Image.Saturation = 1;
com.typemytype.robofont.Image.Sharpness = 0.4;
};
width = 800;
},
{
anchors = (
{
name = top;
position = "{429, 711}";
}
);
associatedMasterId = master01;
layerId = "540C6B6A-6A2E-46E2-9581-21D4E0552F40";
name = foreground;
paths = (
{
closed = 1;
nodes = (
"223 188 OFFCURVE",
"282 388 OFFCURVE",
"343 590 CURVE",
"304 561 LINE",
"755 561 LINE",
"755 604 OFFCURVE",
"755 646 OFFCURVE",
"755 689 CURVE SMOOTH",
"755 696 OFFCURVE",
"751 700 OFFCURVE",
"744 700 CURVE",
"346 700 LINE",
"304 700 OFFCURVE",
"262 700 OFFCURVE",
"220 700 CURVE",
"156 482 OFFCURVE",
"81 234 OFFCURVE",
"14 13 CURVE SMOOTH",
"11 3 OFFCURVE",
"19 0 OFFCURVE",
"23 0 CURVE SMOOTH",
"71 0 OFFCURVE",
"118 0 OFFCURVE",
"166 0 CURVE"
);
},
{
closed = 1;
nodes = (
"350 397 OFFCURVE",
"350 202 OFFCURVE",
"350 7 CURVE SMOOTH",
"350 1 OFFCURVE",
"355 0 OFFCURVE",
"361 0 CURVE SMOOTH",
"755 0 LINE",
"755 43 OFFCURVE",
"755 85 OFFCURVE",
"755 128 CURVE SMOOTH",
"755 134 OFFCURVE",
"750 139 OFFCURVE",
"744 139 CURVE SMOOTH",
"502 139 LINE",
"502 273 OFFCURVE",
"502 406 OFFCURVE",
"502 540 CURVE",
"502 552 OFFCURVE",
"502 563 OFFCURVE",
"502 575 CURVE",
"507 592 LINE",
"350 592 LINE"
);
},
{
closed = 1;
nodes = (
"158 136 LINE SMOOTH",
"158 130 OFFCURVE",
"163 125 OFFCURVE",
"169 125 CURVE",
"376 125 LINE",
"376 262 LINE",
"365 259 LINE",
"352.013 259 OFFCURVE",
"339 259 OFFCURVE",
"326 259 CURVE",
"158 259 LINE"
);
},
{
closed = 1;
nodes = (
"390 286 LINE",
"715 286 LINE",
"715 328 OFFCURVE",
"715 365 OFFCURVE",
"715 407 CURVE SMOOTH",
"715 414 OFFCURVE",
"711 418 OFFCURVE",
"704 418 CURVE",
"390 418 LINE"
);
}
);
userData = {
com.typemytype.robofont.Image.Brightness = 0;
com.typemytype.robofont.Image.Contrast = 1;
com.typemytype.robofont.Image.Saturation = 1;
com.typemytype.robofont.Image.Sharpness = 0.4;
};
width = 800;
}
);
leftKerningGroup = A_left;
rightKerningGroup = E_right;
unicode = 00C6;
},
{
color = (0,0,0,64);
glyphname = Eth;
layers = (
{
components = (
{
name = D;
}
);
layerId = master01;
paths = (
{
closed = 1;
nodes = (
"10 376 OFFCURVE",
"10 345 OFFCURVE",
"10 311 CURVE SMOOTH",
"10 304 OFFCURVE",
"14 300 OFFCURVE",
"21 300 CURVE SMOOTH",
"320 300 LINE",
"320 334 OFFCURVE",
"320 365 OFFCURVE",
"320 399 CURVE SMOOTH",
"320 406 OFFCURVE",
"316 410 OFFCURVE",
"309 410 CURVE",
"10 410 LINE"
);
}
);
width = 650;
},
{
associatedMasterId = master01;
components = (
{
name = D;
}
);
layerId = "B03E6D2B-B3AA-4D46-8F23-0A48C6096207";
name = foreground;
paths = (
{
closed = 1;
nodes = (
"10 376 OFFCURVE",
"10 345 OFFCURVE",
"10 311 CURVE SMOOTH",
"10 304 OFFCURVE",
"14 300 OFFCURVE",
"21 300 CURVE SMOOTH",
"320 300 LINE",
"320 334 OFFCURVE",
"320 365 OFFCURVE",
"320 399 CURVE SMOOTH",
"320 406 OFFCURVE",
"316 410 OFFCURVE",
"309 410 CURVE",
"10 410 LINE"
);
}
);
width = 650;
}
);
leftKerningGroup = E_left;
rightKerningGroup = O_right;
unicode = 00D0;
},
{
color = (255,115,115,191);
glyphname = Oslash;
layers = (
{
anchors = (
{
name = top;
position = "{324, 711}";
}
);
background = {
paths = (
{
closed = 1;
nodes = (
"169 720 OFFCURVE",
"55 592 OFFCURVE",
"55 434 CURVE SMOOTH",
"55 258 LINE SMOOTH",
"55 88 OFFCURVE",
"167 -20 OFFCURVE",
"325 -20 CURVE SMOOTH",
"334 -20 OFFCURVE",
"342 -2 OFFCURVE",
"325 122 CURVE",
"248 122 OFFCURVE",
"205 175 OFFCURVE",
"205 258 CURVE SMOOTH",
"205 434 LINE SMOOTH",
"205 523 OFFCURVE",
"252 578 OFFCURVE",
"325 578 CURVE SMOOTH",
"391 578 OFFCURVE",
"424 578 OFFCURVE",
"453 578 CURVE",
"453 639 OFFCURVE",
"438 720 OFFCURVE",
"325 720 CURVE"
);
},
{
closed = 1;
nodes = (
"481 -20 OFFCURVE",
"595 108 OFFCURVE",
"595 266 CURVE SMOOTH",
"595 442 LINE SMOOTH",
"595 612 OFFCURVE",
"483 720 OFFCURVE",
"325 720 CURVE SMOOTH",
"316 720 OFFCURVE",
"308 702 OFFCURVE",
"325 578 CURVE",
"402 578 OFFCURVE",
"445 525 OFFCURVE",
"445 442 CURVE SMOOTH",
"445 266 LINE SMOOTH",
"445 177 OFFCURVE",
"398 122 OFFCURVE",
"325 122 CURVE SMOOTH",
"259 122 OFFCURVE",
"226 122 OFFCURVE",
"197 122 CURVE",
"197 61 OFFCURVE",
"212 -20 OFFCURVE",
"325 -20 CURVE"
);
},
{
closed = 1;
nodes = (
"559 776 OFFCURVE",
"522 776 OFFCURVE",
"481 776 CURVE SMOOTH",
"468 776 OFFCURVE",
"465 774 OFFCURVE",
"457 757 CURVE SMOOTH",
"402 636 OFFCURVE",
"261 323 OFFCURVE",
"164 107 CURVE",
"168 100 OFFCURVE",
"179 94 OFFCURVE",
"189 94 CURVE SMOOTH",
"207 94 OFFCURVE",
"261 98 OFFCURVE",
"265 106 CURVE SMOOTH",
"283 143 OFFCURVE",
"433 444 OFFCURVE",
"599 776 CURVE"
);
},
{
closed = 1;
nodes = (
"153 115 OFFCURVE",
"141 90 CURVE",
"125 57 OFFCURVE",
"83 -31 OFFCURVE",
"62 -76 CURVE",
"73 -76 OFFCURVE",
"168 -76 OFFCURVE",
"182 -76 CURVE SMOOTH",
"191 -76 OFFCURVE",
"193 -76 OFFCURVE",
"199 -64 CURVE",
"218 -24 OFFCURVE",
"251 46 OFFCURVE",
"269 84 CURVE",
"239 114 OFFCURVE"
);
}
);
};
components = (
{
name = O;
}
);
layerId = master01;
paths = (
{
closed = 1;
nodes = (
"553 776 OFFCURVE",
"516 776 OFFCURVE",
"475 776 CURVE SMOOTH",
"462 776 OFFCURVE",
"459 774 OFFCURVE",
"451 757 CURVE SMOOTH",
"440 733 OFFCURVE",
"426 702 OFFCURVE",
"409 665 CURVE SMOOTH",
"397 638 OFFCURVE",
"389 609 OFFCURVE",
"375 580 CURVE SMOOTH",
"347 518 OFFCURVE",
"313 443 OFFCURVE",
"279 366 CURVE SMOOTH",
"255 311 OFFCURVE",
"236 235 OFFCURVE",
"229 171 CURVE",
"250 197 LINE",
"187 197 LINE",
"135 90 LINE",
"119 57 OFFCURVE",
"77 -31 OFFCURVE",
"56 -76 CURVE",
"67 -76 OFFCURVE",
"162 -76 OFFCURVE",
"176 -76 CURVE SMOOTH",
"185 -76 OFFCURVE",
"187 -76 OFFCURVE",
"193 -64 CURVE",
"206 -36 OFFCURVE",
"227 5 OFFCURVE",
"247 48 CURVE SMOOTH",
"262 79 OFFCURVE",
"280 105 OFFCURVE",
"295 136 CURVE SMOOTH",
"327 207 OFFCURVE",
"358 282 OFFCURVE",
"388 353 CURVE SMOOTH",
"407 399 OFFCURVE",
"419 465 OFFCURVE",
"422 518 CURVE",
"410 502 LINE",
"504 502 LINE",
"478 547 LINE",
"515 619 OFFCURVE",
"553 697 OFFCURVE",
"593 776 CURVE"
);
}
);
userData = {
com.typemytype.robofont.Image.Brightness = 0;
com.typemytype.robofont.Image.Contrast = 1;
com.typemytype.robofont.Image.Saturation = 1;
com.typemytype.robofont.Image.Sharpness = 0.4;
};
width = 650;
},
{
anchors = (
{
name = top;
position = "{324, 711}";
}
);
associatedMasterId = master01;
components = (
{
name = O;
}
);
layerId = "256C25C2-6199-4D2E-BF23-454435565799";
name = foreground;
paths = (
{
closed = 1;
nodes = (
"553 776 OFFCURVE",
"516 776 OFFCURVE",
"475 776 CURVE SMOOTH",
"462 776 OFFCURVE",
"459 774 OFFCURVE",
"451 757 CURVE SMOOTH",
"440 733 OFFCURVE",
"426 702 OFFCURVE",
"409 665 CURVE SMOOTH",
"397 638 OFFCURVE",
"389 609 OFFCURVE",
"375 580 CURVE SMOOTH",
"347 518 OFFCURVE",
"313 443 OFFCURVE",
"279 366 CURVE SMOOTH",
"255 311 OFFCURVE",
"236 235 OFFCURVE",
"229 171 CURVE",
"250 197 LINE",
"187 197 LINE",
"135 90 LINE",
"119 57 OFFCURVE",
"77 -31 OFFCURVE",
"56 -76 CURVE",
"67 -76 OFFCURVE",
"162 -76 OFFCURVE",
"176 -76 CURVE SMOOTH",
"185 -76 OFFCURVE",
"187 -76 OFFCURVE",
"193 -64 CURVE",
"206 -36 OFFCURVE",
"227 5 OFFCURVE",
"247 48 CURVE SMOOTH",
"262 79 OFFCURVE",
"280 105 OFFCURVE",
"295 136 CURVE SMOOTH",
"327 207 OFFCURVE",
"358 282 OFFCURVE",
"388 353 CURVE SMOOTH",
"407 399 OFFCURVE",
"419 465 OFFCURVE",
"422 518 CURVE",
"410 502 LINE",
"504 502 LINE",
"478 547 LINE",
"515 619 OFFCURVE",
"553 697 OFFCURVE",
"593 776 CURVE"
);
}
);
userData = {
com.typemytype.robofont.Image.Brightness = 0;
com.typemytype.robofont.Image.Contrast = 1;
com.typemytype.robofont.Image.Saturation = 1;
com.typemytype.robofont.Image.Sharpness = 0.4;
};
width = 650;
}
);
leftKerningGroup = O_left;
rightKerningGroup = O_right;
unicode = 00D8;
},
{
color = (0,0,0,64);
glyphname = Thorn;
layers = (
{
layerId = master01;
paths = (
{
closed = 1;
nodes = (
"70 664 OFFCURVE",
"70 629 OFFCURVE",
"70 593 CURVE SMOOTH",
"70 399 OFFCURVE",
"70 205 OFFCURVE",
"70 11 CURVE SMOOTH",
"70 4 OFFCURVE",
"74 0 OFFCURVE",
"81 0 CURVE",
"131 0 OFFCURVE",
"180 0 OFFCURVE",
"230 0 CURVE",
"230 229 OFFCURVE",
"230 460 OFFCURVE",
"230 689 CURVE SMOOTH",
"230 696 OFFCURVE",
"226 700 OFFCURVE",
"219 700 CURVE SMOOTH",
"169 700 OFFCURVE",
"120 700 OFFCURVE",
"70 700 CURVE"
);
},
{
closed = 1;
nodes = (
"160 553 OFFCURVE",
"160 510 OFFCURVE",
"160 466 CURVE SMOOTH",
"160 459 OFFCURVE",
"164 455 OFFCURVE",
"171 455 CURVE",
"187 455 OFFCURVE",
"204 455 OFFCURVE",
"220 455 CURVE SMOOTH",
"250 455 OFFCURVE",
"280 455 OFFCURVE",
"310 455 CURVE SMOOTH",
"338 455 OFFCURVE",
"356 450 OFFCURVE",
"368 439 CURVE SMOOTH",
"380 427 OFFCURVE",
"385 408 OFFCURVE",
"385 379 CURVE SMOOTH",
"385 328 LINE SMOOTH",
"385 283 OFFCURVE",
"364 259 OFFCURVE",
"325 259 CURVE SMOOTH",
"270 259 OFFCURVE",
"215 259 OFFCURVE",
"160 259 CURVE",
"160 112 LINE",
"171 117 LINE",
"225 117 OFFCURVE",
"280 117 OFFCURVE",
"334 117 CURVE SMOOTH",
"465 117 OFFCURVE",
"545 196 OFFCURVE",
"545 328 CURVE SMOOTH",
"545 380 LINE SMOOTH",
"545 512 OFFCURVE",
"480 597 OFFCURVE",
"304 597 CURVE SMOOTH",
"256 597 OFFCURVE",
"208 597 OFFCURVE",
"160 597 CURVE"
);
}
);
width = 600;
},
{
associatedMasterId = master01;
layerId = "F0564C1C-BAB9-4185-BE04-3743EC0744DF";
name = foreground;
paths = (
{
closed = 1;
nodes = (
"70 664 OFFCURVE",
"70 629 OFFCURVE",
"70 593 CURVE SMOOTH",
"70 399 OFFCURVE",
"70 205 OFFCURVE",
"70 11 CURVE SMOOTH",
"70 4 OFFCURVE",
"74 0 OFFCURVE",
"81 0 CURVE",
"131 0 OFFCURVE",
"180 0 OFFCURVE",
"230 0 CURVE",
"230 229 OFFCURVE",
"230 460 OFFCURVE",
"230 689 CURVE SMOOTH",
"230 696 OFFCURVE",
"226 700 OFFCURVE",
"219 700 CURVE SMOOTH",
"169 700 OFFCURVE",
"120 700 OFFCURVE",
"70 700 CURVE"
);
},
{
closed = 1;
nodes = (
"160 553 OFFCURVE",
"160 510 OFFCURVE",
"160 466 CURVE SMOOTH",
"160 459 OFFCURVE",
"164 455 OFFCURVE",
"171 455 CURVE",
"187 455 OFFCURVE",
"204 455 OFFCURVE",
"220 455 CURVE SMOOTH",
"250 455 OFFCURVE",
"280 455 OFFCURVE",
"310 455 CURVE SMOOTH",
"338 455 OFFCURVE",
"356 450 OFFCURVE",
"368 439 CURVE SMOOTH",
"380 427 OFFCURVE",
"385 408 OFFCURVE",
"385 379 CURVE SMOOTH",
"385 328 LINE SMOOTH",
"385 283 OFFCURVE",
"364 259 OFFCURVE",
"325 259 CURVE SMOOTH",
"270 259 OFFCURVE",
"215 259 OFFCURVE",
"160 259 CURVE",
"160 112 LINE",
"171 117 LINE",
"225 117 OFFCURVE",
"280 117 OFFCURVE",
"334 117 CURVE SMOOTH",
"465 117 OFFCURVE",
"545 196 OFFCURVE",
"545 328 CURVE SMOOTH",
"545 380 LINE SMOOTH",
"545 512 OFFCURVE",
"480 597 OFFCURVE",
"304 597 CURVE SMOOTH",
"256 597 OFFCURVE",
"208 597 OFFCURVE",
"160 597 CURVE"
);
}
);
width = 600;
}
);
leftKerningGroup = N_left;
unicode = 00DE;
},
{
color = (255,115,115,191);
glyphname = Hbar;
layers = (
{
components = (
{
name = H;
}
);
layerId = master01;
paths = (
{
closed = 1;
nodes = (
"20 586 OFFCURVE",
"20 555 OFFCURVE",
"20 521 CURVE SMOOTH",
"20 514 OFFCURVE",
"24 510 OFFCURVE",
"31 510 CURVE SMOOTH",
"630 510 LINE",
"630 544 OFFCURVE",
"630 575 OFFCURVE",
"630 609 CURVE SMOOTH",
"630 615 OFFCURVE",
"625 620 OFFCURVE",
"619 620 CURVE SMOOTH",
"20 620 LINE"
);
}
);
width = 650;
},
{
associatedMasterId = master01;
components = (
{
name = H;
}
);
layerId = "7CC86ABD-31BF-45EE-BAB3-CC74F472D1F4";
name = foreground;
paths = (
{
closed = 1;
nodes = (
"20 586 OFFCURVE",
"20 555 OFFCURVE",
"20 521 CURVE SMOOTH",
"20 514 OFFCURVE",
"24 510 OFFCURVE",
"31 510 CURVE SMOOTH",
"630 510 LINE",
"630 544 OFFCURVE",
"630 575 OFFCURVE",
"630 609 CURVE SMOOTH",
"630 615 OFFCURVE",
"625 620 OFFCURVE",
"619 620 CURVE SMOOTH",
"20 620 LINE"
);
}
);
width = 650;
}
);
leftKerningGroup = E_left;
unicode = 0126;
},
{
color = (0,0,0,64);
glyphname = IJ;
layers = (
{
layerId = master01;
paths = (
{
closed = 1;
nodes = (
"60 664 OFFCURVE",
"60 629 OFFCURVE",
"60 593 CURVE SMOOTH",
"60 472.333 OFFCURVE",
"60 351.667 OFFCURVE",
"60 231 CURVE SMOOTH",
"60 224 OFFCURVE",
"64 220 OFFCURVE",
"71 220 CURVE",
"121 220 OFFCURVE",
"170 220 OFFCURVE",
"220 220 CURVE",
"220 375.88 OFFCURVE",
"220 533.12 OFFCURVE",
"220 689 CURVE SMOOTH",
"220 696 OFFCURVE",
"216 700 OFFCURVE",
"209 700 CURVE SMOOTH",
"159 700 OFFCURVE",
"110 700 OFFCURVE",
"60 700 CURVE"
);
},
{
closed = 1;
nodes = (
"193 121 OFFCURVE",
"132 133 OFFCURVE",
"90 151 CURVE",
"70 151 LINE",
"70 108 OFFCURVE",
"70 74 OFFCURVE",
"70 35 CURVE",
"70 28 OFFCURVE",
"71 23 OFFCURVE",
"75 20 CURVE SMOOTH",
"105 -3 OFFCURVE",
"188 -20 OFFCURVE",
"276 -20 CURVE SMOOTH",
"441 -20 OFFCURVE",
"540 79 OFFCURVE",
"540 245 CURVE SMOOTH",
"540 393 OFFCURVE",
"540 541 OFFCURVE",
"540 689 CURVE SMOOTH",
"540 696 OFFCURVE",
"536 700 OFFCURVE",
"529 700 CURVE",
"453 700 OFFCURVE",
"377 700 OFFCURVE",
"301 700 CURVE",
"301 656 OFFCURVE",
"301 620 OFFCURVE",
"301 576 CURVE",
"301 569 OFFCURVE",
"305 565 OFFCURVE",
"312 565 CURVE",
"344 565 OFFCURVE",
"376 565 OFFCURVE",
"408 565 CURVE",
"361 590 LINE",
"402 544 LINE",
"380 592 LINE",
"380 456 OFFCURVE",
"380 338 OFFCURVE",
"380 232 CURVE SMOOTH",
"380 194 OFFCURVE",
"372 167 OFFCURVE",
"354 149 CURVE SMOOTH",
"335 130 OFFCURVE",
"306 121 OFFCURVE",
"266 121 CURVE"
);
}
);
width = 600;
},
{
associatedMasterId = master01;
layerId = "AD8FAC8E-8252-4B86-9460-48E6391047DC";
name = foreground;
paths = (
{
closed = 1;
nodes = (
"60 664 OFFCURVE",
"60 629 OFFCURVE",
"60 593 CURVE SMOOTH",
"60 472.333 OFFCURVE",
"60 351.667 OFFCURVE",
"60 231 CURVE SMOOTH",
"60 224 OFFCURVE",
"64 220 OFFCURVE",
"71 220 CURVE",
"121 220 OFFCURVE",
"170 220 OFFCURVE",
"220 220 CURVE",
"220 375.88 OFFCURVE",
"220 533.12 OFFCURVE",
"220 689 CURVE SMOOTH",
"220 696 OFFCURVE",
"216 700 OFFCURVE",
"209 700 CURVE SMOOTH",
"159 700 OFFCURVE",
"110 700 OFFCURVE",
"60 700 CURVE"
);
},
{
closed = 1;
nodes = (
"193 121 OFFCURVE",
"132 133 OFFCURVE",
"90 151 CURVE",
"70 151 LINE",
"70 108 OFFCURVE",
"70 74 OFFCURVE",
"70 35 CURVE",
"70 28 OFFCURVE",
"71 23 OFFCURVE",
"75 20 CURVE SMOOTH",
"105 -3 OFFCURVE",
"188 -20 OFFCURVE",
"276 -20 CURVE SMOOTH",
"441 -20 OFFCURVE",
"540 79 OFFCURVE",
"540 245 CURVE SMOOTH",
"540 393 OFFCURVE",
"540 541 OFFCURVE",
"540 689 CURVE SMOOTH",
"540 696 OFFCURVE",
"536 700 OFFCURVE",
"529 700 CURVE",
"453 700 OFFCURVE",
"377 700 OFFCURVE",
"301 700 CURVE",
"301 656 OFFCURVE",
"301 620 OFFCURVE",
"301 576 CURVE",
"301 569 OFFCURVE",
"305 565 OFFCURVE",
"312 565 CURVE",
"344 565 OFFCURVE",
"376 565 OFFCURVE",
"408 565 CURVE",
"361 590 LINE",
"402 544 LINE",
"380 592 LINE",
"380 456 OFFCURVE",
"380 338 OFFCURVE",
"380 232 CURVE SMOOTH",
"380 194 OFFCURVE",
"372 167 OFFCURVE",
"354 149 CURVE SMOOTH",
"335 130 OFFCURVE",
"306 121 OFFCURVE",
"266 121 CURVE"
);
}
);
width = 600;
}
);
rightKerningGroup = J_right;
unicode = 0132;
},
{
color = (0,0,0,64);
glyphname = Ldot;
layers = (
{
components = (
{
name = L;
}
);
layerId = master01;
paths = (
{
closed = 1;
nodes = (
"348 332 LINE SMOOTH",
"348 325 OFFCURVE",
"352 321 OFFCURVE",
"359 321 CURVE",
"412 321 OFFCURVE",
"465 321 OFFCURVE",
"518 321 CURVE",
"518 470 LINE SMOOTH",
"518 477 OFFCURVE",
"514 481 OFFCURVE",
"507 481 CURVE",
"454 481 OFFCURVE",
"401 481 OFFCURVE",
"348 481 CURVE"
);
}
);
width = 550;
},
{
associatedMasterId = master01;
components = (
{
name = L;
}
);
layerId = "4E3A97E5-1981-4D3D-9BF5-EEC77C7E93D3";
name = foreground;
paths = (
{
closed = 1;
nodes = (
"348 332 LINE SMOOTH",
"348 325 OFFCURVE",
"352 321 OFFCURVE",
"359 321 CURVE",
"412 321 OFFCURVE",
"465 321 OFFCURVE",
"518 321 CURVE",
"518 470 LINE SMOOTH",
"518 477 OFFCURVE",
"514 481 OFFCURVE",
"507 481 CURVE",
"454 481 OFFCURVE",
"401 481 OFFCURVE",
"348 481 CURVE"
);
}
);
width = 550;
}
);
leftKerningGroup = N_left;
rightKerningGroup = L_right;
unicode = 013F;
},
{
color = (255,115,115,191);
glyphname = Eng;
layers = (
{
components = (
{
name = N;
transform = "{1, 0, 0, 1, 25, 0}";
}
);
layerId = master01;
paths = (
{
closed = 1;
nodes = (
"362 -100 OFFCURVE",
"333 -94 OFFCURVE",
"296 -75 CURVE",
"276 -75 LINE",
"276 -120 OFFCURVE",
"276 -169 OFFCURVE",
"276 -214 CURVE",
"276 -217 OFFCURVE",
"277 -220 OFFCURVE",
"279 -222 CURVE SMOOTH",
"293 -236 OFFCURVE",
"357 -250 OFFCURVE",
"422 -250 CURVE SMOOTH",
"570 -250 OFFCURVE",
"625 -164 OFFCURVE",
"625 0 CURVE SMOOTH",
"625 21 OFFCURVE",
"581 21 OFFCURVE",
"475 21 CURVE",
"475 -76 OFFCURVE",
"448 -100 OFFCURVE",
"399 -100 CURVE SMOOTH"
);
}
);
width = 700;
},
{
associatedMasterId = master01;
components = (
{
name = N;
transform = "{1, 0, 0, 1, 25, 0}";
}
);
layerId = "C72C408D-A4FE-4963-B17A-ABD12500FE4B";
name = foreground;
paths = (
{
closed = 1;
nodes = (
"362 -100 OFFCURVE",
"333 -94 OFFCURVE",
"296 -75 CURVE",
"276 -75 LINE",
"276 -120 OFFCURVE",
"276 -169 OFFCURVE",
"276 -214 CURVE",
"276 -217 OFFCURVE",
"277 -220 OFFCURVE",
"279 -222 CURVE SMOOTH",
"293 -236 OFFCURVE",
"357 -250 OFFCURVE",
"422 -250 CURVE SMOOTH",
"570 -250 OFFCURVE",
"625 -164 OFFCURVE",
"625 0 CURVE SMOOTH",
"625 21 OFFCURVE",
"581 21 OFFCURVE",
"475 21 CURVE",
"475 -76 OFFCURVE",
"448 -100 OFFCURVE",
"399 -100 CURVE SMOOTH"
);
}
);
width = 700;
}
);
rightKerningGroup = H_right;
unicode = 014A;
},
{
color = (255,115,115,191);
glyphname = OE;
layers = (
{
background = {
paths = (
{
closed = 1;
nodes = (
"123 710 OFFCURVE",
"56 624 OFFCURVE",
"56 495 CURVE SMOOTH",
"56 205 LINE SMOOTH",
"56 74 OFFCURVE",
"123 -10 OFFCURVE",
"247 -10 CURVE SMOOTH",
"348 -10 OFFCURVE",
"422 57 OFFCURVE",
"422 144 CURVE SMOOTH",
"422 189 OFFCURVE",
"406 197 OFFCURVE",
"392 197 CURVE",
"363 144 OFFCURVE",
"336 126 OFFCURVE",
"286 126 CURVE SMOOTH",
"235 126 OFFCURVE",
"206 155 OFFCURVE",
"206 207 CURVE SMOOTH",
"206 493 LINE SMOOTH",
"206 544 OFFCURVE",
"236 574 OFFCURVE",
"286 574 CURVE SMOOTH",
"336 574 OFFCURVE",
"363 554 OFFCURVE",
"392 500 CURVE",
"407 500 OFFCURVE",
"422 507 OFFCURVE",
"422 553 CURVE SMOOTH",
"422 647 OFFCURVE",
"353 710 OFFCURVE",
"247 710 CURVE SMOOTH"
);
},
{
closed = 1;
nodes = (
"535 639 LINE",
"535 645 OFFCURVE",
"531 650 OFFCURVE",
"385 650 CURVE",
"385 111 LINE SMOOTH",
"385 105 OFFCURVE",
"389 100 OFFCURVE",
"535 100 CURVE"
);
},
{
closed = 1;
nodes = (
"385 572 LINE",
"385 566 OFFCURVE",
"390 561 OFFCURVE",
"396 561 CURVE SMOOTH",
"750 561 LINE",
"750 605 OFFCURVE",
"750 645 OFFCURVE",
"750 689 CURVE SMOOTH",
"750 692 OFFCURVE",
"749 695 OFFCURVE",
"747 697 CURVE SMOOTH",
"745 699 OFFCURVE",
"742 700 OFFCURVE",
"739 700 CURVE",
"385 700 LINE"
);
},
{
closed = 1;
nodes = (
"465 297 LINE",
"465 290 OFFCURVE",
"469 286 OFFCURVE",
"476 286 CURVE SMOOTH",
"710 286 LINE",
"710 328 OFFCURVE",
"710 365 OFFCURVE",
"710 407 CURVE SMOOTH",
"710 414 OFFCURVE",
"706 418 OFFCURVE",
"699 418 CURVE SMOOTH",
"465 418 LINE"
);
},
{
closed = 1;
nodes = (
"385 11 LINE SMOOTH",
"385 5 OFFCURVE",
"390 0 OFFCURVE",
"396 0 CURVE SMOOTH",
"750 0 LINE",
"750 44 OFFCURVE",
"750 84 OFFCURVE",
"750 128 CURVE SMOOTH",
"750 134 OFFCURVE",
"745 139 OFFCURVE",
"739 139 CURVE SMOOTH",
"385 139 LINE"
);
}
);
};
layerId = master01;
paths = (
{
closed = 1;
nodes = (
"123 710 OFFCURVE",
"56 624 OFFCURVE",
"56 495 CURVE SMOOTH",
"56 205 LINE SMOOTH",
"56 74 OFFCURVE",
"123 -10 OFFCURVE",
"247 -10 CURVE SMOOTH",
"312 -10 OFFCURVE",
"364 16 OFFCURVE",
"405 69 CURVE",
"385 77 LINE",
"385 11 LINE SMOOTH",
"385 5 OFFCURVE",
"390 0 OFFCURVE",
"396 0 CURVE SMOOTH",
"750 0 LINE",
"750 43 OFFCURVE",
"750 85 OFFCURVE",
"750 128 CURVE SMOOTH",
"750 134 OFFCURVE",
"745 139 OFFCURVE",
"739 139 CURVE SMOOTH",
"535 139 LINE",
"535 268 OFFCURVE",
"535 397 OFFCURVE",
"535 526 CURVE SMOOTH",
"535 548 OFFCURVE",
"535 569 OFFCURVE",
"535 591 CURVE",
"547 615 LINE",
"385 615 LINE",
"385 472 OFFCURVE",
"385 328 OFFCURVE",
"385 185 CURVE",
"358 141 OFFCURVE",
"332 126 OFFCURVE",
"286 126 CURVE SMOOTH",
"235 126 OFFCURVE",
"206 155 OFFCURVE",
"206 207 CURVE SMOOTH",
"206 493 LINE SMOOTH",
"206 544 OFFCURVE",
"236 574 OFFCURVE",
"286 574 CURVE SMOOTH",
"332 574 OFFCURVE",
"358 557 OFFCURVE",
"385 512 CURVE",
"493 561 LINE",
"750 561 LINE",
"750 604 OFFCURVE",
"750 646 OFFCURVE",
"750 689 CURVE SMOOTH",
"750 696 OFFCURVE",
"746 700 OFFCURVE",
"739 700 CURVE",
"385 700 LINE",
"385 656 LINE",
"354 690 OFFCURVE",
"307 710 OFFCURVE",
"247 710 CURVE SMOOTH"
);
},
{
closed = 1;
nodes = (
"465 286 LINE",
"710 286 LINE",
"710 328 OFFCURVE",
"710 365 OFFCURVE",
"710 407 CURVE SMOOTH",
"710 414 OFFCURVE",
"706 418 OFFCURVE",
"699 418 CURVE",
"465 418 LINE"
);
}
);
userData = {
com.typemytype.robofont.Image.Brightness = 0;
com.typemytype.robofont.Image.Contrast = 1;
com.typemytype.robofont.Image.Saturation = 1;
com.typemytype.robofont.Image.Sharpness = 0.4;
};
width = 800;
},
{
associatedMasterId = master01;
layerId = "8D64BC55-7CD1-4171-82B1-71A107400031";
name = foreground;
paths = (
{
closed = 1;
nodes = (
"123 710 OFFCURVE",
"56 624 OFFCURVE",
"56 495 CURVE SMOOTH",
"56 205 LINE SMOOTH",
"56 74 OFFCURVE",
"123 -10 OFFCURVE",
"247 -10 CURVE SMOOTH",
"312 -10 OFFCURVE",
"364 16 OFFCURVE",
"405 69 CURVE",
"385 77 LINE",
"385 11 LINE SMOOTH",
"385 5 OFFCURVE",
"390 0 OFFCURVE",
"396 0 CURVE SMOOTH",
"750 0 LINE",
"750 43 OFFCURVE",
"750 85 OFFCURVE",
"750 128 CURVE SMOOTH",
"750 134 OFFCURVE",
"745 139 OFFCURVE",
"739 139 CURVE SMOOTH",
"535 139 LINE",
"535 268 OFFCURVE",
"535 397 OFFCURVE",
"535 526 CURVE SMOOTH",
"535 548 OFFCURVE",
"535 569 OFFCURVE",
"535 591 CURVE",
"547 615 LINE",
"385 615 LINE",
"385 472 OFFCURVE",
"385 328 OFFCURVE",
"385 185 CURVE",
"358 141 OFFCURVE",
"332 126 OFFCURVE",
"286 126 CURVE SMOOTH",
"235 126 OFFCURVE",
"206 155 OFFCURVE",
"206 207 CURVE SMOOTH",
"206 493 LINE SMOOTH",
"206 544 OFFCURVE",
"236 574 OFFCURVE",
"286 574 CURVE SMOOTH",
"332 574 OFFCURVE",
"358 557 OFFCURVE",
"385 512 CURVE",
"493 561 LINE",
"750 561 LINE",
"750 604 OFFCURVE",
"750 646 OFFCURVE",
"750 689 CURVE SMOOTH",
"750 696 OFFCURVE",
"746 700 OFFCURVE",
"739 700 CURVE",
"385 700 LINE",
"385 656 LINE",
"354 690 OFFCURVE",
"307 710 OFFCURVE",
"247 710 CURVE SMOOTH"
);
},
{
closed = 1;
nodes = (
"465 286 LINE",
"710 286 LINE",
"710 328 OFFCURVE",
"710 365 OFFCURVE",
"710 407 CURVE SMOOTH",
"710 414 OFFCURVE",
"706 418 OFFCURVE",
"699 418 CURVE",
"465 418 LINE"
);
}
);
userData = {
com.typemytype.robofont.Image.Brightness = 0;
com.typemytype.robofont.Image.Contrast = 1;
com.typemytype.robofont.Image.Saturation = 1;
com.typemytype.robofont.Image.Sharpness = 0.4;
};
width = 800;
}
);
leftKerningGroup = O_left;
rightKerningGroup = E_right;
unicode = 0152;
},
{
color = (0,0,0,64);
glyphname = Tbar;
layers = (
{
components = (
{
name = T;
}
);
layerId = master01;
paths = (
{
closed = 1;
nodes = (
"70 350 OFFCURVE",
"70 311 OFFCURVE",
"70 269 CURVE SMOOTH",
"70 262 OFFCURVE",
"74 258 OFFCURVE",
"81 258 CURVE SMOOTH",
"530 258 LINE",
"530 300 OFFCURVE",
"530 339 OFFCURVE",
"530 381 CURVE SMOOTH",
"530 388 OFFCURVE",
"526 392 OFFCURVE",
"519 392 CURVE",
"70 392 LINE"
);
}
);
width = 600;
},
{
associatedMasterId = master01;
components = (
{
name = T;
}
);
layerId = "391A9E7E-48F9-4A33-B32B-6BEAAD1A8ADD";
name = foreground;
paths = (
{
closed = 1;
nodes = (
"70 350 OFFCURVE",
"70 311 OFFCURVE",
"70 269 CURVE SMOOTH",
"70 262 OFFCURVE",
"74 258 OFFCURVE",
"81 258 CURVE SMOOTH",
"530 258 LINE",
"530 300 OFFCURVE",
"530 339 OFFCURVE",
"530 381 CURVE SMOOTH",
"530 388 OFFCURVE",
"526 392 OFFCURVE",
"519 392 CURVE",
"70 392 LINE"
);
}
);
width = 600;
}
);
leftKerningGroup = T_left;
rightKerningGroup = T_right;
unicode = 0166;
},
{
color = (0,0,0,64);
glyphname = Schwa;
layers = (
{
layerId = master01;
paths = (
{
closed = 1;
nodes = (
"188 720 OFFCURVE",
"109 698 OFFCURVE",
"90 689 CURVE SMOOTH",
"86 687 OFFCURVE",
"85 684 OFFCURVE",
"85 681 CURVE SMOOTH",
"85 638 OFFCURVE",
"85 595 OFFCURVE",
"85 552 CURVE",
"105 552 LINE",
"150 566 OFFCURVE",
"197 575 OFFCURVE",
"268 575 CURVE SMOOTH",
"322 575 OFFCURVE",
"355 568 OFFCURVE",
"374 550 CURVE SMOOTH",
"389 535 OFFCURVE",
"395 512 OFFCURVE",
"395 478 CURVE",
"395 214 LINE SMOOTH",
"395 140 OFFCURVE",
"372 109 OFFCURVE",
"295 109 CURVE SMOOTH",
"263 109 OFFCURVE",
"242 117 OFFCURVE",
"228 131 CURVE SMOOTH",
"212 147 OFFCURVE",
"206 173 OFFCURVE",
"206 207 CURVE",
"206 288 LINE",
"304 288 OFFCURVE",
"402 288 OFFCURVE",
"500 288 CURVE",
"499 426 LINE",
"425 418 LINE",
"391 418 OFFCURVE",
"357 418 OFFCURVE",
"322 418 CURVE",
"66 418 LINE",
"60 418 OFFCURVE",
"56 414 OFFCURVE",
"56 408 CURVE SMOOTH",
"56 216 LINE SMOOTH",
"56 50 OFFCURVE",
"153 -26 OFFCURVE",
"296 -26 CURVE SMOOTH",
"455 -26 OFFCURVE",
"545 82 OFFCURVE",
"545 221 CURVE SMOOTH",
"545 476 LINE SMOOTH",
"545 639 OFFCURVE",
"458 720 OFFCURVE",
"281 720 CURVE"
);
}
);
width = 600;
},
{
associatedMasterId = master01;
layerId = "73DF7853-7B58-40E2-9B7E-EEBFCFB2A594";
name = foreground;
paths = (
{
closed = 1;
nodes = (
"188 720 OFFCURVE",
"109 698 OFFCURVE",
"90 689 CURVE SMOOTH",
"86 687 OFFCURVE",
"85 684 OFFCURVE",
"85 681 CURVE SMOOTH",
"85 638 OFFCURVE",
"85 595 OFFCURVE",
"85 552 CURVE",
"105 552 LINE",
"150 566 OFFCURVE",
"197 575 OFFCURVE",
"268 575 CURVE SMOOTH",
"322 575 OFFCURVE",
"355 568 OFFCURVE",
"374 550 CURVE SMOOTH",
"389 535 OFFCURVE",
"395 512 OFFCURVE",
"395 478 CURVE",
"395 214 LINE SMOOTH",
"395 140 OFFCURVE",
"372 109 OFFCURVE",
"295 109 CURVE SMOOTH",
"263 109 OFFCURVE",
"242 117 OFFCURVE",
"228 131 CURVE SMOOTH",
"212 147 OFFCURVE",
"206 173 OFFCURVE",
"206 207 CURVE",
"206 288 LINE",
"304 288 OFFCURVE",
"402 288 OFFCURVE",
"500 288 CURVE",
"499 426 LINE",
"425 418 LINE",
"391 418 OFFCURVE",
"357 418 OFFCURVE",
"322 418 CURVE",
"66 418 LINE",
"60 418 OFFCURVE",
"56 414 OFFCURVE",
"56 408 CURVE SMOOTH",
"56 216 LINE SMOOTH",
"56 50 OFFCURVE",
"153 -26 OFFCURVE",
"296 -26 CURVE SMOOTH",
"455 -26 OFFCURVE",
"545 82 OFFCURVE",
"545 221 CURVE SMOOTH",
"545 476 LINE SMOOTH",
"545 639 OFFCURVE",
"458 720 OFFCURVE",
"281 720 CURVE"
);
}
);
width = 600;
}
);
rightKerningGroup = O_right;
unicode = 018F;
},
{
color = (0,0,0,64);
glyphname = Nhookleft;
layers = (
{
components = (
{
name = N;
}
);
layerId = master01;
paths = (
{
closed = 1;
nodes = (
"4 -55 OFFCURVE",
"-4 -53 OFFCURVE",
"-15 -49 CURVE",
"-35 -49 LINE",
"-35 -92 OFFCURVE",
"-35 -136 OFFCURVE",
"-35 -178 CURVE",
"-35 -181 OFFCURVE",
"-34 -184 OFFCURVE",
"-32 -186 CURVE SMOOTH",
"-23 -195 OFFCURVE",
"11 -202 OFFCURVE",
"41 -202 CURVE SMOOTH",
"50 -202 LINE SMOOTH",
"157 -202 OFFCURVE",
"200 -122 OFFCURVE",
"200 -9 CURVE SMOOTH",
"200 4 LINE SMOOTH",
"200 15 OFFCURVE",
"193 21 OFFCURVE",
"50 21 CURVE",
"50 6 LINE SMOOTH",
"50 -40 OFFCURVE",
"44 -55 OFFCURVE",
"18 -55 CURVE SMOOTH"
);
}
);
width = 650;
},
{
associatedMasterId = master01;
components = (
{
name = N;
}
);
layerId = "7939BFED-816B-479D-9758-FA96E2A8752B";
name = foreground;
paths = (
{
closed = 1;
nodes = (
"4 -55 OFFCURVE",
"-4 -53 OFFCURVE",
"-15 -49 CURVE",
"-35 -49 LINE",
"-35 -92 OFFCURVE",
"-35 -136 OFFCURVE",
"-35 -178 CURVE",
"-35 -181 OFFCURVE",
"-34 -184 OFFCURVE",
"-32 -186 CURVE SMOOTH",
"-23 -195 OFFCURVE",
"11 -202 OFFCURVE",
"41 -202 CURVE SMOOTH",
"50 -202 LINE SMOOTH",
"157 -202 OFFCURVE",
"200 -122 OFFCURVE",
"200 -9 CURVE SMOOTH",
"200 4 LINE SMOOTH",
"200 15 OFFCURVE",
"193 21 OFFCURVE",
"50 21 CURVE",
"50 6 LINE SMOOTH",
"50 -40 OFFCURVE",
"44 -55 OFFCURVE",
"18 -55 CURVE SMOOTH"
);
}
);
width = 650;
}
);
rightKerningGroup = H_right;
unicode = 019D;
},
{
glyphname = DZcaron;
layers = (
{
layerId = master01;
paths = (
{
closed = 1;
nodes = (
"262 700 OFFCURVE",
"113 700 OFFCURVE",
"30 700 CURVE",
"30 660 OFFCURVE",
"30 609 OFFCURVE",
"30 569 CURVE SMOOTH",
"30 562 OFFCURVE",
"34 558 OFFCURVE",
"41 558 CURVE SMOOTH",
"123 558 OFFCURVE",
"274 558 OFFCURVE",
"356 558 CURVE",
"387 558 OFFCURVE",
"408 552 OFFCURVE",
"422 538 CURVE SMOOTH",
"438 522 OFFCURVE",
"445 495 OFFCURVE",
"445 453 CURVE SMOOTH",
"445 247 LINE SMOOTH",
"445 183 OFFCURVE",
"423 142 OFFCURVE",
"356 142 CURVE",
"333 142 OFFCURVE",
"257 142 OFFCURVE",
"235 142 CURVE",
"235 262 OFFCURVE",
"235 361 OFFCURVE",
"235 481 CURVE SMOOTH",
"235 516 OFFCURVE",
"235 562 OFFCURVE",
"235 597 CURVE SMOOTH",
"245 622 LINE",
"75 622 LINE",
"75 419 OFFCURVE",
"75 214 OFFCURVE",
"75 11 CURVE SMOOTH",
"75 4 OFFCURVE",
"79 0 OFFCURVE",
"86 0 CURVE SMOOTH",
"104 0 OFFCURVE",
"286 0 OFFCURVE",
"359 0 CURVE SMOOTH",
"506 0 OFFCURVE",
"595 90 OFFCURVE",
"595 238 CURVE SMOOTH",
"595 463 LINE SMOOTH",
"595 603 OFFCURVE",
"527 700 OFFCURVE",
"345 700 CURVE SMOOTH"
);
},
{
closed = 1;
nodes = (
"1185 44 OFFCURVE",
"1185 87 OFFCURVE",
"1185 131 CURVE",
"1185 138 OFFCURVE",
"1181 142 OFFCURVE",
"1174 142 CURVE SMOOTH",
"1080 142 LINE SMOOTH",
"1013 142 OFFCURVE",
"921 142 OFFCURVE",
"815 142 CURVE",
"831 116 LINE",
"831 188 LINE",
"806 152 LINE",
"860 178 OFFCURVE",
"897 200 OFFCURVE",
"938 249 CURVE SMOOTH",
"1018 346 OFFCURVE",
"1099 442 OFFCURVE",
"1180 539 CURVE",
"1180 689 LINE SMOOTH",
"1180 696 OFFCURVE",
"1176 700 OFFCURVE",
"1169 700 CURVE",
"680 700 LINE",
"680 610 OFFCURVE",
"724 558 OFFCURVE",
"811 558 CURVE SMOOTH",
"847 558 LINE SMOOTH",
"894 558 OFFCURVE",
"938 558 OFFCURVE",
"1044 558 CURVE",
"1029 584 LINE",
"1029 512 LINE",
"1054 548 LINE",
"1000 522 OFFCURVE",
"962 499 OFFCURVE",
"922 451 CURVE SMOOTH",
"841 354 OFFCURVE",
"761 257 OFFCURVE",
"680 161 CURVE",
"680 11 LINE SMOOTH",
"680 4 OFFCURVE",
"684 0 OFFCURVE",
"691 0 CURVE SMOOTH",
"1185 0 LINE"
);
},
{
closed = 1;
nodes = (
"820 528 OFFCURVE",
"820 560 OFFCURVE",
"820 579 CURVE SMOOTH",
"820 666 OFFCURVE",
"792 700 OFFCURVE",
"680 700 CURVE",
"680 655 OFFCURVE",
"680 565 OFFCURVE",
"680 521 CURVE SMOOTH",
"680 514 OFFCURVE",
"684 510 OFFCURVE",
"691 510 CURVE",
"737 510 OFFCURVE",
"774 510 OFFCURVE",
"820 510 CURVE"
);
},
{
closed = 1;
nodes = (
"1050 813 OFFCURVE",
"1112 878 OFFCURVE",
"1146 914 CURVE SMOOTH",
"1164 933 OFFCURVE",
"1166 935 OFFCURVE",
"1166 940 CURVE SMOOTH",
"1166 945 OFFCURVE",
"1163 947 OFFCURVE",
"1155 947 CURVE SMOOTH",
"1028 947 LINE",
"997 920 OFFCURVE",
"958 888 OFFCURVE",
"911 842 CURVE",
"961 865 LINE",
"939 865 OFFCURVE",
"917 865 OFFCURVE",
"895 865 CURVE",
"947 844 LINE",
"896 893 OFFCURVE",
"863 921 OFFCURVE",
"843 937 CURVE SMOOTH",
"832 945 OFFCURVE",
"830 947 OFFCURVE",
"815 947 CURVE SMOOTH",
"778 947 OFFCURVE",
"719 947 OFFCURVE",
"682 947 CURVE",
"737 889 OFFCURVE",
"808 815 OFFCURVE",
"829 794 CURVE SMOOTH",
"846 777 OFFCURVE",
"851 775 OFFCURVE",
"860 775 CURVE SMOOTH",
"890 775 OFFCURVE",
"982 775 OFFCURVE",
"1013 775 CURVE"
);
}
);
width = 1250;
},
{
associatedMasterId = master01;
layerId = "F808C6C6-C942-4DAB-9947-94D6EFDDAFED";
name = foreground;
paths = (
{
closed = 1;
nodes = (
"262 700 OFFCURVE",
"113 700 OFFCURVE",
"30 700 CURVE",
"30 660 OFFCURVE",
"30 609 OFFCURVE",
"30 569 CURVE SMOOTH",
"30 562 OFFCURVE",
"34 558 OFFCURVE",
"41 558 CURVE SMOOTH",
"123 558 OFFCURVE",
"274 558 OFFCURVE",
"356 558 CURVE",
"387 558 OFFCURVE",
"408 552 OFFCURVE",
"422 538 CURVE SMOOTH",
"438 522 OFFCURVE",
"445 495 OFFCURVE",
"445 453 CURVE SMOOTH",
"445 247 LINE SMOOTH",
"445 183 OFFCURVE",
"423 142 OFFCURVE",
"356 142 CURVE",
"333 142 OFFCURVE",
"257 142 OFFCURVE",
"235 142 CURVE",
"235 262 OFFCURVE",
"235 361 OFFCURVE",
"235 481 CURVE SMOOTH",
"235 516 OFFCURVE",
"235 562 OFFCURVE",
"235 597 CURVE SMOOTH",
"245 622 LINE",
"75 622 LINE",
"75 419 OFFCURVE",
"75 214 OFFCURVE",
"75 11 CURVE SMOOTH",
"75 4 OFFCURVE",
"79 0 OFFCURVE",
"86 0 CURVE SMOOTH",
"104 0 OFFCURVE",
"286 0 OFFCURVE",
"359 0 CURVE SMOOTH",
"506 0 OFFCURVE",
"595 90 OFFCURVE",
"595 238 CURVE SMOOTH",
"595 463 LINE SMOOTH",
"595 603 OFFCURVE",
"527 700 OFFCURVE",
"345 700 CURVE SMOOTH"
);
},
{
closed = 1;
nodes = (
"1185 44 OFFCURVE",
"1185 87 OFFCURVE",
"1185 131 CURVE",
"1185 138 OFFCURVE",
"1181 142 OFFCURVE",
"1174 142 CURVE SMOOTH",
"1080 142 LINE SMOOTH",
"1013 142 OFFCURVE",
"921 142 OFFCURVE",
"815 142 CURVE",
"831 116 LINE",
"831 188 LINE",
"806 152 LINE",
"860 178 OFFCURVE",
"897 200 OFFCURVE",
"938 249 CURVE SMOOTH",
"1018 346 OFFCURVE",
"1099 442 OFFCURVE",
"1180 539 CURVE",
"1180 689 LINE SMOOTH",
"1180 696 OFFCURVE",
"1176 700 OFFCURVE",
"1169 700 CURVE",
"680 700 LINE",
"680 610 OFFCURVE",
"724 558 OFFCURVE",
"811 558 CURVE SMOOTH",
"847 558 LINE SMOOTH",
"894 558 OFFCURVE",
"938 558 OFFCURVE",
"1044 558 CURVE",
"1029 584 LINE",
"1029 512 LINE",
"1054 548 LINE",
"1000 522 OFFCURVE",
"962 499 OFFCURVE",
"922 451 CURVE SMOOTH",
"841 354 OFFCURVE",
"761 257 OFFCURVE",
"680 161 CURVE",
"680 11 LINE SMOOTH",
"680 4 OFFCURVE",
"684 0 OFFCURVE",
"691 0 CURVE SMOOTH",
"1185 0 LINE"
);
},
{
closed = 1;
nodes = (
"820 528 OFFCURVE",
"820 560 OFFCURVE",
"820 579 CURVE SMOOTH",
"820 666 OFFCURVE",
"792 700 OFFCURVE",
"680 700 CURVE",
"680 655 OFFCURVE",
"680 565 OFFCURVE",
"680 521 CURVE SMOOTH",
"680 514 OFFCURVE",
"684 510 OFFCURVE",
"691 510 CURVE",
"737 510 OFFCURVE",
"774 510 OFFCURVE",
"820 510 CURVE"
);
},
{
closed = 1;
nodes = (
"1050 813 OFFCURVE",
"1112 878 OFFCURVE",
"1146 914 CURVE SMOOTH",
"1164 933 OFFCURVE",
"1166 935 OFFCURVE",
"1166 940 CURVE SMOOTH",
"1166 945 OFFCURVE",
"1163 947 OFFCURVE",
"1155 947 CURVE SMOOTH",
"1028 947 LINE",
"997 920 OFFCURVE",
"958 888 OFFCURVE",
"911 842 CURVE",
"961 865 LINE",
"939 865 OFFCURVE",
"917 865 OFFCURVE",
"895 865 CURVE",
"947 844 LINE",
"896 893 OFFCURVE",
"863 921 OFFCURVE",
"843 937 CURVE SMOOTH",
"832 945 OFFCURVE",
"830 947 OFFCURVE",
"815 947 CURVE SMOOTH",
"778 947 OFFCURVE",
"719 947 OFFCURVE",
"682 947 CURVE",
"737 889 OFFCURVE",
"808 815 OFFCURVE",
"829 794 CURVE SMOOTH",
"846 777 OFFCURVE",
"851 775 OFFCURVE",
"860 775 CURVE SMOOTH",
"890 775 OFFCURVE",
"982 775 OFFCURVE",
"1013 775 CURVE"
);
}
);
width = 1250;
}
);
leftKerningGroup = E_left;
rightKerningGroup = Z_right;
unicode = 01C4;
},
{
glyphname = LJ;
layers = (
{
layerId = master01;
paths = (
{
closed = 1;
nodes = (
"500 0 LINE",
"484 100 OFFCURVE",
"458 135 OFFCURVE",
"379 135 CURVE",
"230 135 LINE",
"230 317 OFFCURVE",
"230 507 OFFCURVE",
"230 689 CURVE",
"230 695 OFFCURVE",
"225 700 OFFCURVE",
"219 700 CURVE",
"169 700 OFFCURVE",
"120 700 OFFCURVE",
"70 700 CURVE",
"70 673 OFFCURVE",
"70 647 OFFCURVE",
"70 620 CURVE",
"70 417 OFFCURVE",
"70 214 OFFCURVE",
"70 11 CURVE SMOOTH",
"70 5 OFFCURVE",
"75 0 OFFCURVE",
"81 0 CURVE SMOOTH"
);
},
{
closed = 1;
nodes = (
"360 182 OFFCURVE",
"360 146 OFFCURVE",
"360 121 CURVE SMOOTH",
"360 55 OFFCURVE",
"393 10 OFFCURVE",
"500 0 CURVE",
"500 51 OFFCURVE",
"500 144 OFFCURVE",
"500 194 CURVE SMOOTH",
"500 200 OFFCURVE",
"495 205 OFFCURVE",
"489 205 CURVE SMOOTH",
"443 205 OFFCURVE",
"406 205 OFFCURVE",
"360 205 CURVE"
);
},
{
closed = 1;
nodes = (
"564 -72 OFFCURVE",
"643 -72 OFFCURVE",
"683 -72 CURVE SMOOTH",
"705 -72 OFFCURVE",
"712 -68 OFFCURVE",
"726 -50 CURVE SMOOTH",
"765 2 OFFCURVE",
"790 70 OFFCURVE",
"790 208 CURVE SMOOTH",
"790 393 OFFCURVE",
"790 541 OFFCURVE",
"790 689 CURVE SMOOTH",
"790 696 OFFCURVE",
"786 700 OFFCURVE",
"779 700 CURVE SMOOTH",
"711 700 OFFCURVE",
"556 700 OFFCURVE",
"512 700 CURVE",
"512 656 OFFCURVE",
"512 620 OFFCURVE",
"512 576 CURVE SMOOTH",
"512 569 OFFCURVE",
"516 565 OFFCURVE",
"523 565 CURVE SMOOTH",
"542 565 OFFCURVE",
"616 565 OFFCURVE",
"658 565 CURVE",
"611 590 LINE",
"652 544 LINE",
"630 592 LINE",
"630 456 OFFCURVE",
"630 271 OFFCURVE",
"630 207 CURVE SMOOTH",
"630 60 OFFCURVE",
"600 1 OFFCURVE",
"524 -72 CURVE"
);
}
);
width = 850;
},
{
associatedMasterId = master01;
layerId = "42B64855-55F7-430C-AF8C-31AEC8708208";
name = foreground;
paths = (
{
closed = 1;
nodes = (
"500 0 LINE",
"484 100 OFFCURVE",
"458 135 OFFCURVE",
"379 135 CURVE",
"230 135 LINE",
"230 317 OFFCURVE",
"230 507 OFFCURVE",
"230 689 CURVE",
"230 695 OFFCURVE",
"225 700 OFFCURVE",
"219 700 CURVE",
"169 700 OFFCURVE",
"120 700 OFFCURVE",
"70 700 CURVE",
"70 673 OFFCURVE",
"70 647 OFFCURVE",
"70 620 CURVE",
"70 417 OFFCURVE",
"70 214 OFFCURVE",
"70 11 CURVE SMOOTH",
"70 5 OFFCURVE",
"75 0 OFFCURVE",
"81 0 CURVE SMOOTH"
);
},
{
closed = 1;
nodes = (
"360 182 OFFCURVE",
"360 146 OFFCURVE",
"360 121 CURVE SMOOTH",
"360 55 OFFCURVE",
"393 10 OFFCURVE",
"500 0 CURVE",
"500 51 OFFCURVE",
"500 144 OFFCURVE",
"500 194 CURVE SMOOTH",
"500 200 OFFCURVE",
"495 205 OFFCURVE",
"489 205 CURVE SMOOTH",
"443 205 OFFCURVE",
"406 205 OFFCURVE",
"360 205 CURVE"
);
},
{
closed = 1;
nodes = (
"564 -72 OFFCURVE",
"643 -72 OFFCURVE",
"683 -72 CURVE SMOOTH",
"705 -72 OFFCURVE",
"712 -68 OFFCURVE",
"726 -50 CURVE SMOOTH",
"765 2 OFFCURVE",
"790 70 OFFCURVE",
"790 208 CURVE SMOOTH",
"790 393 OFFCURVE",
"790 541 OFFCURVE",
"790 689 CURVE SMOOTH",
"790 696 OFFCURVE",
"786 700 OFFCURVE",
"779 700 CURVE SMOOTH",
"711 700 OFFCURVE",
"556 700 OFFCURVE",
"512 700 CURVE",
"512 656 OFFCURVE",
"512 620 OFFCURVE",
"512 576 CURVE SMOOTH",
"512 569 OFFCURVE",
"516 565 OFFCURVE",
"523 565 CURVE SMOOTH",
"542 565 OFFCURVE",
"616 565 OFFCURVE",
"658 565 CURVE",
"611 590 LINE",
"652 544 LINE",
"630 592 LINE",
"630 456 OFFCURVE",
"630 271 OFFCURVE",
"630 207 CURVE SMOOTH",
"630 60 OFFCURVE",
"600 1 OFFCURVE",
"524 -72 CURVE"
);
}
);
width = 850;
}
);
leftKerningGroup = N_left;
rightKerningGroup = H_right;
unicode = 01C7;
},
{
glyphname = NJ;
layers = (
{
layerId = master01;
paths = (
{
closed = 1;
nodes = (
"200 54 OFFCURVE",
"200 109 OFFCURVE",
"200 163 CURVE",
"200 231 OFFCURVE",
"196 341 OFFCURVE",
"167 490 CURVE",
"148 480 LINE",
"221 480 LINE",
"174 513 LINE",
"248 359 OFFCURVE",
"308 241 OFFCURVE",
"448 8 CURVE SMOOTH",
"452 1 OFFCURVE",
"455 0 OFFCURVE",
"463 0 CURVE SMOOTH",
"501 0 OFFCURVE",
"558 0 OFFCURVE",
"600 0 CURVE",
"600 33 OFFCURVE",
"600 67 OFFCURVE",
"600 100 CURVE SMOOTH",
"600 296 OFFCURVE",
"600 493 OFFCURVE",
"600 689 CURVE SMOOTH",
"600 695 OFFCURVE",
"595 700 OFFCURVE",
"589 700 CURVE SMOOTH",
"543 700 OFFCURVE",
"496 700 OFFCURVE",
"450 700 CURVE",
"450 651 OFFCURVE",
"450 603 OFFCURVE",
"450 567 CURVE SMOOTH",
"450 464 OFFCURVE",
"457 379 OFFCURVE",
"488 233 CURVE",
"509 243 LINE",
"439 243 LINE",
"479 217 LINE",
"405 369 OFFCURVE",
"343 482 OFFCURVE",
"230 690 CURVE SMOOTH",
"225 700 OFFCURVE",
"225 700 OFFCURVE",
"213 700 CURVE SMOOTH",
"168 700 OFFCURVE",
"95 700 OFFCURVE",
"50 700 CURVE",
"50 667 OFFCURVE",
"50 633 OFFCURVE",
"50 600 CURVE SMOOTH",
"50 404 OFFCURVE",
"50 207 OFFCURVE",
"50 11 CURVE",
"50 5 OFFCURVE",
"55 0 OFFCURVE",
"61 0 CURVE SMOOTH",
"107 0 OFFCURVE",
"154 0 OFFCURVE",
"200 0 CURVE"
);
},
{
closed = 1;
nodes = (
"674 -72 OFFCURVE",
"753 -72 OFFCURVE",
"793 -72 CURVE SMOOTH",
"815 -72 OFFCURVE",
"822 -68 OFFCURVE",
"836 -50 CURVE SMOOTH",
"875 2 OFFCURVE",
"900 70 OFFCURVE",
"900 208 CURVE SMOOTH",
"900 393 OFFCURVE",
"900 541 OFFCURVE",
"900 689 CURVE SMOOTH",
"900 696 OFFCURVE",
"896 700 OFFCURVE",
"889 700 CURVE SMOOTH",
"821 700 OFFCURVE",
"686 700 OFFCURVE",
"642 700 CURVE",
"642 656 OFFCURVE",
"642 620 OFFCURVE",
"642 576 CURVE SMOOTH",
"642 569 OFFCURVE",
"646 565 OFFCURVE",
"653 565 CURVE SMOOTH",
"672 565 OFFCURVE",
"726 565 OFFCURVE",
"768 565 CURVE",
"721 590 LINE",
"762 544 LINE",
"740 592 LINE",
"740 456 OFFCURVE",
"740 271 OFFCURVE",
"740 207 CURVE SMOOTH",
"740 60 OFFCURVE",
"710 1 OFFCURVE",
"634 -72 CURVE"
);
}
);
width = 950;
},
{
associatedMasterId = master01;
layerId = "8A0D2C17-8FC3-4314-BCCD-F7ED581CD7EF";
name = foreground;
paths = (
{
closed = 1;
nodes = (
"200 54 OFFCURVE",
"200 109 OFFCURVE",
"200 163 CURVE",
"200 231 OFFCURVE",
"196 341 OFFCURVE",
"167 490 CURVE",
"148 480 LINE",
"221 480 LINE",
"174 513 LINE",
"248 359 OFFCURVE",
"308 241 OFFCURVE",
"448 8 CURVE SMOOTH",
"452 1 OFFCURVE",
"455 0 OFFCURVE",
"463 0 CURVE SMOOTH",
"501 0 OFFCURVE",
"558 0 OFFCURVE",
"600 0 CURVE",
"600 33 OFFCURVE",
"600 67 OFFCURVE",
"600 100 CURVE SMOOTH",
"600 296 OFFCURVE",
"600 493 OFFCURVE",
"600 689 CURVE SMOOTH",
"600 695 OFFCURVE",
"595 700 OFFCURVE",
"589 700 CURVE SMOOTH",
"543 700 OFFCURVE",
"496 700 OFFCURVE",
"450 700 CURVE",
"450 651 OFFCURVE",
"450 603 OFFCURVE",
"450 567 CURVE SMOOTH",
"450 464 OFFCURVE",
"457 379 OFFCURVE",
"488 233 CURVE",
"509 243 LINE",
"439 243 LINE",
"479 217 LINE",
"405 369 OFFCURVE",
"343 482 OFFCURVE",
"230 690 CURVE SMOOTH",
"225 700 OFFCURVE",
"225 700 OFFCURVE",
"213 700 CURVE SMOOTH",
"168 700 OFFCURVE",
"95 700 OFFCURVE",
"50 700 CURVE",
"50 667 OFFCURVE",
"50 633 OFFCURVE",
"50 600 CURVE SMOOTH",
"50 404 OFFCURVE",
"50 207 OFFCURVE",
"50 11 CURVE",
"50 5 OFFCURVE",
"55 0 OFFCURVE",
"61 0 CURVE SMOOTH",
"107 0 OFFCURVE",
"154 0 OFFCURVE",
"200 0 CURVE"
);
},
{
closed = 1;
nodes = (
"674 -72 OFFCURVE",
"753 -72 OFFCURVE",
"793 -72 CURVE SMOOTH",
"815 -72 OFFCURVE",
"822 -68 OFFCURVE",
"836 -50 CURVE SMOOTH",
"875 2 OFFCURVE",
"900 70 OFFCURVE",
"900 208 CURVE SMOOTH",
"900 393 OFFCURVE",
"900 541 OFFCURVE",
"900 689 CURVE SMOOTH",
"900 696 OFFCURVE",
"896 700 OFFCURVE",
"889 700 CURVE SMOOTH",
"821 700 OFFCURVE",
"686 700 OFFCURVE",
"642 700 CURVE",
"642 656 OFFCURVE",
"642 620 OFFCURVE",
"642 576 CURVE SMOOTH",
"642 569 OFFCURVE",
"646 565 OFFCURVE",
"653 565 CURVE SMOOTH",
"672 565 OFFCURVE",
"726 565 OFFCURVE",
"768 565 CURVE",
"721 590 LINE",
"762 544 LINE",
"740 592 LINE",
"740 456 OFFCURVE",
"740 271 OFFCURVE",
"740 207 CURVE SMOOTH",
"740 60 OFFCURVE",
"710 1 OFFCURVE",
"634 -72 CURVE"
);
}
);
width = 950;
}
);
leftKerningGroup = N_left;
rightKerningGroup = H_right;
unicode = 01CA;
},
{
color = (0,0,0,64);
glyphname = Germandbls;
layers = (
{
layerId = master01;
paths = (
{
closed = 1;
nodes = (
"235 28 OFFCURVE",
"235 62 OFFCURVE",
"235 98 CURVE",
"235 240 OFFCURVE",
"235 383 OFFCURVE",
"235 525 CURVE",
"235 561 OFFCURVE",
"235 596 OFFCURVE",
"235 632 CURVE SMOOTH",
"245 649 LINE",
"75 649 LINE",
"75 437 OFFCURVE",
"75 223 OFFCURVE",
"75 11 CURVE SMOOTH",
"75 4 OFFCURVE",
"79 0 OFFCURVE",
"86 0 CURVE",
"136 0 OFFCURVE",
"185 0 OFFCURVE",
"235 0 CURVE"
);
},
{
closed = 1;
nodes = (
"351 136 OFFCURVE",
"331 142 OFFCURVE",
"310 154 CURVE",
"290 154 LINE",
"290 109 OFFCURVE",
"290 64 OFFCURVE",
"290 19 CURVE SMOOTH",
"290 16 OFFCURVE",
"290 14 OFFCURVE",
"292 12 CURVE SMOOTH",
"297 7 OFFCURVE",
"334 -9 OFFCURVE",
"395 -9 CURVE SMOOTH",
"495 -9 OFFCURVE",
"572 46 OFFCURVE",
"572 158 CURVE SMOOTH",
"572 176 LINE SMOOTH",
"572 253 OFFCURVE",
"560 298 OFFCURVE",
"486 344 CURVE SMOOTH",
"459 361 LINE SMOOTH",
"431 378 OFFCURVE",
"423 388 OFFCURVE",
"423 398 CURVE SMOOTH",
"423 408 OFFCURVE",
"430 417 OFFCURVE",
"460 443 CURVE SMOOTH",
"488 467 LINE SMOOTH",
"531 504 OFFCURVE",
"540 529 OFFCURVE",
"540 579 CURVE SMOOTH",
"540 689 LINE",
"540 696 OFFCURVE",
"536 700 OFFCURVE",
"529 700 CURVE",
"369 700 OFFCURVE",
"210 700 OFFCURVE",
"50 700 CURVE",
"50 656 OFFCURVE",
"50 613 OFFCURVE",
"50 569 CURVE SMOOTH",
"50 562 OFFCURVE",
"54 558 OFFCURVE",
"61 558 CURVE",
"191 558 OFFCURVE",
"320 558 OFFCURVE",
"450 558 CURVE",
"376 580 LINE",
"376 526 LINE",
"432 572 LINE",
"412.8 561.895 OFFCURVE",
"384.625 546.137 OFFCURVE",
"363 528 CURVE SMOOTH",
"332 502 LINE SMOOTH",
"303.406 478.018 OFFCURVE",
"284 448.333 OFFCURVE",
"284 410 CURVE SMOOTH",
"284 378 LINE SMOOTH",
"284 342 OFFCURVE",
"294 308 OFFCURVE",
"354 271 CURVE SMOOTH",
"380 255 LINE SMOOTH",
"422 229 OFFCURVE",
"431 220 OFFCURVE",
"431 182 CURVE",
"431 168 OFFCURVE",
"428 156 OFFCURVE",
"419 148 CURVE SMOOTH",
"412 140 OFFCURVE",
"400 136 OFFCURVE",
"382 136 CURVE SMOOTH"
);
}
);
width = 600;
},
{
associatedMasterId = master01;
layerId = "722B8BED-181B-4180-ADAB-277D14B4D367";
name = foreground;
paths = (
{
closed = 1;
nodes = (
"235 28 OFFCURVE",
"235 62 OFFCURVE",
"235 98 CURVE",
"235 240 OFFCURVE",
"235 383 OFFCURVE",
"235 525 CURVE",
"235 561 OFFCURVE",
"235 596 OFFCURVE",
"235 632 CURVE SMOOTH",
"245 649 LINE",
"75 649 LINE",
"75 437 OFFCURVE",
"75 223 OFFCURVE",
"75 11 CURVE SMOOTH",
"75 4 OFFCURVE",
"79 0 OFFCURVE",
"86 0 CURVE",
"136 0 OFFCURVE",
"185 0 OFFCURVE",
"235 0 CURVE"
);
},
{
closed = 1;
nodes = (
"351 136 OFFCURVE",
"331 142 OFFCURVE",
"310 154 CURVE",
"290 154 LINE",
"290 109 OFFCURVE",
"290 64 OFFCURVE",
"290 19 CURVE SMOOTH",
"290 16 OFFCURVE",
"290 14 OFFCURVE",
"292 12 CURVE SMOOTH",
"297 7 OFFCURVE",
"334 -9 OFFCURVE",
"395 -9 CURVE SMOOTH",
"495 -9 OFFCURVE",
"572 46 OFFCURVE",
"572 158 CURVE SMOOTH",
"572 176 LINE SMOOTH",
"572 253 OFFCURVE",
"560 298 OFFCURVE",
"486 344 CURVE SMOOTH",
"459 361 LINE SMOOTH",
"431 378 OFFCURVE",
"423 388 OFFCURVE",
"423 398 CURVE SMOOTH",
"423 408 OFFCURVE",
"430 417 OFFCURVE",
"460 443 CURVE SMOOTH",
"488 467 LINE SMOOTH",
"531 504 OFFCURVE",
"540 529 OFFCURVE",
"540 579 CURVE SMOOTH",
"540 689 LINE",
"540 696 OFFCURVE",
"536 700 OFFCURVE",
"529 700 CURVE",
"369 700 OFFCURVE",
"210 700 OFFCURVE",
"50 700 CURVE",
"50 656 OFFCURVE",
"50 613 OFFCURVE",
"50 569 CURVE SMOOTH",
"50 562 OFFCURVE",
"54 558 OFFCURVE",
"61 558 CURVE",
"191 558 OFFCURVE",
"320 558 OFFCURVE",
"450 558 CURVE",
"376 580 LINE",
"376 526 LINE",
"432 572 LINE",
"412.8 561.895 OFFCURVE",
"384.625 546.137 OFFCURVE",
"363 528 CURVE SMOOTH",
"332 502 LINE SMOOTH",
"303.406 478.018 OFFCURVE",
"284 448.333 OFFCURVE",
"284 410 CURVE SMOOTH",
"284 378 LINE SMOOTH",
"284 342 OFFCURVE",
"294 308 OFFCURVE",
"354 271 CURVE SMOOTH",
"380 255 LINE SMOOTH",
"422 229 OFFCURVE",
"431 220 OFFCURVE",
"431 182 CURVE",
"431 168 OFFCURVE",
"428 156 OFFCURVE",
"419 148 CURVE SMOOTH",
"412 140 OFFCURVE",
"400 136 OFFCURVE",
"382 136 CURVE SMOOTH"
);
}
);
width = 600;
}
);
leftKerningGroup = E_left;
rightKerningGroup = B_right;
unicode = 1E9E;
},
{
color = (0,0,0,64);
glyphname = ohm;
layers = (
{
layerId = master01;
paths = (
{
closed = 1;
nodes = (
"149 720 OFFCURVE",
"55 626 OFFCURVE",
"55 478 CURVE",
"55 336 LINE SMOOTH",
"55 235 OFFCURVE",
"94 170 OFFCURVE",
"165 156 CURVE",
"142 171 LINE",
"142 115 LINE",
"172 143 LINE",
"40 143 LINE",
"40 99 OFFCURVE",
"40 55 OFFCURVE",
"40 11 CURVE SMOOTH",
"40 4 OFFCURVE",
"44 0 OFFCURVE",
"51 0 CURVE SMOOTH",
"249 0 LINE",
"256 0 OFFCURVE",
"260 4 OFFCURVE",
"260 11 CURVE SMOOTH",
"260 64.62 OFFCURVE",
"260 119.38 OFFCURVE",
"260 173 CURVE",
"221 179 OFFCURVE",
"205 202 OFFCURVE",
"205 252 CURVE",
"205 469 LINE",
"205 544 OFFCURVE",
"234 578 OFFCURVE",
"299 578 CURVE SMOOTH",
"331 578 OFFCURVE",
"354 571 OFFCURVE",
"369 556 CURVE SMOOTH",
"387 537 OFFCURVE",
"394 512 OFFCURVE",
"394 469 CURVE",
"394 252 LINE",
"394 202 OFFCURVE",
"378 179 OFFCURVE",
"340 173 CURVE",
"340 119.38 OFFCURVE",
"340 64.62 OFFCURVE",
"340 11 CURVE SMOOTH",
"340 4 OFFCURVE",
"344 0 OFFCURVE",
"351 0 CURVE SMOOTH",
"560 0 LINE",
"560 44 OFFCURVE",
"560 88 OFFCURVE",
"560 132 CURVE SMOOTH",
"560 139 OFFCURVE",
"556 143 OFFCURVE",
"549 143 CURVE SMOOTH",
"423 143 LINE",
"458 116 LINE",
"458 170 LINE",
"435 156 LINE",
"507 170 OFFCURVE",
"544 239 OFFCURVE",
"544 356 CURVE SMOOTH",
"544 475 LINE",
"544 632 OFFCURVE",
"454 720 OFFCURVE",
"295 720 CURVE SMOOTH"
);
}
);
width = 600;
},
{
associatedMasterId = master01;
layerId = "B605BA62-6860-43AE-A2A0-8960F8E8EBDB";
name = foreground;
paths = (
{
closed = 1;
nodes = (
"149 720 OFFCURVE",
"55 626 OFFCURVE",
"55 478 CURVE",
"55 336 LINE SMOOTH",
"55 235 OFFCURVE",
"94 170 OFFCURVE",
"165 156 CURVE",
"142 171 LINE",
"142 115 LINE",
"172 143 LINE",
"40 143 LINE",
"40 99 OFFCURVE",
"40 55 OFFCURVE",
"40 11 CURVE SMOOTH",
"40 4 OFFCURVE",
"44 0 OFFCURVE",
"51 0 CURVE SMOOTH",
"249 0 LINE",
"256 0 OFFCURVE",
"260 4 OFFCURVE",
"260 11 CURVE SMOOTH",
"260 64.62 OFFCURVE",
"260 119.38 OFFCURVE",
"260 173 CURVE",
"221 179 OFFCURVE",
"205 202 OFFCURVE",
"205 252 CURVE",
"205 469 LINE",
"205 544 OFFCURVE",
"234 578 OFFCURVE",
"299 578 CURVE SMOOTH",
"331 578 OFFCURVE",
"354 571 OFFCURVE",
"369 556 CURVE SMOOTH",
"387 537 OFFCURVE",
"394 512 OFFCURVE",
"394 469 CURVE",
"394 252 LINE",
"394 202 OFFCURVE",
"378 179 OFFCURVE",
"340 173 CURVE",
"340 119.38 OFFCURVE",
"340 64.62 OFFCURVE",
"340 11 CURVE SMOOTH",
"340 4 OFFCURVE",
"344 0 OFFCURVE",
"351 0 CURVE SMOOTH",
"560 0 LINE",
"560 44 OFFCURVE",
"560 88 OFFCURVE",
"560 132 CURVE SMOOTH",
"560 139 OFFCURVE",
"556 143 OFFCURVE",
"549 143 CURVE SMOOTH",
"423 143 LINE",
"458 116 LINE",
"458 170 LINE",
"435 156 LINE",
"507 170 OFFCURVE",
"544 239 OFFCURVE",
"544 356 CURVE SMOOTH",
"544 475 LINE",
"544 632 OFFCURVE",
"454 720 OFFCURVE",
"295 720 CURVE SMOOTH"
);
}
);
width = 600;
}
);
unicode = 2126;
},
{
color = (0,0,0,64);
glyphname = a;
layers = (
{
anchors = (
{
name = bottom;
position = "{310, -1}";
},
{
name = hook;
position = "{299, 584}";
},
{
name = ogonek;
position = "{529, 0}";
},
{
name = top;
position = "{300, 551}";
}
);
background = {
paths = (
{
closed = 1;
nodes = (
"191 550 OFFCURVE",
"97 536 OFFCURVE",
"83 522 CURVE SMOOTH",
"81 520 OFFCURVE",
"80 517 OFFCURVE",
"80 514 CURVE SMOOTH",
"80 473 OFFCURVE",
"80 431 OFFCURVE",
"80 390 CURVE",
"100 390 LINE",
"150 404 OFFCURVE",
"200 410 OFFCURVE",
"255 410 CURVE SMOOTH",
"328 410 OFFCURVE",
"358 397 OFFCURVE",
"367 367 CURVE",
"477 457 OFFCURVE",
"478 474 OFFCURVE",
"462 490 CURVE SMOOTH",
"421 531 OFFCURVE",
"357 550 OFFCURVE",
"278 550 CURVE SMOOTH",
"249 550 LINE SMOOTH"
);
},
{
closed = 1;
nodes = (
"352 405 OFFCURVE",
"359 380 OFFCURVE",
"359 357 CURVE SMOOTH",
"359 277 OFFCURVE",
"359 251 OFFCURVE",
"359 187 CURVE SMOOTH",
"359 131 OFFCURVE",
"368 77 OFFCURVE",
"408 37 CURVE SMOOTH",
"438 7 OFFCURVE",
"497 24 OFFCURVE",
"514 33 CURVE",
"514 62 OFFCURVE",
"514 86 OFFCURVE",
"514 120 CURVE SMOOTH",
"514 195 OFFCURVE",
"514 213 OFFCURVE",
"514 310 CURVE SMOOTH",
"514 399 OFFCURVE",
"498 454 OFFCURVE",
"462 490 CURVE SMOOTH",
"447 505 OFFCURVE",
"428 504 OFFCURVE",
"337 428 CURVE"
);
},
{
closed = 1;
nodes = (
"566 -10 OFFCURVE",
"570 -6 OFFCURVE",
"570 1 CURVE SMOOTH",
"570 132 LINE",
"550 132 LINE",
"546 132 OFFCURVE",
"544 132 OFFCURVE",
"539 132 CURVE SMOOTH",
"521 132 OFFCURVE",
"506 141 OFFCURVE",
"491 180 CURVE",
"395 76 OFFCURVE",
"387 58 OFFCURVE",
"408 37 CURVE SMOOTH",
"448 -3 OFFCURVE",
"495 -10 OFFCURVE",
"559 -10 CURVE SMOOTH"
);
},
{
closed = 1;
nodes = (
"200 211 LINE SMOOTH",
"200 270 OFFCURVE",
"203 286 OFFCURVE",
"216 306 CURVE",
"178 317 OFFCURVE",
"124 311 OFFCURVE",
"96 283 CURVE SMOOTH",
"67 254 OFFCURVE",
"50 216 OFFCURVE",
"50 175 CURVE SMOOTH",
"50 134 LINE SMOOTH",
"50 51 OFFCURVE",
"110 -10 OFFCURVE",
"205 -10 CURVE SMOOTH",
"273 -10 OFFCURVE",
"340 23 OFFCURVE",
"392 95 CURVE SMOOTH",
"400 106 OFFCURVE",
"401 127 OFFCURVE",
"393 183 CURVE",
"352 141 OFFCURVE",
"319 125 OFFCURVE",
"275 125 CURVE SMOOTH",
"211 125 LINE SMOOTH",
"204 125 OFFCURVE",
"200 129 OFFCURVE",
"200 136 CURVE SMOOTH"
);
},
{
closed = 1;
nodes = (
"367 311 OFFCURVE",
"295 325 OFFCURVE",
"200 325 CURVE SMOOTH",
"161 325 OFFCURVE",
"124 311 OFFCURVE",
"96 283 CURVE SMOOTH",
"69 256 OFFCURVE",
"76 217 OFFCURVE",
"100 202 CURVE",
"127 214 OFFCURVE",
"159 220 OFFCURVE",
"193 220 CURVE SMOOTH",
"247 220 OFFCURVE",
"366 220 OFFCURVE",
"410 220 CURVE",
"410 248 OFFCURVE",
"402 276 OFFCURVE",
"384 294 CURVE SMOOTH"
);
}
);
};
layerId = master01;
paths = (
{
closed = 1;
nodes = (
"514 489.681 OFFCURVE",
"440 550 OFFCURVE",
"267 550 CURVE SMOOTH",
"195 550 OFFCURVE",
"105 530 OFFCURVE",
"93 518 CURVE SMOOTH",
"91 516 OFFCURVE",
"90 513 OFFCURVE",
"90 508 CURVE SMOOTH",
"90 470.299 OFFCURVE",
"90 428 OFFCURVE",
"90 390 CURVE",
"110 390 LINE",
"162 406 OFFCURVE",
"210 413 OFFCURVE",
"267 413 CURVE SMOOTH",
"336.587 413 OFFCURVE",
"364 397 OFFCURVE",
"364 347 CURVE",
"364 314 OFFCURVE",
"364 284 OFFCURVE",
"364 251 CURVE SMOOTH",
"364 211 OFFCURVE",
"364 171 OFFCURVE",
"364 131 CURVE",
"364 53 OFFCURVE",
"415.97 0 OFFCURVE",
"492 0 CURVE SMOOTH",
"514 0 OFFCURVE",
"552 0 OFFCURVE",
"559 0 CURVE SMOOTH",
"566 0 OFFCURVE",
"570 4 OFFCURVE",
"570 11 CURVE",
"570 50.969 OFFCURVE",
"570 89.678 OFFCURVE",
"570 130 CURVE",
"550 130 LINE",
"546 130 OFFCURVE",
"543 130 OFFCURVE",
"539 130 CURVE SMOOTH",
"530 130 OFFCURVE",
"524 132 OFFCURVE",
"520 136 CURVE SMOOTH",
"516 140 OFFCURVE",
"514 147 OFFCURVE",
"514 155 CURVE SMOOTH",
"514 214.656 OFFCURVE",
"514 276.72 OFFCURVE",
"514 337 CURVE SMOOTH"
);
},
{
closed = 1;
nodes = (
"200 192 LINE SMOOTH",
"200 201 OFFCURVE",
"203 209 OFFCURVE",
"209 215 CURVE SMOOTH",
"215 221 OFFCURVE",
"224 225 OFFCURVE",
"236 225 CURVE SMOOTH",
"295.667 225 OFFCURVE",
"355.333 225 OFFCURVE",
"415 225 CURVE",
"415 250 OFFCURVE",
"413 315 OFFCURVE",
"395 315 CURVE SMOOTH",
"343.634 315 OFFCURVE",
"277.885 315 OFFCURVE",
"207 315 CURVE",
"111 315 OFFCURVE",
"50 256 OFFCURVE",
"50 171 CURVE SMOOTH",
"50 134 LINE SMOOTH",
"50 49 OFFCURVE",
"107 -10 OFFCURVE",
"197 -10 CURVE SMOOTH",
"269.318 -10 OFFCURVE",
"327.883 24.709 OFFCURVE",
"353 87 CURVE",
"382 87 LINE",
"382 172 LINE",
"333.877 138.212 OFFCURVE",
"285.702 122 OFFCURVE",
"236 122 CURVE SMOOTH",
"211 122 OFFCURVE",
"200 133 OFFCURVE",
"200 155 CURVE SMOOTH"
);
}
);
userData = {
com.typemytype.robofont.Image.Brightness = 0;
com.typemytype.robofont.Image.Contrast = 1;
com.typemytype.robofont.Image.Saturation = 1;
com.typemytype.robofont.Image.Sharpness = 0.4;
com.typemytype.robofont.guideline.magnetic.1009Z2In36 = 10;
com.typemytype.robofont.guideline.magnetic.1SUqwilery = 10;
com.typemytype.robofont.guideline.magnetic.1u8iJh1Zaz = 0;
com.typemytype.robofont.guideline.magnetic.1yyU3qsOTH = 10;
com.typemytype.robofont.guideline.magnetic.2ZF2o9RQec = 10;
com.typemytype.robofont.guideline.magnetic.3vCoVLuyhP = 10;
com.typemytype.robofont.guideline.magnetic.4pyCuUXkzV = 0;
com.typemytype.robofont.guideline.magnetic.5fmJ6kYAze = 10;
com.typemytype.robofont.guideline.magnetic.6ALAqyhogl = 10;
com.typemytype.robofont.guideline.magnetic.6DlCiQSx00 = 0;
com.typemytype.robofont.guideline.magnetic.8T55jjFwCm = 10;
com.typemytype.robofont.guideline.magnetic.95S62QK9Nx = 0;
com.typemytype.robofont.guideline.magnetic.9cXlBI06EX = 10;
com.typemytype.robofont.guideline.magnetic.AAy4oP0ouN = 0;
com.typemytype.robofont.guideline.magnetic.AYDAb5QVTA = 0;
com.typemytype.robofont.guideline.magnetic.Ap4kk4d2Wq = 10;
com.typemytype.robofont.guideline.magnetic.CaZ2QmXMZz = 0;
com.typemytype.robofont.guideline.magnetic.D6stFscNIL = 10;
com.typemytype.robofont.guideline.magnetic.DPfMhrvwiP = 10;
com.typemytype.robofont.guideline.magnetic.EOezYd0lsC = 0;
com.typemytype.robofont.guideline.magnetic.GHPjKSJDxQ = 0;
com.typemytype.robofont.guideline.magnetic.H5L1jI4ej6 = 10;
com.typemytype.robofont.guideline.magnetic.IlLTxeGa5b = 10;
com.typemytype.robofont.guideline.magnetic.JbpDeqznL6 = 0;
com.typemytype.robofont.guideline.magnetic.Jg4i0T9Kh4 = 0;
com.typemytype.robofont.guideline.magnetic.KQr3dVG8Ja = 0;
com.typemytype.robofont.guideline.magnetic.KizlD0iLea = 0;
com.typemytype.robofont.guideline.magnetic.M5mkFCVJmA = 10;
com.typemytype.robofont.guideline.magnetic.NRuv9ER9W5 = 10;
com.typemytype.robofont.guideline.magnetic.Nfu9sNKua3 = 0;
com.typemytype.robofont.guideline.magnetic.Nk9SwGmg5V = 10;
com.typemytype.robofont.guideline.magnetic.OjB4huFEMX = 0;
com.typemytype.robofont.guideline.magnetic.PxBsgS2khg = 0;
com.typemytype.robofont.guideline.magnetic.RFVat0haFP = 0;
com.typemytype.robofont.guideline.magnetic.UZmtaUyPPz = 0;
com.typemytype.robofont.guideline.magnetic.VXtJC1zYZh = 0;
com.typemytype.robofont.guideline.magnetic.WdblECtmyE = 10;
com.typemytype.robofont.guideline.magnetic.Wnw4iGKqo2 = 0;
com.typemytype.robofont.guideline.magnetic.WpkmHahdOe = 0;
com.typemytype.robofont.guideline.magnetic.YFTU7aQgXf = 0;
com.typemytype.robofont.guideline.magnetic.ZTj1W530XJ = 10;
com.typemytype.robofont.guideline.magnetic.aHh1tiPNSn = 10;
com.typemytype.robofont.guideline.magnetic.b2pVciIZ5O = 0;
com.typemytype.robofont.guideline.magnetic.cXh4pEBKVO = 10;
com.typemytype.robofont.guideline.magnetic.cxfhU3Szgb = 10;
com.typemytype.robofont.guideline.magnetic.fbQw9sMi2m = 0;
com.typemytype.robofont.guideline.magnetic.fwK19aiWnO = 0;
com.typemytype.robofont.guideline.magnetic.gWU3Wvgl9C = 10;
com.typemytype.robofont.guideline.magnetic.lAuAbbVkOQ = 10;
com.typemytype.robofont.guideline.magnetic.n4jdWnLBDa = 0;
com.typemytype.robofont.guideline.magnetic.ncuMmIogNo = 10;
com.typemytype.robofont.guideline.magnetic.ogS7Szc7eU = 10;
com.typemytype.robofont.guideline.magnetic.pJD5BQpZdn = 10;
com.typemytype.robofont.guideline.magnetic.pPdKxNpBL3 = 10;
com.typemytype.robofont.guideline.magnetic.pytiKSZKhS = 0;
com.typemytype.robofont.guideline.magnetic.rhJ3jJlZXB = 10;
com.typemytype.robofont.guideline.magnetic.sbKVG5hHEv = 0;
com.typemytype.robofont.guideline.magnetic.t1uxDckSIJ = 10;
com.typemytype.robofont.guideline.magnetic.t961AKn1Hw = 0;
com.typemytype.robofont.guideline.magnetic.thFANOMBWr = 10;
com.typemytype.robofont.guideline.magnetic.utB0MLGQn2 = 0;
com.typemytype.robofont.guideline.magnetic.vVZhaTlpmA = 10;
com.typemytype.robofont.guideline.magnetic.xZoshhE3uX = 0;
com.typemytype.robofont.guideline.magnetic.zQBGW1fiex = 0;
com.typemytype.robofont.guideline.magnetic.znSxBprQlS = 0;
com.typemytype.robofont.guideline.magnetic.ztXazp6UZZ = 10;
};
width = 600;
},
{
anchors = (
{
name = bottom;
position = "{310, -1}";
},
{
name = hook;
position = "{299, 584}";
},
{
name = ogonek;
position = "{529, 0}";
},
{
name = top;
position = "{300, 551}";
}
);
associatedMasterId = master01;
layerId = "0ADB0B5C-49AB-43BB-9339-DBE80D8BDEF2";
name = foreground;
paths = (
{
closed = 1;
nodes = (
"514 489.681 OFFCURVE",
"440 550 OFFCURVE",
"267 550 CURVE SMOOTH",
"195 550 OFFCURVE",
"105 530 OFFCURVE",
"93 518 CURVE SMOOTH",
"91 516 OFFCURVE",
"90 513 OFFCURVE",
"90 508 CURVE SMOOTH",
"90 470.299 OFFCURVE",
"90 428 OFFCURVE",
"90 390 CURVE",
"110 390 LINE",
"162 406 OFFCURVE",
"210 413 OFFCURVE",
"267 413 CURVE SMOOTH",
"336.587 413 OFFCURVE",
"364 397 OFFCURVE",
"364 347 CURVE",
"364 314 OFFCURVE",
"364 284 OFFCURVE",
"364 251 CURVE SMOOTH",
"364 211 OFFCURVE",
"364 171 OFFCURVE",
"364 131 CURVE",
"364 53 OFFCURVE",
"415.97 0 OFFCURVE",
"492 0 CURVE SMOOTH",
"514 0 OFFCURVE",
"552 0 OFFCURVE",
"559 0 CURVE SMOOTH",
"566 0 OFFCURVE",
"570 4 OFFCURVE",
"570 11 CURVE",
"570 50.969 OFFCURVE",
"570 89.678 OFFCURVE",
"570 130 CURVE",
"550 130 LINE",
"546 130 OFFCURVE",
"543 130 OFFCURVE",
"539 130 CURVE SMOOTH",
"530 130 OFFCURVE",
"524 132 OFFCURVE",
"520 136 CURVE SMOOTH",
"516 140 OFFCURVE",
"514 147 OFFCURVE",
"514 155 CURVE SMOOTH",
"514 214.656 OFFCURVE",
"514 276.72 OFFCURVE",
"514 337 CURVE SMOOTH"
);
},
{
closed = 1;
nodes = (
"200 192 LINE SMOOTH",
"200 201 OFFCURVE",
"203 209 OFFCURVE",
"209 215 CURVE SMOOTH",
"215 221 OFFCURVE",
"224 225 OFFCURVE",
"236 225 CURVE SMOOTH",
"295.667 225 OFFCURVE",
"355.333 225 OFFCURVE",
"415 225 CURVE",
"415 250 OFFCURVE",
"413 315 OFFCURVE",
"395 315 CURVE SMOOTH",
"343.634 315 OFFCURVE",
"277.885 315 OFFCURVE",
"207 315 CURVE",
"111 315 OFFCURVE",
"50 256 OFFCURVE",
"50 171 CURVE SMOOTH",
"50 134 LINE SMOOTH",
"50 49 OFFCURVE",
"107 -10 OFFCURVE",
"197 -10 CURVE SMOOTH",
"269.318 -10 OFFCURVE",
"327.883 24.709 OFFCURVE",
"353 87 CURVE",
"382 87 LINE",
"382 172 LINE",
"333.877 138.212 OFFCURVE",
"285.702 122 OFFCURVE",
"236 122 CURVE SMOOTH",
"211 122 OFFCURVE",
"200 133 OFFCURVE",
"200 155 CURVE SMOOTH"
);
}
);
userData = {
com.typemytype.robofont.Image.Brightness = 0;
com.typemytype.robofont.Image.Contrast = 1;
com.typemytype.robofont.Image.Saturation = 1;
com.typemytype.robofont.Image.Sharpness = 0.4;
com.typemytype.robofont.guideline.magnetic.1009Z2In36 = 10;
com.typemytype.robofont.guideline.magnetic.1SUqwilery = 10;
com.typemytype.robofont.guideline.magnetic.1u8iJh1Zaz = 0;
com.typemytype.robofont.guideline.magnetic.1yyU3qsOTH = 10;
com.typemytype.robofont.guideline.magnetic.2ZF2o9RQec = 10;
com.typemytype.robofont.guideline.magnetic.3vCoVLuyhP = 10;
com.typemytype.robofont.guideline.magnetic.4pyCuUXkzV = 0;
com.typemytype.robofont.guideline.magnetic.5fmJ6kYAze = 10;
com.typemytype.robofont.guideline.magnetic.6ALAqyhogl = 10;
com.typemytype.robofont.guideline.magnetic.6DlCiQSx00 = 0;
com.typemytype.robofont.guideline.magnetic.8T55jjFwCm = 10;
com.typemytype.robofont.guideline.magnetic.95S62QK9Nx = 0;
com.typemytype.robofont.guideline.magnetic.9cXlBI06EX = 10;
com.typemytype.robofont.guideline.magnetic.AAy4oP0ouN = 0;
com.typemytype.robofont.guideline.magnetic.AYDAb5QVTA = 0;
com.typemytype.robofont.guideline.magnetic.Ap4kk4d2Wq = 10;
com.typemytype.robofont.guideline.magnetic.CaZ2QmXMZz = 0;
com.typemytype.robofont.guideline.magnetic.D6stFscNIL = 10;
com.typemytype.robofont.guideline.magnetic.DPfMhrvwiP = 10;
com.typemytype.robofont.guideline.magnetic.EOezYd0lsC = 0;
com.typemytype.robofont.guideline.magnetic.GHPjKSJDxQ = 0;
com.typemytype.robofont.guideline.magnetic.H5L1jI4ej6 = 10;
com.typemytype.robofont.guideline.magnetic.IlLTxeGa5b = 10;
com.typemytype.robofont.guideline.magnetic.JbpDeqznL6 = 0;
com.typemytype.robofont.guideline.magnetic.Jg4i0T9Kh4 = 0;
com.typemytype.robofont.guideline.magnetic.KQr3dVG8Ja = 0;
com.typemytype.robofont.guideline.magnetic.KizlD0iLea = 0;
com.typemytype.robofont.guideline.magnetic.M5mkFCVJmA = 10;
com.typemytype.robofont.guideline.magnetic.NRuv9ER9W5 = 10;
com.typemytype.robofont.guideline.magnetic.Nfu9sNKua3 = 0;
com.typemytype.robofont.guideline.magnetic.Nk9SwGmg5V = 10;
com.typemytype.robofont.guideline.magnetic.OjB4huFEMX = 0;
com.typemytype.robofont.guideline.magnetic.PxBsgS2khg = 0;
com.typemytype.robofont.guideline.magnetic.RFVat0haFP = 0;
com.typemytype.robofont.guideline.magnetic.UZmtaUyPPz = 0;
com.typemytype.robofont.guideline.magnetic.VXtJC1zYZh = 0;
com.typemytype.robofont.guideline.magnetic.WdblECtmyE = 10;
com.typemytype.robofont.guideline.magnetic.Wnw4iGKqo2 = 0;
com.typemytype.robofont.guideline.magnetic.WpkmHahdOe = 0;
com.typemytype.robofont.guideline.magnetic.YFTU7aQgXf = 0;
com.typemytype.robofont.guideline.magnetic.ZTj1W530XJ = 10;
com.typemytype.robofont.guideline.magnetic.aHh1tiPNSn = 10;
com.typemytype.robofont.guideline.magnetic.b2pVciIZ5O = 0;
com.typemytype.robofont.guideline.magnetic.cXh4pEBKVO = 10;
com.typemytype.robofont.guideline.magnetic.cxfhU3Szgb = 10;
com.typemytype.robofont.guideline.magnetic.fbQw9sMi2m = 0;
com.typemytype.robofont.guideline.magnetic.fwK19aiWnO = 0;
com.typemytype.robofont.guideline.magnetic.gWU3Wvgl9C = 10;
com.typemytype.robofont.guideline.magnetic.lAuAbbVkOQ = 10;
com.typemytype.robofont.guideline.magnetic.n4jdWnLBDa = 0;
com.typemytype.robofont.guideline.magnetic.ncuMmIogNo = 10;
com.typemytype.robofont.guideline.magnetic.ogS7Szc7eU = 10;
com.typemytype.robofont.guideline.magnetic.pJD5BQpZdn = 10;
com.typemytype.robofont.guideline.magnetic.pPdKxNpBL3 = 10;
com.typemytype.robofont.guideline.magnetic.pytiKSZKhS = 0;
com.typemytype.robofont.guideline.magnetic.rhJ3jJlZXB = 10;
com.typemytype.robofont.guideline.magnetic.sbKVG5hHEv = 0;
com.typemytype.robofont.guideline.magnetic.t1uxDckSIJ = 10;
com.typemytype.robofont.guideline.magnetic.t961AKn1Hw = 0;
com.typemytype.robofont.guideline.magnetic.thFANOMBWr = 10;
com.typemytype.robofont.guideline.magnetic.utB0MLGQn2 = 0;
com.typemytype.robofont.guideline.magnetic.vVZhaTlpmA = 10;
com.typemytype.robofont.guideline.magnetic.xZoshhE3uX = 0;
com.typemytype.robofont.guideline.magnetic.zQBGW1fiex = 0;
com.typemytype.robofont.guideline.magnetic.znSxBprQlS = 0;
com.typemytype.robofont.guideline.magnetic.ztXazp6UZZ = 10;
};
width = 600;
},
{
associatedMasterId = master01;
layerId = "A5340A02-FF4F-4D03-8688-1569ECAE6A17";
name = "45degrees";
paths = (
{
closed = 1;
nodes = (
"191 550 OFFCURVE",
"97 536 OFFCURVE",
"83 522 CURVE SMOOTH",
"81 520 OFFCURVE",
"80 517 OFFCURVE",
"80 514 CURVE SMOOTH",
"80 473 OFFCURVE",
"80 431 OFFCURVE",
"80 390 CURVE",
"100 390 LINE",
"150 404 OFFCURVE",
"200 410 OFFCURVE",
"255 410 CURVE SMOOTH",
"328 410 OFFCURVE",
"358 397 OFFCURVE",
"367 367 CURVE",
"477 457 OFFCURVE",
"478 474 OFFCURVE",
"462 490 CURVE SMOOTH",
"421 531 OFFCURVE",
"357 550 OFFCURVE",
"255 550 CURVE SMOOTH"
);
},
{
closed = 1;
nodes = (
"352 405 OFFCURVE",
"359 380 OFFCURVE",
"359 357 CURVE SMOOTH",
"359 277 OFFCURVE",
"359 251 OFFCURVE",
"359 187 CURVE SMOOTH",
"359 131 OFFCURVE",
"368 77 OFFCURVE",
"408 37 CURVE SMOOTH",
"438 7 OFFCURVE",
"497 24 OFFCURVE",
"514 33 CURVE",
"514 62 OFFCURVE",
"514 86 OFFCURVE",
"514 120 CURVE SMOOTH",
"514 195 OFFCURVE",
"514 213 OFFCURVE",
"514 310 CURVE SMOOTH",
"514 399 OFFCURVE",
"498 454 OFFCURVE",
"462 490 CURVE SMOOTH",
"447 505 OFFCURVE",
"428 504 OFFCURVE",
"337 428 CURVE"
);
},
{
closed = 1;
nodes = (
"566 -10 OFFCURVE",
"570 -6 OFFCURVE",
"570 1 CURVE SMOOTH",
"570 132 LINE",
"550 132 LINE",
"546 132 OFFCURVE",
"544 132 OFFCURVE",
"539 132 CURVE SMOOTH",
"521 132 OFFCURVE",
"506 141 OFFCURVE",
"491 180 CURVE",
"395 76 OFFCURVE",
"387 58 OFFCURVE",
"408 37 CURVE SMOOTH",
"448 -3 OFFCURVE",
"495 -10 OFFCURVE",
"559 -10 CURVE SMOOTH"
);
},
{
closed = 1;
nodes = (
"200 203 LINE SMOOTH",
"200 262 OFFCURVE",
"203 278 OFFCURVE",
"216 298 CURVE",
"178 309 OFFCURVE",
"124 303 OFFCURVE",
"96 275 CURVE SMOOTH",
"67 246 OFFCURVE",
"50 208 OFFCURVE",
"50 167 CURVE SMOOTH",
"50 134 LINE SMOOTH",
"50 51 OFFCURVE",
"110 -10 OFFCURVE",
"205 -10 CURVE SMOOTH",
"273 -10 OFFCURVE",
"340 23 OFFCURVE",
"392 95 CURVE SMOOTH",
"400 106 OFFCURVE",
"401 127 OFFCURVE",
"393 183 CURVE",
"352 141 OFFCURVE",
"319 125 OFFCURVE",
"275 125 CURVE SMOOTH",
"211 125 LINE SMOOTH",
"204 125 OFFCURVE",
"200 129 OFFCURVE",
"200 136 CURVE SMOOTH"
);
},
{
closed = 1;
nodes = (
"367 303 OFFCURVE",
"295 317 OFFCURVE",
"200 317 CURVE SMOOTH",
"161 317 OFFCURVE",
"124 303 OFFCURVE",
"96 275 CURVE SMOOTH",
"69 248 OFFCURVE",
"76 209 OFFCURVE",
"100 194 CURVE",
"127 206 OFFCURVE",
"159 212 OFFCURVE",
"193 212 CURVE SMOOTH",
"247 212 OFFCURVE",
"366 212 OFFCURVE",
"410 212 CURVE",
"410 240 OFFCURVE",
"402 268 OFFCURVE",
"384 286 CURVE SMOOTH"
);
}
);
width = 600;
}
);
leftKerningGroup = a_left;
rightKerningGroup = a_right;
unicode = 0061;
},
{
color = (0,0,0,64);
glyphname = b;
layers = (
{
layerId = master01;
paths = (
{
closed = 1;
nodes = (
"181 0 OFFCURVE",
"220 109 OFFCURVE",
"220 110 CURVE",
"220 324 OFFCURVE",
"220 525 OFFCURVE",
"220 739 CURVE",
"220 746 OFFCURVE",
"216 750 OFFCURVE",
"209 750 CURVE",
"161 750 OFFCURVE",
"118 750 OFFCURVE",
"70 750 CURVE",
"70 701 OFFCURVE",
"70 652 OFFCURVE",
"70 603 CURVE",
"70 405 OFFCURVE",
"70 208 OFFCURVE",
"70 11 CURVE",
"70 4 OFFCURVE",
"74 0 OFFCURVE",
"81 0 CURVE",
"103 0 OFFCURVE",
"158 0 OFFCURVE",
"180 0 CURVE SMOOTH"
);
},
{
closed = 1;
nodes = (
"230 84 LINE",
"265 23 OFFCURVE",
"321 -10 OFFCURVE",
"382 -10 CURVE SMOOTH",
"482 -10 OFFCURVE",
"545 61 OFFCURVE",
"545 184 CURVE SMOOTH",
"545 358 LINE SMOOTH",
"545 480 OFFCURVE",
"482 552 OFFCURVE",
"382 552 CURVE SMOOTH",
"322 552 OFFCURVE",
"268 518 OFFCURVE",
"238 461 CURVE",
"209 461 LINE",
"209 331 LINE",
"243 377 OFFCURVE",
"293 407 OFFCURVE",
"331 407 CURVE SMOOTH",
"351 407 OFFCURVE",
"367 402 OFFCURVE",
"378 391 CURVE SMOOTH",
"389 380 OFFCURVE",
"395 361 OFFCURVE",
"395 333 CURVE SMOOTH",
"395 209 LINE SMOOTH",
"395 161 OFFCURVE",
"372 135 OFFCURVE",
"331 135 CURVE SMOOTH",
"292 135 OFFCURVE",
"241 156 OFFCURVE",
"205 198 CURVE",
"186 84 LINE"
);
}
);
userData = {
com.typemytype.robofont.Image.Brightness = 0;
com.typemytype.robofont.Image.Contrast = 1;
com.typemytype.robofont.Image.Saturation = 1;
com.typemytype.robofont.Image.Sharpness = 0.4;
com.typemytype.robofont.guideline.magnetic.1pctNnJzgq = 10;
com.typemytype.robofont.guideline.magnetic.3Xyx9IvaWI = 10;
com.typemytype.robofont.guideline.magnetic.4at8nCf536 = 10;
com.typemytype.robofont.guideline.magnetic.62tSKZQuIS = 10;
com.typemytype.robofont.guideline.magnetic.70JRMMYCDM = 10;
com.typemytype.robofont.guideline.magnetic.8ibpQj4K2Z = 10;
com.typemytype.robofont.guideline.magnetic.9QX4VcdfuB = 10;
com.typemytype.robofont.guideline.magnetic.D6cZmuwHt7 = 10;
com.typemytype.robofont.guideline.magnetic.GWOXSas4Bx = 10;
com.typemytype.robofont.guideline.magnetic.JVZl8grCBh = 10;
com.typemytype.robofont.guideline.magnetic.L5Mx1UXWlL = 10;
com.typemytype.robofont.guideline.magnetic.PklFEaSuVI = 10;
com.typemytype.robofont.guideline.magnetic.R6asnphEWV = 10;
com.typemytype.robofont.guideline.magnetic.UrGgq1dBI0 = 10;
com.typemytype.robofont.guideline.magnetic.Vqs3mnHFmQ = 10;
com.typemytype.robofont.guideline.magnetic.XobdAADUpz = 10;
com.typemytype.robofont.guideline.magnetic.cpF8TeDkvf = 10;
com.typemytype.robofont.guideline.magnetic.i0fY9qCnDx = 10;
com.typemytype.robofont.guideline.magnetic.igt9d0FHqH = 10;
com.typemytype.robofont.guideline.magnetic.n36n4k7acG = 10;
com.typemytype.robofont.guideline.magnetic.nxBIbunwxS = 10;
com.typemytype.robofont.guideline.magnetic.o3SK0ZLK9I = 10;
com.typemytype.robofont.guideline.magnetic.p08vHzh0jF = 10;
com.typemytype.robofont.guideline.magnetic.pWkegzPNmo = 10;
com.typemytype.robofont.guideline.magnetic.uEG8pMoK4Q = 10;
com.typemytype.robofont.guideline.magnetic.w7Whdfy8mK = 10;
com.typemytype.robofont.guideline.magnetic.wia33uoexp = 10;
com.typemytype.robofont.guideline.magnetic.x0aBXdyIRs = 10;
com.typemytype.robofont.guideline.magnetic.xs31NmJmCi = 10;
com.typemytype.robofont.guideline.magnetic.z84ThA3VR3 = 10;
com.typemytype.robofont.guideline.magnetic.zMXtHXXQ3Q = 10;
com.typemytype.robofont.guideline.magnetic.zNT1VVAHXF = 10;
com.typemytype.robofont.guideline.magnetic.zV64JLrO4p = 10;
};
width = 600;
},
{
associatedMasterId = master01;
layerId = "D90AC9CF-1371-4BBD-80EA-F0F5BDC74982";
name = foreground;
paths = (
{
closed = 1;
nodes = (
"181 0 OFFCURVE",
"220 109 OFFCURVE",
"220 110 CURVE",
"220 324 OFFCURVE",
"220 525 OFFCURVE",
"220 739 CURVE",
"220 746 OFFCURVE",
"216 750 OFFCURVE",
"209 750 CURVE",
"161 750 OFFCURVE",
"118 750 OFFCURVE",
"70 750 CURVE",
"70 701 OFFCURVE",
"70 652 OFFCURVE",
"70 603 CURVE",
"70 405 OFFCURVE",
"70 208 OFFCURVE",
"70 11 CURVE",
"70 4 OFFCURVE",
"74 0 OFFCURVE",
"81 0 CURVE",
"103 0 OFFCURVE",
"158 0 OFFCURVE",
"180 0 CURVE SMOOTH"
);
},
{
closed = 1;
nodes = (
"230 84 LINE",
"265 23 OFFCURVE",
"321 -10 OFFCURVE",
"382 -10 CURVE SMOOTH",
"482 -10 OFFCURVE",
"545 61 OFFCURVE",
"545 184 CURVE SMOOTH",
"545 358 LINE SMOOTH",
"545 480 OFFCURVE",
"482 552 OFFCURVE",
"382 552 CURVE SMOOTH",
"322 552 OFFCURVE",
"268 518 OFFCURVE",
"238 461 CURVE",
"209 461 LINE",
"209 331 LINE",
"243 377 OFFCURVE",
"293 407 OFFCURVE",
"331 407 CURVE SMOOTH",
"351 407 OFFCURVE",
"367 402 OFFCURVE",
"378 391 CURVE SMOOTH",
"389 380 OFFCURVE",
"395 361 OFFCURVE",
"395 333 CURVE SMOOTH",
"395 209 LINE SMOOTH",
"395 161 OFFCURVE",
"372 135 OFFCURVE",
"331 135 CURVE SMOOTH",
"292 135 OFFCURVE",
"241 156 OFFCURVE",
"205 198 CURVE",
"186 84 LINE"
);
}
);
userData = {
com.typemytype.robofont.Image.Brightness = 0;
com.typemytype.robofont.Image.Contrast = 1;
com.typemytype.robofont.Image.Saturation = 1;
com.typemytype.robofont.Image.Sharpness = 0.4;
com.typemytype.robofont.guideline.magnetic.1pctNnJzgq = 10;
com.typemytype.robofont.guideline.magnetic.3Xyx9IvaWI = 10;
com.typemytype.robofont.guideline.magnetic.4at8nCf536 = 10;
com.typemytype.robofont.guideline.magnetic.62tSKZQuIS = 10;
com.typemytype.robofont.guideline.magnetic.70JRMMYCDM = 10;
com.typemytype.robofont.guideline.magnetic.8ibpQj4K2Z = 10;
com.typemytype.robofont.guideline.magnetic.9QX4VcdfuB = 10;
com.typemytype.robofont.guideline.magnetic.D6cZmuwHt7 = 10;
com.typemytype.robofont.guideline.magnetic.GWOXSas4Bx = 10;
com.typemytype.robofont.guideline.magnetic.JVZl8grCBh = 10;
com.typemytype.robofont.guideline.magnetic.L5Mx1UXWlL = 10;
com.typemytype.robofont.guideline.magnetic.PklFEaSuVI = 10;
com.typemytype.robofont.guideline.magnetic.R6asnphEWV = 10;
com.typemytype.robofont.guideline.magnetic.UrGgq1dBI0 = 10;
com.typemytype.robofont.guideline.magnetic.Vqs3mnHFmQ = 10;
com.typemytype.robofont.guideline.magnetic.XobdAADUpz = 10;
com.typemytype.robofont.guideline.magnetic.cpF8TeDkvf = 10;
com.typemytype.robofont.guideline.magnetic.i0fY9qCnDx = 10;
com.typemytype.robofont.guideline.magnetic.igt9d0FHqH = 10;
com.typemytype.robofont.guideline.magnetic.n36n4k7acG = 10;
com.typemytype.robofont.guideline.magnetic.nxBIbunwxS = 10;
com.typemytype.robofont.guideline.magnetic.o3SK0ZLK9I = 10;
com.typemytype.robofont.guideline.magnetic.p08vHzh0jF = 10;
com.typemytype.robofont.guideline.magnetic.pWkegzPNmo = 10;
com.typemytype.robofont.guideline.magnetic.uEG8pMoK4Q = 10;
com.typemytype.robofont.guideline.magnetic.w7Whdfy8mK = 10;
com.typemytype.robofont.guideline.magnetic.wia33uoexp = 10;
com.typemytype.robofont.guideline.magnetic.x0aBXdyIRs = 10;
com.typemytype.robofont.guideline.magnetic.xs31NmJmCi = 10;
com.typemytype.robofont.guideline.magnetic.z84ThA3VR3 = 10;
com.typemytype.robofont.guideline.magnetic.zMXtHXXQ3Q = 10;
com.typemytype.robofont.guideline.magnetic.zNT1VVAHXF = 10;
com.typemytype.robofont.guideline.magnetic.zV64JLrO4p = 10;
};
width = 600;
},
{
associatedMasterId = master01;
layerId = "E7C80B8A-DD79-4A8E-9533-6259545796F3";
name = "old-sans";
paths = (
{
closed = 1;
nodes = (
"186 0 OFFCURVE",
"225 109 OFFCURVE",
"225 110 CURVE",
"225 324 OFFCURVE",
"225 525 OFFCURVE",
"225 739 CURVE",
"225 745 OFFCURVE",
"220 750 OFFCURVE",
"214 750 CURVE SMOOTH",
"166 750 OFFCURVE",
"118 750 OFFCURVE",
"70 750 CURVE",
"70 701 OFFCURVE",
"70 652 OFFCURVE",
"70 603 CURVE",
"70 405 OFFCURVE",
"70 208 OFFCURVE",
"70 11 CURVE",
"70 4 OFFCURVE",
"74 0 OFFCURVE",
"81 0 CURVE",
"103 0 OFFCURVE",
"163 0 OFFCURVE",
"185 0 CURVE SMOOTH"
);
},
{
closed = 1;
nodes = (
"482 -10 OFFCURVE",
"545 61 OFFCURVE",
"545 184 CURVE SMOOTH",
"545 358 LINE SMOOTH",
"545 480 OFFCURVE",
"482 552 OFFCURVE",
"382 552 CURVE SMOOTH",
"315 552 OFFCURVE",
"260 510 OFFCURVE",
"234 440 CURVE SMOOTH",
"211 378 OFFCURVE",
"191 338 OFFCURVE",
"214 331 CURVE",
"248 377 OFFCURVE",
"288 407 OFFCURVE",
"326 407 CURVE SMOOTH",
"346 407 OFFCURVE",
"362 402 OFFCURVE",
"373 391 CURVE SMOOTH",
"384 380 OFFCURVE",
"390 361 OFFCURVE",
"390 333 CURVE SMOOTH",
"390 209 LINE SMOOTH",
"390 161 OFFCURVE",
"367 135 OFFCURVE",
"326 135 CURVE SMOOTH",
"287 135 OFFCURVE",
"246 156 OFFCURVE",
"210 198 CURVE",
"197 182 OFFCURVE",
"191 168 OFFCURVE",
"230 93 CURVE SMOOTH",
"265 26 OFFCURVE",
"318 -10 OFFCURVE",
"382 -10 CURVE SMOOTH"
);
},
{
closed = 1;
nodes = (
"188 370 LINE",
"203 367 LINE",
"252 461 LINE",
"214 461 LINE"
);
},
{
closed = 1;
nodes = (
"256 84 LINE",
"211 153 LINE",
"189 150 LINE",
"191 84 LINE"
);
}
);
width = 500;
}
);
leftKerningGroup = h_left;
rightKerningGroup = o_right;
unicode = 0062;
},
